<mxfile host="app.diagrams.net" agent="Mozilla/5.0 (Windows NT 10.0; Win64; x64) AppleWebKit/537.36 (KHTML, like Gecko) Chrome/137.0.0.0 Safari/537.36" version="27.1.6" pages="2">
  <diagram name="ERD" id="9gmLliYSx7zP6psWeMGU">
    <mxGraphModel grid="0" page="0" gridSize="10" guides="1" tooltips="1" connect="1" arrows="1" fold="1" pageScale="1" pageWidth="1169" pageHeight="827" background="light-dark(#ffffff, #180202)" math="0" shadow="0">
      <root>
        <mxCell id="0" />
        <mxCell id="1" parent="0" />
        <mxCell id="9AGQyDCaSNTabn05gq13-24" style="edgeStyle=orthogonalEdgeStyle;rounded=0;orthogonalLoop=1;jettySize=auto;html=1;exitX=1;exitY=0.25;exitDx=0;exitDy=0;entryX=0;entryY=0.5;entryDx=0;entryDy=0;strokeColor=#23445D;shape=link;" edge="1" parent="1" source="8ekyDWt_shnJRA3cAdzC-1" target="9AGQyDCaSNTabn05gq13-22">
          <mxGeometry relative="1" as="geometry">
            <Array as="points">
              <mxPoint x="461" y="-55" />
              <mxPoint x="659" y="-55" />
              <mxPoint x="659" y="-264" />
            </Array>
          </mxGeometry>
        </mxCell>
        <mxCell id="9AGQyDCaSNTabn05gq13-38" value="" style="edgeStyle=orthogonalEdgeStyle;rounded=0;orthogonalLoop=1;jettySize=auto;html=1;strokeColor=#23445D;" edge="1" parent="1" source="8ekyDWt_shnJRA3cAdzC-1" target="9AGQyDCaSNTabn05gq13-37">
          <mxGeometry relative="1" as="geometry" />
        </mxCell>
        <mxCell id="8ekyDWt_shnJRA3cAdzC-1" value="Student&amp;nbsp;" style="rounded=1;whiteSpace=wrap;html=1;labelBackgroundColor=none;fillColor=#182E3E;strokeColor=#FFFFFF;fontColor=#FFFFFF;shadow=0;" vertex="1" parent="1">
          <mxGeometry x="341" y="-52" width="120" height="53" as="geometry" />
        </mxCell>
        <mxCell id="g1A_wRj14APMgHSd0Crw-21" value="" style="rounded=0;orthogonalLoop=1;jettySize=auto;html=1;strokeColor=#23445D;shape=link;labelBackgroundColor=none;fontColor=default;" edge="1" parent="1" source="g1A_wRj14APMgHSd0Crw-22" target="g1A_wRj14APMgHSd0Crw-20">
          <mxGeometry relative="1" as="geometry" />
        </mxCell>
        <mxCell id="g1A_wRj14APMgHSd0Crw-155" style="edgeStyle=orthogonalEdgeStyle;rounded=0;orthogonalLoop=1;jettySize=auto;html=1;exitX=0;exitY=0.5;exitDx=0;exitDy=0;entryX=0.5;entryY=1;entryDx=0;entryDy=0;strokeColor=#23445D;shape=link;labelBackgroundColor=none;fontColor=default;" edge="1" parent="1">
          <mxGeometry relative="1" as="geometry">
            <mxPoint x="353" y="663.53" as="sourcePoint" />
            <mxPoint x="165" y="577.53" as="targetPoint" />
          </mxGeometry>
        </mxCell>
        <mxCell id="8ekyDWt_shnJRA3cAdzC-3" value="Instructor" style="whiteSpace=wrap;html=1;rounded=1;labelBackgroundColor=none;fillColor=#182E3E;strokeColor=#FFFFFF;fontColor=#FFFFFF;" vertex="1" parent="1">
          <mxGeometry x="350" y="658" width="120" height="60" as="geometry" />
        </mxCell>
        <mxCell id="8ekyDWt_shnJRA3cAdzC-8" value="Email" style="ellipse;whiteSpace=wrap;html=1;labelBackgroundColor=none;fillColor=#182E3E;strokeColor=#FFFFFF;fontColor=#FFFFFF;" vertex="1" parent="1">
          <mxGeometry x="104.5" y="-209" width="90" height="49" as="geometry" />
        </mxCell>
        <mxCell id="8ekyDWt_shnJRA3cAdzC-10" value="StuName" style="ellipse;whiteSpace=wrap;html=1;direction=west;labelBackgroundColor=none;fillColor=#182E3E;strokeColor=#FFFFFF;fontColor=#FFFFFF;" vertex="1" parent="1">
          <mxGeometry x="97" y="-150.5" width="105" height="49" as="geometry" />
        </mxCell>
        <mxCell id="8ekyDWt_shnJRA3cAdzC-14" value="&lt;u&gt;StudentID&lt;/u&gt;" style="ellipse;whiteSpace=wrap;html=1;direction=west;labelBackgroundColor=none;fillColor=#182E3E;strokeColor=#FFFFFF;fontColor=#FFFFFF;" vertex="1" parent="1">
          <mxGeometry x="135" y="-98.25" width="98" height="35" as="geometry" />
        </mxCell>
        <mxCell id="8ekyDWt_shnJRA3cAdzC-29" value="Address" style="ellipse;whiteSpace=wrap;html=1;labelBackgroundColor=none;fillColor=#182E3E;strokeColor=#FFFFFF;fontColor=#FFFFFF;" vertex="1" parent="1">
          <mxGeometry x="352.5" y="-229" width="97" height="38" as="geometry" />
        </mxCell>
        <mxCell id="OK77SnZ9Unn4l89tnIFr-13" value="ZIP" style="ellipse;whiteSpace=wrap;html=1;labelBackgroundColor=none;fillColor=#182E3E;strokeColor=#FFFFFF;fontColor=#FFFFFF;" vertex="1" parent="1">
          <mxGeometry x="341" y="-278" width="76" height="39" as="geometry" />
        </mxCell>
        <mxCell id="OK77SnZ9Unn4l89tnIFr-15" value="City" style="ellipse;whiteSpace=wrap;html=1;labelBackgroundColor=none;fillColor=#182E3E;strokeColor=#FFFFFF;fontColor=#FFFFFF;" vertex="1" parent="1">
          <mxGeometry x="420" y="-278" width="69" height="34" as="geometry" />
        </mxCell>
        <mxCell id="g1A_wRj14APMgHSd0Crw-1" value="&lt;u&gt;InstructorID&lt;/u&gt;" style="ellipse;whiteSpace=wrap;html=1;labelBackgroundColor=none;fillColor=#182E3E;strokeColor=#FFFFFF;fontColor=#FFFFFF;" vertex="1" parent="1">
          <mxGeometry x="133" y="787" width="120" height="59" as="geometry" />
        </mxCell>
        <mxCell id="g1A_wRj14APMgHSd0Crw-2" value="Email" style="ellipse;whiteSpace=wrap;html=1;labelBackgroundColor=none;fillColor=#182E3E;strokeColor=#FFFFFF;fontColor=#FFFFFF;" vertex="1" parent="1">
          <mxGeometry x="399" y="790" width="120" height="52" as="geometry" />
        </mxCell>
        <mxCell id="g1A_wRj14APMgHSd0Crw-4" value="InsName" style="ellipse;whiteSpace=wrap;html=1;labelBackgroundColor=none;fillColor=#182E3E;strokeColor=#FFFFFF;fontColor=#FFFFFF;" vertex="1" parent="1">
          <mxGeometry x="263" y="790" width="120" height="54" as="geometry" />
        </mxCell>
        <mxCell id="g1A_wRj14APMgHSd0Crw-6" value="Phone" style="ellipse;whiteSpace=wrap;html=1;labelBackgroundColor=none;fillColor=#182E3E;strokeColor=#FFFFFF;fontColor=#FFFFFF;" vertex="1" parent="1">
          <mxGeometry x="530" y="787" width="120" height="52" as="geometry" />
        </mxCell>
        <mxCell id="g1A_wRj14APMgHSd0Crw-8" value="Specialization" style="ellipse;whiteSpace=wrap;html=1;labelBackgroundColor=none;fillColor=#182E3E;strokeColor=#FFFFFF;fontColor=#FFFFFF;" vertex="1" parent="1">
          <mxGeometry x="656" y="755" width="120" height="56" as="geometry" />
        </mxCell>
        <mxCell id="g1A_wRj14APMgHSd0Crw-15" value="" style="endArrow=none;html=1;rounded=0;strokeColor=#23445D;exitX=1;exitY=0.883;exitDx=0;exitDy=0;labelBackgroundColor=none;fontColor=default;entryX=0.05;entryY=0.319;entryDx=0;entryDy=0;entryPerimeter=0;exitPerimeter=0;" edge="1" parent="1" source="8ekyDWt_shnJRA3cAdzC-3" target="g1A_wRj14APMgHSd0Crw-8">
          <mxGeometry relative="1" as="geometry">
            <mxPoint x="410" y="722" as="sourcePoint" />
            <mxPoint x="662" y="770" as="targetPoint" />
          </mxGeometry>
        </mxCell>
        <mxCell id="g1A_wRj14APMgHSd0Crw-16" value="" style="endArrow=none;html=1;rounded=0;strokeColor=#23445D;entryX=0;entryY=0;entryDx=0;entryDy=0;labelBackgroundColor=none;fontColor=default;exitX=0.883;exitY=1;exitDx=0;exitDy=0;exitPerimeter=0;" edge="1" parent="1" source="8ekyDWt_shnJRA3cAdzC-3" target="g1A_wRj14APMgHSd0Crw-6">
          <mxGeometry relative="1" as="geometry">
            <mxPoint x="462" y="712" as="sourcePoint" />
            <mxPoint x="586" y="784" as="targetPoint" />
          </mxGeometry>
        </mxCell>
        <mxCell id="g1A_wRj14APMgHSd0Crw-17" value="" style="endArrow=none;html=1;rounded=0;strokeColor=#23445D;entryX=0.417;entryY=0.014;entryDx=0;entryDy=0;entryPerimeter=0;labelBackgroundColor=none;fontColor=default;exitX=0.5;exitY=0.967;exitDx=0;exitDy=0;exitPerimeter=0;" edge="1" parent="1" source="8ekyDWt_shnJRA3cAdzC-3" target="g1A_wRj14APMgHSd0Crw-2">
          <mxGeometry relative="1" as="geometry">
            <mxPoint x="414" y="713" as="sourcePoint" />
            <mxPoint x="682" y="827" as="targetPoint" />
          </mxGeometry>
        </mxCell>
        <mxCell id="g1A_wRj14APMgHSd0Crw-18" value="" style="endArrow=none;html=1;rounded=0;strokeColor=#23445D;exitX=0.25;exitY=1;exitDx=0;exitDy=0;labelBackgroundColor=none;fontColor=default;entryX=0.638;entryY=0.007;entryDx=0;entryDy=0;entryPerimeter=0;" edge="1" parent="1" source="8ekyDWt_shnJRA3cAdzC-3" target="g1A_wRj14APMgHSd0Crw-4">
          <mxGeometry relative="1" as="geometry">
            <mxPoint x="328" y="771" as="sourcePoint" />
            <mxPoint x="341" y="785" as="targetPoint" />
          </mxGeometry>
        </mxCell>
        <mxCell id="g1A_wRj14APMgHSd0Crw-20" value="Course" style="whiteSpace=wrap;html=1;rounded=1;labelBackgroundColor=none;fillColor=#182E3E;strokeColor=#FFFFFF;fontColor=#FFFFFF;" vertex="1" parent="1">
          <mxGeometry x="1114" y="658" width="120" height="60" as="geometry" />
        </mxCell>
        <mxCell id="g1A_wRj14APMgHSd0Crw-22" value="Teach" style="rhombus;whiteSpace=wrap;html=1;fillColor=#182E3E;strokeColor=#FFFFFF;fontColor=#FFFFFF;rounded=1;labelBackgroundColor=none;" vertex="1" parent="1">
          <mxGeometry x="730" y="648" width="80" height="80" as="geometry" />
        </mxCell>
        <mxCell id="g1A_wRj14APMgHSd0Crw-25" value="CreditHours" style="ellipse;whiteSpace=wrap;html=1;labelBackgroundColor=none;fillColor=#182E3E;strokeColor=#FFFFFF;fontColor=#FFFFFF;" vertex="1" parent="1">
          <mxGeometry x="1230" y="778" width="105" height="50" as="geometry" />
        </mxCell>
        <mxCell id="g1A_wRj14APMgHSd0Crw-26" value="CrsName" style="ellipse;whiteSpace=wrap;html=1;labelBackgroundColor=none;fillColor=#182E3E;strokeColor=#FFFFFF;fontColor=#FFFFFF;" vertex="1" parent="1">
          <mxGeometry x="1053" y="778" width="107" height="54" as="geometry" />
        </mxCell>
        <mxCell id="g1A_wRj14APMgHSd0Crw-30" value="" style="endArrow=none;html=1;rounded=0;strokeColor=#23445D;exitX=0.75;exitY=1;exitDx=0;exitDy=0;labelBackgroundColor=none;fontColor=default;" edge="1" parent="1" source="g1A_wRj14APMgHSd0Crw-20">
          <mxGeometry relative="1" as="geometry">
            <mxPoint x="1185" y="725" as="sourcePoint" />
            <mxPoint x="1273" y="778" as="targetPoint" />
          </mxGeometry>
        </mxCell>
        <mxCell id="g1A_wRj14APMgHSd0Crw-31" value="" style="endArrow=none;html=1;rounded=0;strokeColor=#23445D;exitX=0.325;exitY=0.95;exitDx=0;exitDy=0;exitPerimeter=0;labelBackgroundColor=none;fontColor=default;entryX=0.66;entryY=0.003;entryDx=0;entryDy=0;entryPerimeter=0;" edge="1" parent="1" target="g1A_wRj14APMgHSd0Crw-26">
          <mxGeometry relative="1" as="geometry">
            <mxPoint x="1163" y="718" as="sourcePoint" />
            <mxPoint x="1127" y="771" as="targetPoint" />
          </mxGeometry>
        </mxCell>
        <mxCell id="g1A_wRj14APMgHSd0Crw-32" value="" style="endArrow=none;html=1;rounded=0;strokeColor=#23445D;exitX=0.651;exitY=0.069;exitDx=0;exitDy=0;exitPerimeter=0;labelBackgroundColor=none;fontColor=default;" edge="1" parent="1" source="g1A_wRj14APMgHSd0Crw-33">
          <mxGeometry relative="1" as="geometry">
            <mxPoint x="984" y="790" as="sourcePoint" />
            <mxPoint x="1125" y="719" as="targetPoint" />
          </mxGeometry>
        </mxCell>
        <mxCell id="g1A_wRj14APMgHSd0Crw-33" value="&lt;u&gt;CourseID&lt;/u&gt;&lt;div&gt;&lt;br&gt;&lt;/div&gt;" style="ellipse;whiteSpace=wrap;html=1;labelBackgroundColor=none;fillColor=#182E3E;strokeColor=#FFFFFF;fontColor=#FFFFFF;" vertex="1" parent="1">
          <mxGeometry x="920" y="783" width="109" height="50.5" as="geometry" />
        </mxCell>
        <mxCell id="g1A_wRj14APMgHSd0Crw-38" value="M" style="resizable=0;html=1;whiteSpace=wrap;align=left;verticalAlign=bottom;strokeColor=#FFFFFF;fontColor=#FFFFFF;fillColor=#182E3E;labelBackgroundColor=none;" connectable="0" vertex="1" parent="1">
          <mxGeometry x="703" y="683" as="geometry" />
        </mxCell>
        <mxCell id="g1A_wRj14APMgHSd0Crw-42" style="edgeStyle=orthogonalEdgeStyle;rounded=0;orthogonalLoop=1;jettySize=auto;html=1;entryX=0.5;entryY=0;entryDx=0;entryDy=0;strokeColor=#23445D;labelBackgroundColor=none;fontColor=default;shape=link;" edge="1" parent="1" target="g1A_wRj14APMgHSd0Crw-20">
          <mxGeometry relative="1" as="geometry">
            <mxPoint x="1174" y="347" as="sourcePoint" />
          </mxGeometry>
        </mxCell>
        <mxCell id="g1A_wRj14APMgHSd0Crw-40" value="Enroll&amp;nbsp;" style="rhombus;whiteSpace=wrap;html=1;fillColor=#182E3E;strokeColor=#FFFFFF;fontColor=#FFFFFF;rounded=1;labelBackgroundColor=none;shadow=0;" vertex="1" parent="1">
          <mxGeometry x="1134" y="266" width="80" height="94" as="geometry" />
        </mxCell>
        <mxCell id="g1A_wRj14APMgHSd0Crw-44" value="M" style="resizable=0;html=1;whiteSpace=wrap;align=right;verticalAlign=bottom;strokeColor=#FFFFFF;fontColor=#FFFFFF;fillColor=#182E3E;labelBackgroundColor=none;" connectable="0" vertex="1" parent="1">
          <mxGeometry x="1160" y="378" as="geometry" />
        </mxCell>
        <mxCell id="g1A_wRj14APMgHSd0Crw-45" value="Enrollment Date" style="ellipse;whiteSpace=wrap;html=1;fillColor=#182E3E;strokeColor=#FFFFFF;fontColor=#FFFFFF;rounded=1;labelBackgroundColor=none;shadow=0;" vertex="1" parent="1">
          <mxGeometry x="1269" y="284" width="97" height="55.75" as="geometry" />
        </mxCell>
        <mxCell id="g1A_wRj14APMgHSd0Crw-48" value="StartTime" style="ellipse;whiteSpace=wrap;html=1;labelBackgroundColor=none;fillColor=#182E3E;strokeColor=#FFFFFF;fontColor=#FFFFFF;" vertex="1" parent="1">
          <mxGeometry x="2198" y="782" width="120" height="56" as="geometry" />
        </mxCell>
        <mxCell id="g1A_wRj14APMgHSd0Crw-49" value="Date" style="ellipse;whiteSpace=wrap;html=1;labelBackgroundColor=none;fillColor=#182E3E;strokeColor=#FFFFFF;fontColor=#FFFFFF;" vertex="1" parent="1">
          <mxGeometry x="2062" y="787" width="115" height="61" as="geometry" />
        </mxCell>
        <mxCell id="g1A_wRj14APMgHSd0Crw-51" value="DifficultyLevel" style="ellipse;whiteSpace=wrap;html=1;labelBackgroundColor=none;fillColor=#182E3E;strokeColor=#FFFFFF;fontColor=#FFFFFF;" vertex="1" parent="1">
          <mxGeometry x="2501" y="664" width="99" height="55" as="geometry" />
        </mxCell>
        <mxCell id="g1A_wRj14APMgHSd0Crw-52" value="" style="endArrow=none;html=1;rounded=0;strokeColor=#23445D;exitX=1;exitY=0.5;exitDx=0;exitDy=0;labelBackgroundColor=none;fontColor=default;" edge="1" parent="1" source="g1A_wRj14APMgHSd0Crw-47">
          <mxGeometry relative="1" as="geometry">
            <mxPoint x="2142" y="708" as="sourcePoint" />
            <mxPoint x="2502" y="696" as="targetPoint" />
          </mxGeometry>
        </mxCell>
        <mxCell id="g1A_wRj14APMgHSd0Crw-53" value="" style="endArrow=none;html=1;rounded=0;strokeColor=#23445D;entryX=0.414;entryY=0.033;entryDx=0;entryDy=0;entryPerimeter=0;exitX=1;exitY=0.75;exitDx=0;exitDy=0;labelBackgroundColor=none;fontColor=default;" edge="1" parent="1" source="g1A_wRj14APMgHSd0Crw-47" target="g1A_wRj14APMgHSd0Crw-58">
          <mxGeometry relative="1" as="geometry">
            <mxPoint x="2187" y="689" as="sourcePoint" />
            <mxPoint x="2339" y="774" as="targetPoint" />
          </mxGeometry>
        </mxCell>
        <mxCell id="g1A_wRj14APMgHSd0Crw-54" value="" style="endArrow=none;html=1;rounded=0;strokeColor=#23445D;exitX=0.444;exitY=0.917;exitDx=0;exitDy=0;exitPerimeter=0;labelBackgroundColor=none;fontColor=default;entryX=0.467;entryY=0;entryDx=0;entryDy=0;entryPerimeter=0;" edge="1" parent="1" source="g1A_wRj14APMgHSd0Crw-47" target="g1A_wRj14APMgHSd0Crw-48">
          <mxGeometry relative="1" as="geometry">
            <mxPoint x="2164" y="712" as="sourcePoint" />
            <mxPoint x="2248" y="778" as="targetPoint" />
          </mxGeometry>
        </mxCell>
        <mxCell id="g1A_wRj14APMgHSd0Crw-55" value="" style="endArrow=none;html=1;rounded=0;strokeColor=#23445D;entryX=0.5;entryY=0;entryDx=0;entryDy=0;labelBackgroundColor=none;fontColor=default;" edge="1" parent="1" target="g1A_wRj14APMgHSd0Crw-49">
          <mxGeometry relative="1" as="geometry">
            <mxPoint x="2188" y="690" as="sourcePoint" />
            <mxPoint x="2333" y="843" as="targetPoint" />
          </mxGeometry>
        </mxCell>
        <mxCell id="g1A_wRj14APMgHSd0Crw-56" value="" style="endArrow=none;html=1;rounded=0;strokeColor=#23445D;entryX=0.419;entryY=1.001;entryDx=0;entryDy=0;entryPerimeter=0;labelBackgroundColor=none;fontColor=default;exitX=0.622;exitY=0.049;exitDx=0;exitDy=0;exitPerimeter=0;" edge="1" parent="1" source="g1A_wRj14APMgHSd0Crw-57" target="g1A_wRj14APMgHSd0Crw-47">
          <mxGeometry relative="1" as="geometry">
            <mxPoint x="1991" y="788" as="sourcePoint" />
            <mxPoint x="2153" y="702" as="targetPoint" />
          </mxGeometry>
        </mxCell>
        <mxCell id="g1A_wRj14APMgHSd0Crw-57" value="&lt;u&gt;ExamID&lt;/u&gt;" style="ellipse;whiteSpace=wrap;html=1;labelBackgroundColor=none;fillColor=#182E3E;strokeColor=#FFFFFF;fontColor=#FFFFFF;" vertex="1" parent="1">
          <mxGeometry x="1930" y="790" width="111" height="61" as="geometry" />
        </mxCell>
        <mxCell id="g1A_wRj14APMgHSd0Crw-58" value="Grade" style="ellipse;whiteSpace=wrap;html=1;labelBackgroundColor=none;fillColor=#182E3E;strokeColor=#FFFFFF;fontColor=#FFFFFF;" vertex="1" parent="1">
          <mxGeometry x="2416" y="726" width="115" height="46" as="geometry" />
        </mxCell>
        <mxCell id="g1A_wRj14APMgHSd0Crw-59" value="" style="resizable=0;html=1;whiteSpace=wrap;align=left;verticalAlign=bottom;strokeColor=#FFFFFF;fontColor=#FFFFFF;fillColor=#182E3E;labelBackgroundColor=none;" connectable="0" vertex="1" parent="1">
          <mxGeometry x="1246" y="678" as="geometry">
            <mxPoint x="548" y="1" as="offset" />
          </mxGeometry>
        </mxCell>
        <mxCell id="g1A_wRj14APMgHSd0Crw-60" value="M" style="resizable=0;html=1;whiteSpace=wrap;align=right;verticalAlign=bottom;strokeColor=#FFFFFF;fontColor=#FFFFFF;fillColor=#182E3E;labelBackgroundColor=none;" connectable="0" vertex="1" parent="1">
          <mxGeometry x="1834" y="675" as="geometry">
            <mxPoint x="-5" y="28" as="offset" />
          </mxGeometry>
        </mxCell>
        <mxCell id="g1A_wRj14APMgHSd0Crw-62" value="Have" style="rhombus;whiteSpace=wrap;html=1;fillColor=#182E3E;strokeColor=#FFFFFF;fontColor=#FFFFFF;rounded=1;labelBackgroundColor=none;" vertex="1" parent="1">
          <mxGeometry x="1706" y="632" width="104" height="80" as="geometry" />
        </mxCell>
        <mxCell id="g1A_wRj14APMgHSd0Crw-65" value="" style="endArrow=none;html=1;rounded=0;strokeColor=#23445D;entryX=0.414;entryY=0.033;entryDx=0;entryDy=0;entryPerimeter=0;labelBackgroundColor=none;fontColor=default;" edge="1" parent="1" target="g1A_wRj14APMgHSd0Crw-47">
          <mxGeometry relative="1" as="geometry">
            <mxPoint x="2187" y="689" as="sourcePoint" />
            <mxPoint x="2368" y="785" as="targetPoint" />
          </mxGeometry>
        </mxCell>
        <mxCell id="g1A_wRj14APMgHSd0Crw-69" style="edgeStyle=orthogonalEdgeStyle;rounded=0;orthogonalLoop=1;jettySize=auto;html=1;exitX=0.5;exitY=0;exitDx=0;exitDy=0;entryX=0.5;entryY=1;entryDx=0;entryDy=0;strokeColor=#23445D;shape=link;labelBackgroundColor=none;fontColor=default;width=2.9411764705882355;" edge="1" parent="1" source="g1A_wRj14APMgHSd0Crw-47" target="HaC53n2leKFrh9vC4OSI-78">
          <mxGeometry relative="1" as="geometry">
            <mxPoint x="2447" y="564" as="targetPoint" />
          </mxGeometry>
        </mxCell>
        <mxCell id="g1A_wRj14APMgHSd0Crw-47" value="Exam" style="whiteSpace=wrap;html=1;rounded=1;labelBackgroundColor=none;fillColor=#182E3E;strokeColor=#FFFFFF;fontColor=#FFFFFF;" vertex="1" parent="1">
          <mxGeometry x="2135" y="635" width="120" height="60" as="geometry" />
        </mxCell>
        <mxCell id="g1A_wRj14APMgHSd0Crw-66" style="edgeStyle=orthogonalEdgeStyle;rounded=0;orthogonalLoop=1;jettySize=auto;html=1;strokeColor=#23445D;shape=link;labelBackgroundColor=none;fontColor=default;exitX=1;exitY=0.5;exitDx=0;exitDy=0;" edge="1" parent="1" source="g1A_wRj14APMgHSd0Crw-62">
          <mxGeometry relative="1" as="geometry">
            <mxPoint x="1922" y="688" as="sourcePoint" />
            <mxPoint x="2132" y="671" as="targetPoint" />
          </mxGeometry>
        </mxCell>
        <mxCell id="g1A_wRj14APMgHSd0Crw-70" style="edgeStyle=orthogonalEdgeStyle;rounded=0;orthogonalLoop=1;jettySize=auto;html=1;exitX=0.5;exitY=0;exitDx=0;exitDy=0;entryX=0.5;entryY=1;entryDx=0;entryDy=0;strokeColor=#23445D;shape=link;labelBackgroundColor=none;fontColor=default;" edge="1" parent="1">
          <mxGeometry relative="1" as="geometry">
            <mxPoint x="2196" y="396" as="sourcePoint" />
            <mxPoint x="2196" y="307" as="targetPoint" />
          </mxGeometry>
        </mxCell>
        <mxCell id="g1A_wRj14APMgHSd0Crw-72" value="N" style="resizable=0;html=1;whiteSpace=wrap;align=left;verticalAlign=bottom;strokeColor=#FFFFFF;fontColor=#FFFFFF;fillColor=#182E3E;labelBackgroundColor=none;" connectable="0" vertex="1" parent="1">
          <mxGeometry x="2212" y="551" as="geometry">
            <mxPoint x="1" y="-45" as="offset" />
          </mxGeometry>
        </mxCell>
        <mxCell id="g1A_wRj14APMgHSd0Crw-74" value="Type" style="ellipse;whiteSpace=wrap;html=1;labelBackgroundColor=none;fillColor=#182E3E;strokeColor=#FFFFFF;fontColor=#FFFFFF;" vertex="1" parent="1">
          <mxGeometry x="2334" y="266.5" width="113" height="53.5" as="geometry" />
        </mxCell>
        <mxCell id="g1A_wRj14APMgHSd0Crw-77" value="" style="endArrow=none;html=1;rounded=0;strokeColor=#23445D;entryX=0;entryY=1;entryDx=0;entryDy=0;exitX=1;exitY=0.25;exitDx=0;exitDy=0;labelBackgroundColor=none;fontColor=default;" edge="1" parent="1" target="g1A_wRj14APMgHSd0Crw-82">
          <mxGeometry relative="1" as="geometry">
            <mxPoint x="2246" y="277" as="sourcePoint" />
            <mxPoint x="2723" y="344" as="targetPoint" />
          </mxGeometry>
        </mxCell>
        <mxCell id="g1A_wRj14APMgHSd0Crw-79" value="" style="endArrow=none;html=1;rounded=0;strokeColor=#23445D;exitX=1;exitY=0.5;exitDx=0;exitDy=0;entryX=0;entryY=0.5;entryDx=0;entryDy=0;labelBackgroundColor=none;fontColor=default;" edge="1" parent="1" target="g1A_wRj14APMgHSd0Crw-74">
          <mxGeometry relative="1" as="geometry">
            <mxPoint x="2246" y="287" as="sourcePoint" />
            <mxPoint x="2717" y="413" as="targetPoint" />
          </mxGeometry>
        </mxCell>
        <mxCell id="g1A_wRj14APMgHSd0Crw-80" value="" style="endArrow=none;html=1;rounded=0;strokeColor=#23445D;exitX=0;exitY=0;exitDx=0;exitDy=0;entryX=1;entryY=0.75;entryDx=0;entryDy=0;labelBackgroundColor=none;fontColor=default;" edge="1" parent="1" source="g1A_wRj14APMgHSd0Crw-81" target="HaC53n2leKFrh9vC4OSI-79">
          <mxGeometry relative="1" as="geometry">
            <mxPoint x="2347" y="347" as="sourcePoint" />
            <mxPoint x="2246" y="287" as="targetPoint" />
            <Array as="points" />
          </mxGeometry>
        </mxCell>
        <mxCell id="g1A_wRj14APMgHSd0Crw-81" value="Degree&lt;div&gt;&lt;br&gt;&lt;/div&gt;" style="ellipse;whiteSpace=wrap;html=1;labelBackgroundColor=none;fillColor=#182E3E;strokeColor=#FFFFFF;fontColor=#FFFFFF;" vertex="1" parent="1">
          <mxGeometry x="2341" y="342" width="112" height="49" as="geometry" />
        </mxCell>
        <mxCell id="g1A_wRj14APMgHSd0Crw-82" value="&lt;u&gt;QuestionID&lt;/u&gt;" style="ellipse;whiteSpace=wrap;html=1;labelBackgroundColor=none;fillColor=#182E3E;strokeColor=#FFFFFF;fontColor=#FFFFFF;" vertex="1" parent="1">
          <mxGeometry x="2334" y="182.25" width="113" height="54.75" as="geometry" />
        </mxCell>
        <mxCell id="g1A_wRj14APMgHSd0Crw-88" value="AnswerText" style="ellipse;whiteSpace=wrap;html=1;labelBackgroundColor=none;fillColor=#182E3E;strokeColor=#FFFFFF;fontColor=#FFFFFF;" vertex="1" parent="1">
          <mxGeometry x="2242" y="-166" width="116" height="54" as="geometry" />
        </mxCell>
        <mxCell id="g1A_wRj14APMgHSd0Crw-89" value="" style="endArrow=none;html=1;rounded=0;strokeColor=#23445D;exitX=0.914;exitY=-0.025;exitDx=0;exitDy=0;labelBackgroundColor=none;fontColor=default;exitPerimeter=0;entryX=0.347;entryY=0.968;entryDx=0;entryDy=0;entryPerimeter=0;" edge="1" parent="1" source="g1A_wRj14APMgHSd0Crw-96" target="g1A_wRj14APMgHSd0Crw-88">
          <mxGeometry relative="1" as="geometry">
            <mxPoint x="2192" y="56.5" as="sourcePoint" />
            <mxPoint x="2278" y="-105" as="targetPoint" />
          </mxGeometry>
        </mxCell>
        <mxCell id="g1A_wRj14APMgHSd0Crw-93" value="" style="endArrow=none;html=1;rounded=0;strokeColor=#23445D;exitX=0.439;exitY=-0.025;exitDx=0;exitDy=0;exitPerimeter=0;labelBackgroundColor=none;fontColor=default;" edge="1" parent="1" source="g1A_wRj14APMgHSd0Crw-94">
          <mxGeometry relative="1" as="geometry">
            <mxPoint x="1943" y="127.5" as="sourcePoint" />
            <mxPoint x="2118" y="-11" as="targetPoint" />
          </mxGeometry>
        </mxCell>
        <mxCell id="g1A_wRj14APMgHSd0Crw-94" value="&lt;u&gt;ChoiceID&lt;/u&gt;" style="ellipse;whiteSpace=wrap;html=1;labelBackgroundColor=none;fillColor=#182E3E;strokeColor=#FFFFFF;fontColor=#FFFFFF;" vertex="1" parent="1">
          <mxGeometry x="1990" y="-171" width="107" height="59" as="geometry" />
        </mxCell>
        <mxCell id="g1A_wRj14APMgHSd0Crw-96" value="Choice" style="whiteSpace=wrap;html=1;rounded=1;labelBackgroundColor=none;fillColor=#182E3E;strokeColor=#FFFFFF;fontColor=#FFFFFF;" vertex="1" parent="1">
          <mxGeometry x="2101" y="-17" width="120" height="60" as="geometry" />
        </mxCell>
        <mxCell id="g1A_wRj14APMgHSd0Crw-100" value="ISCorrect" style="ellipse;whiteSpace=wrap;html=1;align=center;dashed=1;strokeColor=#FFFFFF;fontColor=#FFFFFF;fillColor=#182E3E;labelBackgroundColor=none;" vertex="1" parent="1">
          <mxGeometry x="2113" y="-171" width="118" height="54" as="geometry" />
        </mxCell>
        <mxCell id="g1A_wRj14APMgHSd0Crw-101" value="" style="endArrow=none;html=1;rounded=0;strokeColor=#23445D;labelBackgroundColor=none;fontColor=default;" edge="1" parent="1" target="g1A_wRj14APMgHSd0Crw-100">
          <mxGeometry relative="1" as="geometry">
            <mxPoint x="2164" y="-18" as="sourcePoint" />
            <mxPoint x="2522" y="132.5" as="targetPoint" />
          </mxGeometry>
        </mxCell>
        <mxCell id="g1A_wRj14APMgHSd0Crw-117" style="edgeStyle=orthogonalEdgeStyle;rounded=0;orthogonalLoop=1;jettySize=auto;html=1;exitX=1;exitY=1;exitDx=0;exitDy=0;entryX=0;entryY=0.25;entryDx=0;entryDy=0;strokeColor=#23445D;shape=link;labelBackgroundColor=none;fontColor=default;" edge="1" parent="1" source="g1A_wRj14APMgHSd0Crw-114" target="g1A_wRj14APMgHSd0Crw-47">
          <mxGeometry relative="1" as="geometry">
            <Array as="points">
              <mxPoint x="1888" y="156" />
              <mxPoint x="1888" y="650" />
            </Array>
          </mxGeometry>
        </mxCell>
        <mxCell id="fSc7eDOPMMbUQG9ATcYm-1" style="edgeStyle=orthogonalEdgeStyle;rounded=0;orthogonalLoop=1;jettySize=auto;html=1;exitX=1;exitY=0;exitDx=0;exitDy=0;entryX=0;entryY=0.75;entryDx=0;entryDy=0;strokeColor=#23445D;shape=link;" edge="1" parent="1" source="g1A_wRj14APMgHSd0Crw-114" target="HaC53n2leKFrh9vC4OSI-79">
          <mxGeometry relative="1" as="geometry">
            <Array as="points">
              <mxPoint x="1947" y="121" />
              <mxPoint x="1947" y="294" />
            </Array>
          </mxGeometry>
        </mxCell>
        <mxCell id="g1A_wRj14APMgHSd0Crw-114" value="Submit" style="rhombus;whiteSpace=wrap;html=1;fillColor=#182E3E;strokeColor=#FFFFFF;fontColor=#FFFFFF;rounded=1;labelBackgroundColor=none;shadow=0;" vertex="1" parent="1">
          <mxGeometry x="1524" y="96" width="80" height="99" as="geometry" />
        </mxCell>
        <mxCell id="g1A_wRj14APMgHSd0Crw-118" value="M" style="resizable=0;html=1;whiteSpace=wrap;align=right;verticalAlign=bottom;strokeColor=#FFFFFF;fontColor=#FFFFFF;fillColor=#182E3E;labelBackgroundColor=none;" connectable="0" vertex="1" parent="1">
          <mxGeometry x="1539" y="88" as="geometry">
            <mxPoint x="37" y="5" as="offset" />
          </mxGeometry>
        </mxCell>
        <mxCell id="g1A_wRj14APMgHSd0Crw-120" value="M" style="resizable=0;html=1;whiteSpace=wrap;align=right;verticalAlign=bottom;strokeColor=#FFFFFF;fontColor=#FFFFFF;fillColor=#182E3E;labelBackgroundColor=none;" connectable="0" vertex="1" parent="1">
          <mxGeometry x="1614" y="226" as="geometry">
            <mxPoint x="3" y="-29" as="offset" />
          </mxGeometry>
        </mxCell>
        <mxCell id="g1A_wRj14APMgHSd0Crw-128" style="edgeStyle=orthogonalEdgeStyle;rounded=0;orthogonalLoop=1;jettySize=auto;html=1;exitX=0.5;exitY=0.05;exitDx=0;exitDy=0;strokeColor=#23445D;shape=link;labelBackgroundColor=none;fontColor=default;exitPerimeter=0;" edge="1" parent="1" source="g1A_wRj14APMgHSd0Crw-126" target="g1A_wRj14APMgHSd0Crw-20">
          <mxGeometry relative="1" as="geometry">
            <mxPoint x="1174.0769230769229" y="727.3335524338943" as="targetPoint" />
          </mxGeometry>
        </mxCell>
        <mxCell id="g1A_wRj14APMgHSd0Crw-129" style="edgeStyle=orthogonalEdgeStyle;rounded=0;orthogonalLoop=1;jettySize=auto;html=1;exitX=0.5;exitY=0.912;exitDx=0;exitDy=0;entryX=0.5;entryY=0;entryDx=0;entryDy=0;strokeColor=#23445D;shape=link;labelBackgroundColor=none;fontColor=default;exitPerimeter=0;" edge="1" parent="1" source="g1A_wRj14APMgHSd0Crw-126" target="g1A_wRj14APMgHSd0Crw-127">
          <mxGeometry relative="1" as="geometry" />
        </mxCell>
        <mxCell id="g1A_wRj14APMgHSd0Crw-126" value="Includes" style="rhombus;whiteSpace=wrap;html=1;fillColor=#182E3E;strokeColor=#FFFFFF;fontColor=#FFFFFF;rounded=1;labelBackgroundColor=none;" vertex="1" parent="1">
          <mxGeometry x="1134" y="882" width="80" height="80" as="geometry" />
        </mxCell>
        <mxCell id="g1A_wRj14APMgHSd0Crw-127" value="Topics" style="whiteSpace=wrap;html=1;rounded=1;labelBackgroundColor=none;fillColor=#182E3E;strokeColor=#FFFFFF;fontColor=#FFFFFF;" vertex="1" parent="1">
          <mxGeometry x="1114" y="1022" width="120" height="60" as="geometry" />
        </mxCell>
        <mxCell id="g1A_wRj14APMgHSd0Crw-130" value="1" style="resizable=0;html=1;whiteSpace=wrap;align=right;verticalAlign=bottom;strokeColor=#FFFFFF;fontColor=#FFFFFF;fillColor=#182E3E;labelBackgroundColor=none;" connectable="0" vertex="1" parent="1">
          <mxGeometry x="1138" y="882" as="geometry">
            <mxPoint x="19" y="10" as="offset" />
          </mxGeometry>
        </mxCell>
        <mxCell id="g1A_wRj14APMgHSd0Crw-132" value="&lt;u&gt;TopicID&lt;/u&gt;" style="ellipse;whiteSpace=wrap;html=1;labelBackgroundColor=none;fillColor=#182E3E;strokeColor=#FFFFFF;fontColor=#FFFFFF;" vertex="1" parent="1">
          <mxGeometry x="1114" y="1165" width="120" height="56" as="geometry" />
        </mxCell>
        <mxCell id="g1A_wRj14APMgHSd0Crw-133" value="TopName" style="ellipse;whiteSpace=wrap;html=1;labelBackgroundColor=none;fillColor=#182E3E;strokeColor=#FFFFFF;fontColor=#FFFFFF;" vertex="1" parent="1">
          <mxGeometry x="1242" y="1162" width="120" height="57" as="geometry" />
        </mxCell>
        <mxCell id="g1A_wRj14APMgHSd0Crw-137" value="" style="endArrow=none;html=1;rounded=0;strokeColor=#23445D;labelBackgroundColor=none;fontColor=default;entryX=0;entryY=0;entryDx=0;entryDy=0;exitX=0.632;exitY=0.983;exitDx=0;exitDy=0;exitPerimeter=0;" edge="1" parent="1" source="g1A_wRj14APMgHSd0Crw-127" target="g1A_wRj14APMgHSd0Crw-133">
          <mxGeometry relative="1" as="geometry">
            <mxPoint x="1195" y="1079" as="sourcePoint" />
            <mxPoint x="1269" y="1238" as="targetPoint" />
          </mxGeometry>
        </mxCell>
        <mxCell id="g1A_wRj14APMgHSd0Crw-138" value="" style="endArrow=none;html=1;rounded=0;strokeColor=#23445D;entryX=0.5;entryY=0;entryDx=0;entryDy=0;exitX=0.5;exitY=1;exitDx=0;exitDy=0;labelBackgroundColor=none;fontColor=default;" edge="1" parent="1" source="g1A_wRj14APMgHSd0Crw-127" target="g1A_wRj14APMgHSd0Crw-132">
          <mxGeometry relative="1" as="geometry">
            <mxPoint x="1185" y="1233" as="sourcePoint" />
            <mxPoint x="1301" y="1334" as="targetPoint" />
          </mxGeometry>
        </mxCell>
        <mxCell id="g1A_wRj14APMgHSd0Crw-140" value="Enroll" style="rhombus;whiteSpace=wrap;html=1;fillColor=#182E3E;strokeColor=#FFFFFF;fontColor=#FFFFFF;rounded=1;labelBackgroundColor=none;shadow=0;" vertex="1" parent="1">
          <mxGeometry x="-125" y="80" width="80" height="80" as="geometry" />
        </mxCell>
        <mxCell id="g1A_wRj14APMgHSd0Crw-154" value="" style="edgeStyle=orthogonalEdgeStyle;rounded=0;orthogonalLoop=1;jettySize=auto;html=1;strokeColor=#23445D;shape=link;labelBackgroundColor=none;fontColor=default;entryX=0.5;entryY=0.025;entryDx=0;entryDy=0;entryPerimeter=0;" edge="1" parent="1" source="g1A_wRj14APMgHSd0Crw-142" target="g1A_wRj14APMgHSd0Crw-153">
          <mxGeometry relative="1" as="geometry" />
        </mxCell>
        <mxCell id="g1A_wRj14APMgHSd0Crw-142" value="Branch" style="whiteSpace=wrap;html=1;fillColor=#182E3E;strokeColor=#FFFFFF;fontColor=#FFFFFF;rounded=1;labelBackgroundColor=none;shadow=0;" vertex="1" parent="1">
          <mxGeometry x="66" y="213.5" width="120" height="60" as="geometry" />
        </mxCell>
        <mxCell id="g1A_wRj14APMgHSd0Crw-144" value="&lt;u&gt;BranchID&lt;/u&gt;&lt;div&gt;&lt;br&gt;&lt;/div&gt;" style="ellipse;whiteSpace=wrap;html=1;direction=west;labelBackgroundColor=none;fillColor=#182E3E;strokeColor=#FFFFFF;fontColor=#FFFFFF;" vertex="1" parent="1">
          <mxGeometry x="-171" y="188.5" width="111" height="61.5" as="geometry" />
        </mxCell>
        <mxCell id="g1A_wRj14APMgHSd0Crw-145" value="BranchName" style="ellipse;whiteSpace=wrap;html=1;direction=west;labelBackgroundColor=none;fillColor=#182E3E;strokeColor=#FFFFFF;fontColor=#FFFFFF;" vertex="1" parent="1">
          <mxGeometry x="-165" y="259" width="106" height="52" as="geometry" />
        </mxCell>
        <mxCell id="g1A_wRj14APMgHSd0Crw-147" value="Location" style="ellipse;whiteSpace=wrap;html=1;direction=west;labelBackgroundColor=none;fillColor=#182E3E;strokeColor=#FFFFFF;fontColor=#FFFFFF;" vertex="1" parent="1">
          <mxGeometry x="-163" y="328" width="103" height="50" as="geometry" />
        </mxCell>
        <mxCell id="g1A_wRj14APMgHSd0Crw-153" value="Hire&amp;nbsp;" style="rhombus;whiteSpace=wrap;html=1;fillColor=#182E3E;strokeColor=#FFFFFF;fontColor=#FFFFFF;rounded=1;labelBackgroundColor=none;shadow=0;" vertex="1" parent="1">
          <mxGeometry x="122" y="522" width="80" height="80" as="geometry" />
        </mxCell>
        <mxCell id="g1A_wRj14APMgHSd0Crw-156" value="M" style="resizable=0;html=1;whiteSpace=wrap;align=left;verticalAlign=bottom;strokeColor=#FFFFFF;fontColor=#FFFFFF;fillColor=#182E3E;labelBackgroundColor=none;" connectable="0" vertex="1" parent="1">
          <mxGeometry x="140" y="584" as="geometry">
            <mxPoint y="35" as="offset" />
          </mxGeometry>
        </mxCell>
        <mxCell id="g1A_wRj14APMgHSd0Crw-157" value="M" style="resizable=0;html=1;whiteSpace=wrap;align=left;verticalAlign=bottom;strokeColor=#FFFFFF;fontColor=#FFFFFF;fillColor=#182E3E;labelBackgroundColor=none;" connectable="0" vertex="1" parent="1">
          <mxGeometry x="138" y="508" as="geometry" />
        </mxCell>
        <mxCell id="HaC53n2leKFrh9vC4OSI-4" value="gender" style="ellipse;whiteSpace=wrap;html=1;labelBackgroundColor=none;fillColor=#182E3E;strokeColor=#FFFFFF;fontColor=#FFFFFF;" vertex="1" parent="1">
          <mxGeometry x="202" y="-209" width="88.5" height="43.5" as="geometry" />
        </mxCell>
        <mxCell id="HaC53n2leKFrh9vC4OSI-15" value="" style="endArrow=none;html=1;rounded=0;strokeColor=#23445D;fontColor=default;exitX=0;exitY=0.386;exitDx=0;exitDy=0;entryX=0;entryY=0.25;entryDx=0;entryDy=0;exitPerimeter=0;labelBackgroundColor=none;" edge="1" parent="1" source="8ekyDWt_shnJRA3cAdzC-14" target="8ekyDWt_shnJRA3cAdzC-1">
          <mxGeometry relative="1" as="geometry">
            <mxPoint x="132.9100147734166" y="-41.99104330100022" as="sourcePoint" />
            <mxPoint x="339" y="-34" as="targetPoint" />
          </mxGeometry>
        </mxCell>
        <mxCell id="HaC53n2leKFrh9vC4OSI-16" value="Intake" style="whiteSpace=wrap;html=1;fillColor=#182E3E;strokeColor=#FFFFFF;fontColor=#FFFFFF;rounded=1;labelBackgroundColor=none;shadow=0;" vertex="1" parent="1">
          <mxGeometry x="-588" y="-107.5" width="120" height="60" as="geometry" />
        </mxCell>
        <mxCell id="HaC53n2leKFrh9vC4OSI-18" value="&lt;u&gt;IntakeID&lt;/u&gt;&lt;div&gt;&lt;br&gt;&lt;/div&gt;" style="ellipse;whiteSpace=wrap;html=1;direction=west;labelBackgroundColor=none;fillColor=#182E3E;strokeColor=#FFFFFF;fontColor=#FFFFFF;" vertex="1" parent="1">
          <mxGeometry x="-784" y="-101.5" width="120" height="41.5" as="geometry" />
        </mxCell>
        <mxCell id="HaC53n2leKFrh9vC4OSI-20" value="IntakeName" style="ellipse;whiteSpace=wrap;html=1;direction=west;labelBackgroundColor=none;fillColor=#182E3E;strokeColor=#FFFFFF;fontColor=#FFFFFF;" vertex="1" parent="1">
          <mxGeometry x="-789" y="-163" width="120" height="48" as="geometry" />
        </mxCell>
        <mxCell id="HaC53n2leKFrh9vC4OSI-26" value="Open" style="rhombus;whiteSpace=wrap;html=1;fillColor=#182E3E;strokeColor=#FFFFFF;fontColor=#FFFFFF;rounded=1;labelBackgroundColor=none;shadow=0;" vertex="1" parent="1">
          <mxGeometry x="-115" y="-120" width="77" height="75" as="geometry" />
        </mxCell>
        <mxCell id="HaC53n2leKFrh9vC4OSI-29" value="Age" style="ellipse;whiteSpace=wrap;html=1;labelBackgroundColor=none;fillColor=#182E3E;strokeColor=#FFFFFF;fontColor=#FFFFFF;" vertex="1" parent="1">
          <mxGeometry x="344" y="-179" width="81" height="44" as="geometry" />
        </mxCell>
        <mxCell id="HaC53n2leKFrh9vC4OSI-30" value="" style="endArrow=none;html=1;rounded=0;strokeColor=#23445D;fontColor=default;exitX=1;exitY=0.5;exitDx=0;exitDy=0;entryX=0;entryY=0.5;entryDx=0;entryDy=0;labelBackgroundColor=none;" edge="1" parent="1" source="HaC53n2leKFrh9vC4OSI-16" target="HaC53n2leKFrh9vC4OSI-26">
          <mxGeometry relative="1" as="geometry">
            <mxPoint x="-129" y="-20.83" as="sourcePoint" />
            <mxPoint x="57.86832083045283" y="36.998880553635146" as="targetPoint" />
          </mxGeometry>
        </mxCell>
        <mxCell id="HaC53n2leKFrh9vC4OSI-32" value="gender" style="ellipse;whiteSpace=wrap;html=1;labelBackgroundColor=none;fillColor=#182E3E;strokeColor=#FFFFFF;fontColor=#FFFFFF;" vertex="1" parent="1">
          <mxGeometry x="598" y="695" width="107" height="49" as="geometry" />
        </mxCell>
        <mxCell id="HaC53n2leKFrh9vC4OSI-33" value="" style="endArrow=none;html=1;rounded=0;strokeColor=#23445D;exitX=0.695;exitY=0.043;exitDx=0;exitDy=0;exitPerimeter=0;labelBackgroundColor=none;fontColor=default;" edge="1" parent="1" source="g1A_wRj14APMgHSd0Crw-1">
          <mxGeometry relative="1" as="geometry">
            <mxPoint x="211" y="806" as="sourcePoint" />
            <mxPoint x="359" y="718" as="targetPoint" />
          </mxGeometry>
        </mxCell>
        <mxCell id="HaC53n2leKFrh9vC4OSI-34" value="" style="endArrow=none;html=1;rounded=0;strokeColor=#23445D;labelBackgroundColor=none;fontColor=default;exitX=1;exitY=0.75;exitDx=0;exitDy=0;entryX=0;entryY=0.5;entryDx=0;entryDy=0;" edge="1" parent="1" source="8ekyDWt_shnJRA3cAdzC-3" target="HaC53n2leKFrh9vC4OSI-32">
          <mxGeometry relative="1" as="geometry">
            <mxPoint x="452" y="747" as="sourcePoint" />
            <mxPoint x="614" y="705" as="targetPoint" />
          </mxGeometry>
        </mxCell>
        <mxCell id="HaC53n2leKFrh9vC4OSI-35" value="Phone&lt;div&gt;&lt;br&gt;&lt;/div&gt;" style="ellipse;whiteSpace=wrap;html=1;labelBackgroundColor=none;fillColor=#182E3E;strokeColor=#FFFFFF;fontColor=#FFFFFF;" vertex="1" parent="1">
          <mxGeometry x="229" y="-285" width="81" height="39.5" as="geometry" />
        </mxCell>
        <mxCell id="HaC53n2leKFrh9vC4OSI-52" value="Evaluate" style="rhombus;whiteSpace=wrap;html=1;fillColor=#182E3E;strokeColor=#FFFFFF;fontColor=#FFFFFF;rounded=1;labelBackgroundColor=none;" vertex="1" parent="1">
          <mxGeometry x="608" y="115" width="80" height="97.5" as="geometry" />
        </mxCell>
        <mxCell id="HaC53n2leKFrh9vC4OSI-54" value="" style="endArrow=none;html=1;rounded=0;strokeColor=#23445D;entryX=0.402;entryY=0.97;entryDx=0;entryDy=0;entryPerimeter=0;labelBackgroundColor=none;fontColor=default;exitX=0.2;exitY=0.017;exitDx=0;exitDy=0;exitPerimeter=0;edgeStyle=orthogonalEdgeStyle;" edge="1" parent="1" source="g1A_wRj14APMgHSd0Crw-20">
          <mxGeometry relative="1" as="geometry">
            <mxPoint x="1126" y="655" as="sourcePoint" />
            <mxPoint x="650" y="208" as="targetPoint" />
          </mxGeometry>
        </mxCell>
        <mxCell id="HaC53n2leKFrh9vC4OSI-70" value="Rateing" style="ellipse;whiteSpace=wrap;html=1;labelBackgroundColor=none;fillColor=#182E3E;strokeColor=#FFFFFF;fontColor=#FFFFFF;" vertex="1" parent="1">
          <mxGeometry x="466" y="222" width="86" height="39" as="geometry" />
        </mxCell>
        <mxCell id="HaC53n2leKFrh9vC4OSI-71" value="" style="endArrow=none;html=1;rounded=0;strokeColor=#23445D;exitX=1;exitY=0;exitDx=0;exitDy=0;labelBackgroundColor=none;fontColor=default;" edge="1" parent="1" source="HaC53n2leKFrh9vC4OSI-70" target="HaC53n2leKFrh9vC4OSI-52">
          <mxGeometry relative="1" as="geometry">
            <mxPoint x="784" y="252" as="sourcePoint" />
            <mxPoint x="910" y="146" as="targetPoint" />
          </mxGeometry>
        </mxCell>
        <mxCell id="HaC53n2leKFrh9vC4OSI-74" value="" style="endArrow=none;html=1;rounded=0;strokeColor=#23445D;labelBackgroundColor=none;fontColor=default;entryX=0;entryY=0.5;entryDx=0;entryDy=0;" edge="1" parent="1" source="HaC53n2leKFrh9vC4OSI-72" target="HaC53n2leKFrh9vC4OSI-52">
          <mxGeometry relative="1" as="geometry">
            <mxPoint x="518" y="187" as="sourcePoint" />
            <mxPoint x="857" y="138" as="targetPoint" />
          </mxGeometry>
        </mxCell>
        <mxCell id="HaC53n2leKFrh9vC4OSI-75" value="EndTime" style="ellipse;whiteSpace=wrap;html=1;labelBackgroundColor=none;fillColor=#182E3E;strokeColor=#FFFFFF;fontColor=#FFFFFF;" vertex="1" parent="1">
          <mxGeometry x="2328" y="767" width="107" height="45" as="geometry" />
        </mxCell>
        <mxCell id="HaC53n2leKFrh9vC4OSI-76" value="" style="endArrow=none;html=1;rounded=0;strokeColor=#23445D;entryX=0;entryY=0;entryDx=0;entryDy=0;exitX=0.75;exitY=1;exitDx=0;exitDy=0;labelBackgroundColor=none;fontColor=default;" edge="1" parent="1" source="g1A_wRj14APMgHSd0Crw-47" target="HaC53n2leKFrh9vC4OSI-75">
          <mxGeometry relative="1" as="geometry">
            <mxPoint x="2233" y="707" as="sourcePoint" />
            <mxPoint x="2296" y="794" as="targetPoint" />
          </mxGeometry>
        </mxCell>
        <mxCell id="HaC53n2leKFrh9vC4OSI-77" value="" style="endArrow=none;html=1;rounded=0;strokeColor=#23445D;exitX=1;exitY=0.5;exitDx=0;exitDy=0;labelBackgroundColor=none;fontColor=default;" edge="1" parent="1" source="g1A_wRj14APMgHSd0Crw-20" target="g1A_wRj14APMgHSd0Crw-62">
          <mxGeometry relative="1" as="geometry">
            <mxPoint x="1637" y="642" as="sourcePoint" />
            <mxPoint x="1908" y="668" as="targetPoint" />
          </mxGeometry>
        </mxCell>
        <mxCell id="HaC53n2leKFrh9vC4OSI-78" value="Has" style="rhombus;whiteSpace=wrap;html=1;fillColor=#182E3E;strokeColor=#FFFFFF;fontColor=#FFFFFF;rounded=1;labelBackgroundColor=none;shadow=0;" vertex="1" parent="1">
          <mxGeometry x="2156" y="393" width="80" height="80" as="geometry" />
        </mxCell>
        <mxCell id="HaC53n2leKFrh9vC4OSI-79" value="Question" style="whiteSpace=wrap;html=1;rounded=1;labelBackgroundColor=none;fillColor=#182E3E;strokeColor=#FFFFFF;fontColor=#FFFFFF;" vertex="1" parent="1">
          <mxGeometry x="2133" y="249" width="120" height="60" as="geometry" />
        </mxCell>
        <mxCell id="HaC53n2leKFrh9vC4OSI-82" value="" style="endArrow=none;html=1;rounded=0;strokeColor=#23445D;exitX=0.367;exitY=0.019;exitDx=0;exitDy=0;labelBackgroundColor=none;fontColor=default;shape=link;exitPerimeter=0;" edge="1" parent="1" source="HaC53n2leKFrh9vC4OSI-79">
          <mxGeometry relative="1" as="geometry">
            <mxPoint x="2448" y="304" as="sourcePoint" />
            <mxPoint x="2175" y="180" as="targetPoint" />
          </mxGeometry>
        </mxCell>
        <mxCell id="HaC53n2leKFrh9vC4OSI-83" style="edgeStyle=none;rounded=0;orthogonalLoop=1;jettySize=auto;html=1;exitX=1;exitY=0;exitDx=0;exitDy=0;strokeColor=#23445D;fontColor=default;labelBackgroundColor=none;" edge="1" parent="1">
          <mxGeometry relative="1" as="geometry">
            <mxPoint x="2213.000000000001" y="65" as="sourcePoint" />
            <mxPoint x="2213.000000000001" y="65" as="targetPoint" />
          </mxGeometry>
        </mxCell>
        <mxCell id="HaC53n2leKFrh9vC4OSI-86" value="Has" style="rhombus;whiteSpace=wrap;html=1;fillColor=#182E3E;strokeColor=#FFFFFF;fontColor=#FFFFFF;rounded=1;labelBackgroundColor=none;shadow=0;" vertex="1" parent="1">
          <mxGeometry x="2135" y="112" width="80" height="80" as="geometry" />
        </mxCell>
        <mxCell id="HaC53n2leKFrh9vC4OSI-87" value="" style="endArrow=none;html=1;rounded=0;strokeColor=#23445D;labelBackgroundColor=none;fontColor=default;entryX=0.577;entryY=0.947;entryDx=0;entryDy=0;entryPerimeter=0;shape=link;exitX=0.463;exitY=0.044;exitDx=0;exitDy=0;exitPerimeter=0;" edge="1" parent="1" source="HaC53n2leKFrh9vC4OSI-86" target="g1A_wRj14APMgHSd0Crw-96">
          <mxGeometry relative="1" as="geometry">
            <mxPoint x="1963" y="238" as="sourcePoint" />
            <mxPoint x="1878" y="217.89" as="targetPoint" />
          </mxGeometry>
        </mxCell>
        <mxCell id="HaC53n2leKFrh9vC4OSI-88" value="QuestionText" style="ellipse;whiteSpace=wrap;html=1;labelBackgroundColor=none;fillColor=#182E3E;strokeColor=#FFFFFF;fontColor=#FFFFFF;" vertex="1" parent="1">
          <mxGeometry x="2334" y="98" width="112" height="64" as="geometry" />
        </mxCell>
        <mxCell id="HaC53n2leKFrh9vC4OSI-89" value="" style="endArrow=none;html=1;rounded=0;strokeColor=#23445D;labelBackgroundColor=none;fontColor=default;exitX=0.725;exitY=0;exitDx=0;exitDy=0;exitPerimeter=0;" edge="1" parent="1" source="HaC53n2leKFrh9vC4OSI-79" target="HaC53n2leKFrh9vC4OSI-88">
          <mxGeometry relative="1" as="geometry">
            <mxPoint x="2216" y="246" as="sourcePoint" />
            <mxPoint x="2327" y="110" as="targetPoint" />
          </mxGeometry>
        </mxCell>
        <mxCell id="HaC53n2leKFrh9vC4OSI-91" value="Department" style="whiteSpace=wrap;html=1;rounded=1;labelBackgroundColor=none;fillColor=#182E3E;strokeColor=#FFFFFF;fontColor=#FFFFFF;" vertex="1" parent="1">
          <mxGeometry x="-542" y="667.75" width="120" height="60" as="geometry" />
        </mxCell>
        <mxCell id="HaC53n2leKFrh9vC4OSI-92" value="&lt;u&gt;DeptID&lt;/u&gt;" style="ellipse;whiteSpace=wrap;html=1;labelBackgroundColor=none;fillColor=#182E3E;strokeColor=#FFFFFF;fontColor=#FFFFFF;" vertex="1" parent="1">
          <mxGeometry x="-610" y="792" width="90" height="40" as="geometry" />
        </mxCell>
        <mxCell id="HaC53n2leKFrh9vC4OSI-93" value="DeptName&lt;div&gt;&lt;br&gt;&lt;/div&gt;" style="ellipse;whiteSpace=wrap;html=1;labelBackgroundColor=none;fillColor=#182E3E;strokeColor=#FFFFFF;fontColor=#FFFFFF;" vertex="1" parent="1">
          <mxGeometry x="-514" y="787.75" width="90" height="42" as="geometry" />
        </mxCell>
        <mxCell id="HaC53n2leKFrh9vC4OSI-94" value="" style="endArrow=none;html=1;rounded=0;strokeColor=#23445D;entryX=0.165;entryY=0.969;entryDx=0;entryDy=0;entryPerimeter=0;labelBackgroundColor=none;fontColor=default;" edge="1" parent="1" source="HaC53n2leKFrh9vC4OSI-92" target="HaC53n2leKFrh9vC4OSI-91">
          <mxGeometry relative="1" as="geometry">
            <mxPoint x="-594" y="796.75" as="sourcePoint" />
            <mxPoint x="-432" y="735.75" as="targetPoint" />
          </mxGeometry>
        </mxCell>
        <mxCell id="HaC53n2leKFrh9vC4OSI-95" value="" style="endArrow=none;html=1;rounded=0;strokeColor=#23445D;entryX=0.596;entryY=0.985;entryDx=0;entryDy=0;entryPerimeter=0;labelBackgroundColor=none;fontColor=default;exitX=0.5;exitY=0;exitDx=0;exitDy=0;" edge="1" parent="1" source="HaC53n2leKFrh9vC4OSI-93" target="HaC53n2leKFrh9vC4OSI-91">
          <mxGeometry relative="1" as="geometry">
            <mxPoint x="-504" y="799.75" as="sourcePoint" />
            <mxPoint x="-432" y="728.75" as="targetPoint" />
          </mxGeometry>
        </mxCell>
        <mxCell id="HaC53n2leKFrh9vC4OSI-96" value="Track" style="whiteSpace=wrap;html=1;rounded=1;labelBackgroundColor=none;fillColor=#182E3E;strokeColor=#FFFFFF;fontColor=#FFFFFF;" vertex="1" parent="1">
          <mxGeometry x="-600" y="162" width="120" height="60" as="geometry" />
        </mxCell>
        <mxCell id="HaC53n2leKFrh9vC4OSI-97" value="&lt;u&gt;TrackID&lt;/u&gt;" style="ellipse;whiteSpace=wrap;html=1;labelBackgroundColor=none;fillColor=#182E3E;strokeColor=#FFFFFF;fontColor=#FFFFFF;" vertex="1" parent="1">
          <mxGeometry x="-789" y="153" width="104" height="57" as="geometry" />
        </mxCell>
        <mxCell id="HaC53n2leKFrh9vC4OSI-98" value="&lt;div&gt;TrackName&lt;/div&gt;" style="ellipse;whiteSpace=wrap;html=1;labelBackgroundColor=none;fillColor=#182E3E;strokeColor=#FFFFFF;fontColor=#FFFFFF;" vertex="1" parent="1">
          <mxGeometry x="-786" y="224" width="101" height="50" as="geometry" />
        </mxCell>
        <mxCell id="HaC53n2leKFrh9vC4OSI-99" value="" style="endArrow=none;html=1;rounded=0;strokeColor=#23445D;entryX=0;entryY=0.333;entryDx=0;entryDy=0;labelBackgroundColor=none;fontColor=default;exitX=1;exitY=0.5;exitDx=0;exitDy=0;entryPerimeter=0;" edge="1" parent="1" source="HaC53n2leKFrh9vC4OSI-97" target="HaC53n2leKFrh9vC4OSI-96">
          <mxGeometry relative="1" as="geometry">
            <mxPoint x="-650" y="293" as="sourcePoint" />
            <mxPoint x="-488" y="232" as="targetPoint" />
          </mxGeometry>
        </mxCell>
        <mxCell id="HaC53n2leKFrh9vC4OSI-100" value="" style="endArrow=none;html=1;rounded=0;strokeColor=#23445D;entryX=0;entryY=0.75;entryDx=0;entryDy=0;labelBackgroundColor=none;fontColor=default;exitX=1;exitY=0.5;exitDx=0;exitDy=0;" edge="1" parent="1" source="HaC53n2leKFrh9vC4OSI-98" target="HaC53n2leKFrh9vC4OSI-96">
          <mxGeometry relative="1" as="geometry">
            <mxPoint x="-560" y="296" as="sourcePoint" />
            <mxPoint x="-488" y="225" as="targetPoint" />
          </mxGeometry>
        </mxCell>
        <mxCell id="HaC53n2leKFrh9vC4OSI-101" value="NoStudent" style="ellipse;whiteSpace=wrap;html=1;labelBackgroundColor=none;fillColor=#182E3E;strokeColor=#FFFFFF;fontColor=#FFFFFF;" vertex="1" parent="1">
          <mxGeometry x="-784" y="283" width="99" height="42" as="geometry" />
        </mxCell>
        <mxCell id="HaC53n2leKFrh9vC4OSI-103" value="" style="endArrow=none;html=1;rounded=0;strokeColor=#23445D;labelBackgroundColor=none;fontColor=default;exitX=0.98;exitY=0.5;exitDx=0;exitDy=0;entryX=0.177;entryY=0.961;entryDx=0;entryDy=0;entryPerimeter=0;exitPerimeter=0;" edge="1" parent="1" source="HaC53n2leKFrh9vC4OSI-101" target="HaC53n2leKFrh9vC4OSI-96">
          <mxGeometry relative="1" as="geometry">
            <mxPoint x="-462" y="323" as="sourcePoint" />
            <mxPoint x="-589" y="231" as="targetPoint" />
          </mxGeometry>
        </mxCell>
        <mxCell id="HaC53n2leKFrh9vC4OSI-104" value="Has" style="shape=rhombus;perimeter=rhombusPerimeter;whiteSpace=wrap;html=1;align=center;strokeColor=#FFFFFF;fontColor=#FFFFFF;fillColor=#182E3E;labelBackgroundColor=none;" vertex="1" parent="1">
          <mxGeometry x="-567" y="336" width="120" height="89" as="geometry" />
        </mxCell>
        <mxCell id="HaC53n2leKFrh9vC4OSI-105" value="" style="endArrow=none;html=1;rounded=0;strokeColor=#23445D;entryX=0.5;entryY=1;entryDx=0;entryDy=0;labelBackgroundColor=none;fontColor=default;exitX=0.338;exitY=0.063;exitDx=0;exitDy=0;exitPerimeter=0;" edge="1" parent="1" source="HaC53n2leKFrh9vC4OSI-91" target="HaC53n2leKFrh9vC4OSI-104">
          <mxGeometry relative="1" as="geometry">
            <mxPoint x="-500" y="602" as="sourcePoint" />
            <mxPoint x="-269" y="551" as="targetPoint" />
          </mxGeometry>
        </mxCell>
        <mxCell id="HaC53n2leKFrh9vC4OSI-106" value="" style="endArrow=none;html=1;rounded=0;strokeColor=#23445D;labelBackgroundColor=none;fontColor=default;exitX=0.5;exitY=0;exitDx=0;exitDy=0;shape=link;entryX=0.75;entryY=1;entryDx=0;entryDy=0;" edge="1" parent="1" source="HaC53n2leKFrh9vC4OSI-104" target="HaC53n2leKFrh9vC4OSI-96">
          <mxGeometry relative="1" as="geometry">
            <mxPoint x="-356" y="369.5" as="sourcePoint" />
            <mxPoint x="-280" y="215" as="targetPoint" />
          </mxGeometry>
        </mxCell>
        <mxCell id="HaC53n2leKFrh9vC4OSI-108" value="Work" style="shape=rhombus;perimeter=rhombusPerimeter;whiteSpace=wrap;html=1;align=center;strokeColor=#FFFFFF;fontColor=#FFFFFF;fillColor=#182E3E;labelBackgroundColor=none;" vertex="1" parent="1">
          <mxGeometry x="-171" y="667.75" width="98" height="59" as="geometry" />
        </mxCell>
        <mxCell id="HaC53n2leKFrh9vC4OSI-109" value="" style="endArrow=none;html=1;rounded=0;strokeColor=#23445D;entryX=0;entryY=0.5;entryDx=0;entryDy=0;labelBackgroundColor=none;fontColor=default;exitX=1;exitY=0.5;exitDx=0;exitDy=0;shape=link;" edge="1" parent="1" source="HaC53n2leKFrh9vC4OSI-91" target="HaC53n2leKFrh9vC4OSI-108">
          <mxGeometry relative="1" as="geometry">
            <mxPoint x="-332" y="719" as="sourcePoint" />
            <mxPoint x="-246" y="580" as="targetPoint" />
          </mxGeometry>
        </mxCell>
        <mxCell id="HaC53n2leKFrh9vC4OSI-110" value="" style="endArrow=none;html=1;rounded=0;strokeColor=#23445D;labelBackgroundColor=none;fontColor=default;exitX=1;exitY=0.5;exitDx=0;exitDy=0;shape=link;entryX=0;entryY=0.5;entryDx=0;entryDy=0;" edge="1" parent="1" source="HaC53n2leKFrh9vC4OSI-108" target="8ekyDWt_shnJRA3cAdzC-3">
          <mxGeometry relative="1" as="geometry">
            <mxPoint x="36" y="811" as="sourcePoint" />
            <mxPoint x="344" y="691" as="targetPoint" />
          </mxGeometry>
        </mxCell>
        <mxCell id="HaC53n2leKFrh9vC4OSI-111" value="Mange" style="shape=rhombus;perimeter=rhombusPerimeter;whiteSpace=wrap;html=1;align=center;strokeColor=#FFFFFF;fontColor=#FFFFFF;fillColor=#182E3E;labelBackgroundColor=none;" vertex="1" parent="1">
          <mxGeometry x="-162" y="793" width="91" height="55" as="geometry" />
        </mxCell>
        <mxCell id="HaC53n2leKFrh9vC4OSI-112" value="" style="endArrow=none;html=1;rounded=0;strokeColor=#23445D;entryX=0;entryY=0.5;entryDx=0;entryDy=0;labelBackgroundColor=none;fontColor=default;exitX=1;exitY=0.75;exitDx=0;exitDy=0;shape=link;edgeStyle=orthogonalEdgeStyle;" edge="1" parent="1" source="HaC53n2leKFrh9vC4OSI-91" target="HaC53n2leKFrh9vC4OSI-111">
          <mxGeometry relative="1" as="geometry">
            <mxPoint x="-220" y="754" as="sourcePoint" />
            <mxPoint x="-18" y="752" as="targetPoint" />
          </mxGeometry>
        </mxCell>
        <mxCell id="HaC53n2leKFrh9vC4OSI-113" value="" style="endArrow=none;html=1;rounded=0;strokeColor=#23445D;entryX=0;entryY=0.75;entryDx=0;entryDy=0;labelBackgroundColor=none;fontColor=default;exitX=1;exitY=0.5;exitDx=0;exitDy=0;edgeStyle=orthogonalEdgeStyle;" edge="1" parent="1" source="HaC53n2leKFrh9vC4OSI-111" target="8ekyDWt_shnJRA3cAdzC-3">
          <mxGeometry relative="1" as="geometry">
            <mxPoint x="-11" y="756" as="sourcePoint" />
            <mxPoint x="191" y="754" as="targetPoint" />
            <Array as="points">
              <mxPoint x="103" y="821" />
              <mxPoint x="103" y="703" />
            </Array>
          </mxGeometry>
        </mxCell>
        <mxCell id="HaC53n2leKFrh9vC4OSI-115" value="StartDate" style="ellipse;whiteSpace=wrap;html=1;direction=west;labelBackgroundColor=none;fillColor=#182E3E;strokeColor=#FFFFFF;fontColor=#FFFFFF;" vertex="1" parent="1">
          <mxGeometry x="-792.5" y="-236" width="116" height="60" as="geometry" />
        </mxCell>
        <mxCell id="HaC53n2leKFrh9vC4OSI-116" value="" style="endArrow=none;html=1;rounded=0;strokeColor=#23445D;labelBackgroundColor=none;fontColor=default;entryX=0;entryY=0;entryDx=0;entryDy=0;exitX=0.25;exitY=0;exitDx=0;exitDy=0;" edge="1" parent="1" source="HaC53n2leKFrh9vC4OSI-16" target="HaC53n2leKFrh9vC4OSI-115">
          <mxGeometry relative="1" as="geometry">
            <mxPoint x="-555" y="-111" as="sourcePoint" />
            <mxPoint x="-509" y="-201" as="targetPoint" />
          </mxGeometry>
        </mxCell>
        <mxCell id="HaC53n2leKFrh9vC4OSI-117" value="EndDate" style="ellipse;whiteSpace=wrap;html=1;direction=west;labelBackgroundColor=none;fillColor=#182E3E;strokeColor=#FFFFFF;fontColor=#FFFFFF;" vertex="1" parent="1">
          <mxGeometry x="-682" y="-270" width="109" height="49" as="geometry" />
        </mxCell>
        <mxCell id="HaC53n2leKFrh9vC4OSI-118" value="" style="endArrow=none;html=1;rounded=0;strokeColor=#23445D;labelBackgroundColor=none;fontColor=default;entryX=0.356;entryY=0.08;entryDx=0;entryDy=0;entryPerimeter=0;exitX=0.5;exitY=0;exitDx=0;exitDy=0;" edge="1" parent="1" source="HaC53n2leKFrh9vC4OSI-16" target="HaC53n2leKFrh9vC4OSI-117">
          <mxGeometry relative="1" as="geometry">
            <mxPoint x="-550" y="-70" as="sourcePoint" />
            <mxPoint x="-566" y="-148" as="targetPoint" />
          </mxGeometry>
        </mxCell>
        <mxCell id="HaC53n2leKFrh9vC4OSI-122" value="" style="endArrow=none;html=1;rounded=0;strokeColor=#23445D;entryX=0.1;entryY=1;entryDx=0;entryDy=0;exitX=1;exitY=0.5;exitDx=0;exitDy=0;labelBackgroundColor=none;fontColor=default;shape=link;edgeStyle=orthogonalEdgeStyle;entryPerimeter=0;" edge="1" parent="1" source="g1A_wRj14APMgHSd0Crw-140" target="8ekyDWt_shnJRA3cAdzC-1">
          <mxGeometry relative="1" as="geometry">
            <mxPoint x="548" y="128" as="sourcePoint" />
            <mxPoint x="142" y="233" as="targetPoint" />
          </mxGeometry>
        </mxCell>
        <mxCell id="HaC53n2leKFrh9vC4OSI-124" value="M" style="resizable=0;html=1;whiteSpace=wrap;align=left;verticalAlign=bottom;strokeColor=#FFFFFF;fontColor=#FFFFFF;fillColor=#182E3E;labelBackgroundColor=none;" connectable="0" vertex="1" parent="1">
          <mxGeometry x="-261" y="-169" as="geometry">
            <mxPoint x="125" y="74" as="offset" />
          </mxGeometry>
        </mxCell>
        <mxCell id="HaC53n2leKFrh9vC4OSI-125" value="M" style="resizable=0;html=1;whiteSpace=wrap;align=left;verticalAlign=bottom;strokeColor=#FFFFFF;fontColor=#FFFFFF;fillColor=#182E3E;labelBackgroundColor=none;" connectable="0" vertex="1" parent="1">
          <mxGeometry x="-23" y="-50" as="geometry">
            <mxPoint y="-40" as="offset" />
          </mxGeometry>
        </mxCell>
        <mxCell id="HaC53n2leKFrh9vC4OSI-130" value="" style="endArrow=none;html=1;rounded=0;strokeColor=#23445D;labelBackgroundColor=none;fontColor=default;entryX=1;entryY=0.25;entryDx=0;entryDy=0;exitX=0;exitY=0.5;exitDx=0;exitDy=0;edgeStyle=orthogonalEdgeStyle;" edge="1" parent="1" source="g1A_wRj14APMgHSd0Crw-140" target="HaC53n2leKFrh9vC4OSI-96">
          <mxGeometry relative="1" as="geometry">
            <mxPoint x="-309" y="103" as="sourcePoint" />
            <mxPoint x="-450" y="182" as="targetPoint" />
          </mxGeometry>
        </mxCell>
        <mxCell id="HaC53n2leKFrh9vC4OSI-131" value="M" style="resizable=0;html=1;whiteSpace=wrap;align=left;verticalAlign=bottom;strokeColor=#FFFFFF;fontColor=#FFFFFF;fillColor=#182E3E;labelBackgroundColor=none;" connectable="0" vertex="1" parent="1">
          <mxGeometry x="-38" y="78" as="geometry">
            <mxPoint x="1" y="22" as="offset" />
          </mxGeometry>
        </mxCell>
        <mxCell id="HaC53n2leKFrh9vC4OSI-132" value="1" style="resizable=0;html=1;whiteSpace=wrap;align=left;verticalAlign=bottom;strokeColor=#FFFFFF;fontColor=#FFFFFF;fillColor=#182E3E;labelBackgroundColor=none;" connectable="0" vertex="1" parent="1">
          <mxGeometry x="337" y="299.5" as="geometry">
            <mxPoint x="-491" y="-185" as="offset" />
          </mxGeometry>
        </mxCell>
        <mxCell id="HaC53n2leKFrh9vC4OSI-133" value="1" style="resizable=0;html=1;whiteSpace=wrap;align=left;verticalAlign=bottom;strokeColor=#FFFFFF;fontColor=#FFFFFF;fillColor=#182E3E;labelBackgroundColor=none;" connectable="0" vertex="1" parent="1">
          <mxGeometry x="66" y="225" as="geometry">
            <mxPoint x="-598" y="237" as="offset" />
          </mxGeometry>
        </mxCell>
        <mxCell id="HaC53n2leKFrh9vC4OSI-134" value="M" style="resizable=0;html=1;whiteSpace=wrap;align=left;verticalAlign=bottom;strokeColor=#FFFFFF;fontColor=#FFFFFF;fillColor=#182E3E;labelBackgroundColor=none;" connectable="0" vertex="1" parent="1">
          <mxGeometry x="-495" y="325" as="geometry" />
        </mxCell>
        <mxCell id="HaC53n2leKFrh9vC4OSI-135" value="M" style="resizable=0;html=1;whiteSpace=wrap;align=left;verticalAlign=bottom;strokeColor=#FFFFFF;fontColor=#FFFFFF;fillColor=#182E3E;labelBackgroundColor=none;" connectable="0" vertex="1" parent="1">
          <mxGeometry x="-43" y="675" as="geometry" />
        </mxCell>
        <mxCell id="HaC53n2leKFrh9vC4OSI-136" value="M" style="resizable=0;html=1;whiteSpace=wrap;align=left;verticalAlign=bottom;strokeColor=#FFFFFF;fontColor=#FFFFFF;fillColor=#182E3E;labelBackgroundColor=none;" connectable="0" vertex="1" parent="1">
          <mxGeometry x="-194" y="678" as="geometry" />
        </mxCell>
        <mxCell id="HaC53n2leKFrh9vC4OSI-137" value="1" style="resizable=0;html=1;whiteSpace=wrap;align=left;verticalAlign=bottom;strokeColor=#FFFFFF;fontColor=#FFFFFF;fillColor=#182E3E;labelBackgroundColor=none;" connectable="0" vertex="1" parent="1">
          <mxGeometry x="420" y="568" as="geometry">
            <mxPoint x="-598" y="237" as="offset" />
          </mxGeometry>
        </mxCell>
        <mxCell id="HaC53n2leKFrh9vC4OSI-138" value="1" style="resizable=0;html=1;whiteSpace=wrap;align=left;verticalAlign=bottom;strokeColor=#FFFFFF;fontColor=#FFFFFF;fillColor=#182E3E;labelBackgroundColor=none;" connectable="0" vertex="1" parent="1">
          <mxGeometry x="519" y="562" as="geometry">
            <mxPoint x="-598" y="237" as="offset" />
          </mxGeometry>
        </mxCell>
        <mxCell id="HaC53n2leKFrh9vC4OSI-139" value="" style="endArrow=none;html=1;rounded=0;strokeColor=#23445D;exitX=1;exitY=0.5;exitDx=0;exitDy=0;entryX=0;entryY=0.5;entryDx=0;entryDy=0;labelBackgroundColor=none;fontColor=default;" edge="1" parent="1" source="8ekyDWt_shnJRA3cAdzC-3" target="g1A_wRj14APMgHSd0Crw-22">
          <mxGeometry relative="1" as="geometry">
            <mxPoint x="583" y="693" as="sourcePoint" />
            <mxPoint x="822" y="657" as="targetPoint" />
          </mxGeometry>
        </mxCell>
        <mxCell id="HaC53n2leKFrh9vC4OSI-140" value="M" style="resizable=0;html=1;whiteSpace=wrap;align=left;verticalAlign=bottom;strokeColor=#FFFFFF;fontColor=#FFFFFF;fillColor=#182E3E;labelBackgroundColor=none;" connectable="0" vertex="1" parent="1">
          <mxGeometry x="719" y="620" as="geometry">
            <mxPoint x="96" y="59" as="offset" />
          </mxGeometry>
        </mxCell>
        <mxCell id="HaC53n2leKFrh9vC4OSI-141" value="M" style="resizable=0;html=1;whiteSpace=wrap;align=left;verticalAlign=bottom;strokeColor=#FFFFFF;fontColor=#FFFFFF;fillColor=#182E3E;labelBackgroundColor=none;" connectable="0" vertex="1" parent="1">
          <mxGeometry x="673" y="143" as="geometry">
            <mxPoint x="-3" y="77" as="offset" />
          </mxGeometry>
        </mxCell>
        <mxCell id="HaC53n2leKFrh9vC4OSI-142" value="M" style="resizable=0;html=1;whiteSpace=wrap;align=left;verticalAlign=bottom;strokeColor=#FFFFFF;fontColor=#FFFFFF;fillColor=#182E3E;labelBackgroundColor=none;" connectable="0" vertex="1" parent="1">
          <mxGeometry x="658" y="43" as="geometry">
            <mxPoint x="-3" y="77" as="offset" />
          </mxGeometry>
        </mxCell>
        <mxCell id="HaC53n2leKFrh9vC4OSI-146" value="M" style="resizable=0;html=1;whiteSpace=wrap;align=right;verticalAlign=bottom;strokeColor=#FFFFFF;fontColor=#FFFFFF;fillColor=#182E3E;labelBackgroundColor=none;" connectable="0" vertex="1" parent="1">
          <mxGeometry x="1116" y="951" as="geometry">
            <mxPoint x="39" y="15" as="offset" />
          </mxGeometry>
        </mxCell>
        <mxCell id="HaC53n2leKFrh9vC4OSI-147" value="M" style="resizable=0;html=1;whiteSpace=wrap;align=right;verticalAlign=bottom;strokeColor=#FFFFFF;fontColor=#FFFFFF;fillColor=#182E3E;labelBackgroundColor=none;" connectable="0" vertex="1" parent="1">
          <mxGeometry x="1134" y="235" as="geometry">
            <mxPoint x="24" y="26" as="offset" />
          </mxGeometry>
        </mxCell>
        <mxCell id="HaC53n2leKFrh9vC4OSI-149" value="" style="endArrow=none;html=1;rounded=0;strokeColor=#23445D;labelBackgroundColor=none;fontColor=default;entryX=1;entryY=0.75;entryDx=0;entryDy=0;exitX=0.5;exitY=0;exitDx=0;exitDy=0;edgeStyle=orthogonalEdgeStyle;" edge="1" parent="1" source="g1A_wRj14APMgHSd0Crw-40" target="8ekyDWt_shnJRA3cAdzC-1">
          <mxGeometry relative="1" as="geometry">
            <mxPoint x="1178" y="20" as="sourcePoint" />
            <mxPoint x="1275" y="32" as="targetPoint" />
          </mxGeometry>
        </mxCell>
        <mxCell id="HaC53n2leKFrh9vC4OSI-150" value="M" style="resizable=0;html=1;whiteSpace=wrap;align=right;verticalAlign=bottom;strokeColor=#FFFFFF;fontColor=#FFFFFF;fillColor=#182E3E;labelBackgroundColor=none;" connectable="0" vertex="1" parent="1">
          <mxGeometry x="2217" y="371" as="geometry" />
        </mxCell>
        <mxCell id="HaC53n2leKFrh9vC4OSI-151" value="1" style="resizable=0;html=1;whiteSpace=wrap;align=left;verticalAlign=bottom;strokeColor=#FFFFFF;fontColor=#FFFFFF;fillColor=#182E3E;labelBackgroundColor=none;" connectable="0" vertex="1" parent="1">
          <mxGeometry x="1594" y="200" as="geometry">
            <mxPoint x="548" y="1" as="offset" />
          </mxGeometry>
        </mxCell>
        <mxCell id="HaC53n2leKFrh9vC4OSI-152" value="M" style="resizable=0;html=1;whiteSpace=wrap;align=right;verticalAlign=bottom;strokeColor=#FFFFFF;fontColor=#FFFFFF;fillColor=#182E3E;labelBackgroundColor=none;" connectable="0" vertex="1" parent="1">
          <mxGeometry x="1990" y="235" as="geometry">
            <mxPoint x="161" y="-115" as="offset" />
          </mxGeometry>
        </mxCell>
        <mxCell id="HaC53n2leKFrh9vC4OSI-153" value="" style="endArrow=none;html=1;rounded=0;strokeColor=#23445D;exitX=1;exitY=0.5;exitDx=0;exitDy=0;labelBackgroundColor=none;fontColor=default;entryX=0.377;entryY=0.097;entryDx=0;entryDy=0;entryPerimeter=0;edgeStyle=orthogonalEdgeStyle;" edge="1" parent="1" source="8ekyDWt_shnJRA3cAdzC-1" target="g1A_wRj14APMgHSd0Crw-114">
          <mxGeometry relative="1" as="geometry">
            <mxPoint x="1364" y="-28" as="sourcePoint" />
            <mxPoint x="1594" y="-25" as="targetPoint" />
          </mxGeometry>
        </mxCell>
        <mxCell id="HaC53n2leKFrh9vC4OSI-156" style="edgeStyle=none;rounded=0;orthogonalLoop=1;jettySize=auto;html=1;exitX=1;exitY=1;exitDx=0;exitDy=0;strokeColor=#23445D;fontColor=default;labelBackgroundColor=none;" edge="1" parent="1" source="HaC53n2leKFrh9vC4OSI-70" target="HaC53n2leKFrh9vC4OSI-70">
          <mxGeometry relative="1" as="geometry" />
        </mxCell>
        <mxCell id="HaC53n2leKFrh9vC4OSI-157" value="SocialLink" style="ellipse;whiteSpace=wrap;html=1;labelBackgroundColor=none;fillColor=#182E3E;strokeColor=#FFFFFF;fontColor=#FFFFFF;" vertex="1" parent="1">
          <mxGeometry x="420" y="-179" width="82" height="41" as="geometry" />
        </mxCell>
        <mxCell id="fFtmSrVKMIWG5wqF4oWe-1" value="" style="endArrow=none;html=1;rounded=0;strokeColor=#23445D;exitX=1;exitY=0.5;exitDx=0;exitDy=0;labelBackgroundColor=none;fontColor=default;" edge="1" parent="1">
          <mxGeometry relative="1" as="geometry">
            <mxPoint x="1210" y="315" as="sourcePoint" />
            <mxPoint x="1271" y="315" as="targetPoint" />
          </mxGeometry>
        </mxCell>
        <mxCell id="fFtmSrVKMIWG5wqF4oWe-14" value="" style="endArrow=none;html=1;rounded=0;strokeColor=#23445D;labelBackgroundColor=none;fontColor=default;exitX=0;exitY=0.5;exitDx=0;exitDy=0;entryX=0.25;entryY=1;entryDx=0;entryDy=0;" edge="1" parent="1" source="g1A_wRj14APMgHSd0Crw-147" target="g1A_wRj14APMgHSd0Crw-142">
          <mxGeometry relative="1" as="geometry">
            <mxPoint x="29" y="327.5" as="sourcePoint" />
            <mxPoint x="137" y="243.5" as="targetPoint" />
          </mxGeometry>
        </mxCell>
        <mxCell id="fFtmSrVKMIWG5wqF4oWe-15" value="" style="endArrow=none;html=1;rounded=0;strokeColor=#23445D;labelBackgroundColor=none;fontColor=default;exitX=0;exitY=0.5;exitDx=0;exitDy=0;entryX=0;entryY=0.25;entryDx=0;entryDy=0;" edge="1" parent="1" source="g1A_wRj14APMgHSd0Crw-144" target="g1A_wRj14APMgHSd0Crw-142">
          <mxGeometry relative="1" as="geometry">
            <mxPoint x="32" y="352" as="sourcePoint" />
            <mxPoint x="140" y="268" as="targetPoint" />
          </mxGeometry>
        </mxCell>
        <mxCell id="fFtmSrVKMIWG5wqF4oWe-16" value="" style="endArrow=none;html=1;rounded=0;strokeColor=#23445D;labelBackgroundColor=none;fontColor=default;exitX=0.98;exitY=0.5;exitDx=0;exitDy=0;entryX=0;entryY=0.75;entryDx=0;entryDy=0;exitPerimeter=0;" edge="1" parent="1" target="g1A_wRj14APMgHSd0Crw-142">
          <mxGeometry relative="1" as="geometry">
            <mxPoint x="-60" y="290" as="sourcePoint" />
            <mxPoint x="48" y="206" as="targetPoint" />
          </mxGeometry>
        </mxCell>
        <mxCell id="fFtmSrVKMIWG5wqF4oWe-26" value="" style="endArrow=none;html=1;rounded=0;strokeColor=#23445D;labelBackgroundColor=none;fontColor=default;entryX=0;entryY=0.25;entryDx=0;entryDy=0;exitX=0;exitY=0.5;exitDx=0;exitDy=0;" edge="1" parent="1" source="HaC53n2leKFrh9vC4OSI-20" target="HaC53n2leKFrh9vC4OSI-16">
          <mxGeometry relative="1" as="geometry">
            <mxPoint x="-661" y="-119" as="sourcePoint" />
            <mxPoint x="-661" y="-53" as="targetPoint" />
          </mxGeometry>
        </mxCell>
        <mxCell id="fFtmSrVKMIWG5wqF4oWe-27" value="" style="endArrow=none;html=1;rounded=0;strokeColor=#23445D;labelBackgroundColor=none;fontColor=default;entryX=0;entryY=0.5;entryDx=0;entryDy=0;exitX=0;exitY=0.5;exitDx=0;exitDy=0;" edge="1" parent="1" source="HaC53n2leKFrh9vC4OSI-16" target="HaC53n2leKFrh9vC4OSI-18">
          <mxGeometry relative="1" as="geometry">
            <mxPoint x="-626" y="-83" as="sourcePoint" />
            <mxPoint x="-626" y="-17" as="targetPoint" />
          </mxGeometry>
        </mxCell>
        <mxCell id="fFtmSrVKMIWG5wqF4oWe-29" value="" style="endArrow=none;html=1;rounded=0;strokeColor=#23445D;fontColor=default;exitX=0;exitY=0;exitDx=0;exitDy=0;entryX=0.25;entryY=0;entryDx=0;entryDy=0;labelBackgroundColor=none;" edge="1" parent="1" source="8ekyDWt_shnJRA3cAdzC-10" target="8ekyDWt_shnJRA3cAdzC-1">
          <mxGeometry relative="1" as="geometry">
            <mxPoint x="237" y="-224" as="sourcePoint" />
            <mxPoint x="420.86832083045283" y="-151.00111944636484" as="targetPoint" />
          </mxGeometry>
        </mxCell>
        <mxCell id="fFtmSrVKMIWG5wqF4oWe-30" value="" style="endArrow=none;html=1;rounded=0;strokeColor=#23445D;fontColor=default;exitX=1;exitY=1;exitDx=0;exitDy=0;entryX=0.25;entryY=0;entryDx=0;entryDy=0;labelBackgroundColor=none;" edge="1" parent="1" source="8ekyDWt_shnJRA3cAdzC-8" target="8ekyDWt_shnJRA3cAdzC-1">
          <mxGeometry relative="1" as="geometry">
            <mxPoint x="283" y="-218" as="sourcePoint" />
            <mxPoint x="466.86832083045283" y="-145.00111944636484" as="targetPoint" />
          </mxGeometry>
        </mxCell>
        <mxCell id="fFtmSrVKMIWG5wqF4oWe-31" value="" style="endArrow=none;html=1;rounded=0;strokeColor=#23445D;fontColor=default;exitX=0.5;exitY=1;exitDx=0;exitDy=0;entryX=0.25;entryY=0;entryDx=0;entryDy=0;labelBackgroundColor=none;" edge="1" parent="1" source="HaC53n2leKFrh9vC4OSI-4" target="8ekyDWt_shnJRA3cAdzC-1">
          <mxGeometry relative="1" as="geometry">
            <mxPoint x="366" y="-204" as="sourcePoint" />
            <mxPoint x="549.8683208304528" y="-131.00111944636484" as="targetPoint" />
          </mxGeometry>
        </mxCell>
        <mxCell id="fFtmSrVKMIWG5wqF4oWe-32" value="" style="endArrow=none;html=1;rounded=0;strokeColor=#23445D;fontColor=default;exitX=0.5;exitY=1;exitDx=0;exitDy=0;entryX=0.5;entryY=0;entryDx=0;entryDy=0;labelBackgroundColor=none;" edge="1" parent="1" source="HaC53n2leKFrh9vC4OSI-35" target="8ekyDWt_shnJRA3cAdzC-1">
          <mxGeometry relative="1" as="geometry">
            <mxPoint x="430" y="-211" as="sourcePoint" />
            <mxPoint x="613.8683208304528" y="-138.00111944636484" as="targetPoint" />
          </mxGeometry>
        </mxCell>
        <mxCell id="fFtmSrVKMIWG5wqF4oWe-34" value="" style="endArrow=none;html=1;rounded=0;strokeColor=#23445D;fontColor=default;exitX=0.251;exitY=0.899;exitDx=0;exitDy=0;exitPerimeter=0;entryX=0.583;entryY=0;entryDx=0;entryDy=0;entryPerimeter=0;labelBackgroundColor=none;" edge="1" parent="1" source="HaC53n2leKFrh9vC4OSI-29" target="8ekyDWt_shnJRA3cAdzC-1">
          <mxGeometry relative="1" as="geometry">
            <mxPoint x="514" y="-168" as="sourcePoint" />
            <mxPoint x="416" y="-55" as="targetPoint" />
          </mxGeometry>
        </mxCell>
        <mxCell id="fFtmSrVKMIWG5wqF4oWe-35" value="" style="endArrow=none;html=1;rounded=0;strokeColor=#23445D;fontColor=default;entryX=0;entryY=1;entryDx=0;entryDy=0;exitX=0.816;exitY=0.048;exitDx=0;exitDy=0;exitPerimeter=0;labelBackgroundColor=none;" edge="1" parent="1" source="8ekyDWt_shnJRA3cAdzC-1" target="8ekyDWt_shnJRA3cAdzC-29">
          <mxGeometry relative="1" as="geometry">
            <mxPoint x="443" y="-58" as="sourcePoint" />
            <mxPoint x="706.8683208304528" y="-56.001119446364854" as="targetPoint" />
          </mxGeometry>
        </mxCell>
        <mxCell id="fFtmSrVKMIWG5wqF4oWe-36" value="" style="endArrow=none;html=1;rounded=0;strokeColor=#23445D;fontColor=default;exitX=0.367;exitY=0.965;exitDx=0;exitDy=0;entryX=0.949;entryY=0.062;entryDx=0;entryDy=0;entryPerimeter=0;exitPerimeter=0;labelBackgroundColor=none;" edge="1" parent="1" source="HaC53n2leKFrh9vC4OSI-157" target="8ekyDWt_shnJRA3cAdzC-1">
          <mxGeometry relative="1" as="geometry">
            <mxPoint x="660" y="-101" as="sourcePoint" />
            <mxPoint x="843.8683208304528" y="-28.001119446364854" as="targetPoint" />
          </mxGeometry>
        </mxCell>
        <mxCell id="fFtmSrVKMIWG5wqF4oWe-37" value="" style="endArrow=none;html=1;rounded=0;strokeColor=#23445D;fontColor=default;exitX=0.25;exitY=0.974;exitDx=0;exitDy=0;entryX=0.598;entryY=0;entryDx=0;entryDy=0;entryPerimeter=0;exitPerimeter=0;labelBackgroundColor=none;" edge="1" parent="1" source="OK77SnZ9Unn4l89tnIFr-13" target="8ekyDWt_shnJRA3cAdzC-29">
          <mxGeometry relative="1" as="geometry">
            <mxPoint x="708" y="-197" as="sourcePoint" />
            <mxPoint x="891.8683208304528" y="-124.00111944636485" as="targetPoint" />
          </mxGeometry>
        </mxCell>
        <mxCell id="fFtmSrVKMIWG5wqF4oWe-38" value="" style="endArrow=none;html=1;rounded=0;strokeColor=#23445D;fontColor=default;exitX=1;exitY=0;exitDx=0;exitDy=0;entryX=0;entryY=1;entryDx=0;entryDy=0;labelBackgroundColor=none;" edge="1" parent="1" source="8ekyDWt_shnJRA3cAdzC-29" target="OK77SnZ9Unn4l89tnIFr-15">
          <mxGeometry relative="1" as="geometry">
            <mxPoint x="685" y="-180" as="sourcePoint" />
            <mxPoint x="868.8683208304528" y="-107.00111944636485" as="targetPoint" />
          </mxGeometry>
        </mxCell>
        <mxCell id="fFtmSrVKMIWG5wqF4oWe-40" value="" style="endArrow=none;html=1;rounded=0;strokeColor=#23445D;labelBackgroundColor=none;fontColor=default;entryX=1;entryY=0.5;entryDx=0;entryDy=0;edgeStyle=orthogonalEdgeStyle;" edge="1" parent="1" target="HaC53n2leKFrh9vC4OSI-26">
          <mxGeometry relative="1" as="geometry">
            <mxPoint x="128" y="213" as="sourcePoint" />
            <mxPoint x="53" y="-89" as="targetPoint" />
            <Array as="points">
              <mxPoint x="123" y="213" />
              <mxPoint x="123" y="-83" />
            </Array>
          </mxGeometry>
        </mxCell>
        <mxCell id="fFtmSrVKMIWG5wqF4oWe-43" value="" style="endArrow=none;html=1;rounded=0;strokeColor=#23445D;labelBackgroundColor=none;fontColor=default;entryX=0;entryY=0.5;entryDx=0;entryDy=0;" edge="1" parent="1" target="HaC53n2leKFrh9vC4OSI-72">
          <mxGeometry relative="1" as="geometry">
            <mxPoint x="518" y="187" as="sourcePoint" />
            <mxPoint x="608" y="173" as="targetPoint" />
          </mxGeometry>
        </mxCell>
        <mxCell id="HaC53n2leKFrh9vC4OSI-72" value="Date&lt;div&gt;&lt;br&gt;&lt;/div&gt;" style="ellipse;whiteSpace=wrap;html=1;labelBackgroundColor=none;fillColor=#182E3E;strokeColor=#FFFFFF;fontColor=#FFFFFF;" vertex="1" parent="1">
          <mxGeometry x="466" y="171" width="86" height="39" as="geometry" />
        </mxCell>
        <mxCell id="fFtmSrVKMIWG5wqF4oWe-45" value="" style="endArrow=none;html=1;rounded=0;strokeColor=#23445D;labelBackgroundColor=none;fontColor=default;entryX=0.5;entryY=0;entryDx=0;entryDy=0;edgeStyle=orthogonalEdgeStyle;" edge="1" parent="1" target="HaC53n2leKFrh9vC4OSI-52">
          <mxGeometry relative="1" as="geometry">
            <mxPoint x="458" y="1" as="sourcePoint" />
            <mxPoint x="681" y="47" as="targetPoint" />
            <Array as="points">
              <mxPoint x="453" y="1" />
              <mxPoint x="453" y="58" />
              <mxPoint x="648" y="58" />
            </Array>
          </mxGeometry>
        </mxCell>
        <mxCell id="fFtmSrVKMIWG5wqF4oWe-46" value="1" style="resizable=0;html=1;whiteSpace=wrap;align=right;verticalAlign=bottom;strokeColor=#FFFFFF;fontColor=#FFFFFF;fillColor=#182E3E;labelBackgroundColor=none;" connectable="0" vertex="1" parent="1">
          <mxGeometry x="1677" y="691.5" as="geometry">
            <mxPoint x="19" y="10" as="offset" />
          </mxGeometry>
        </mxCell>
        <mxCell id="y4azfr48a_dlR3m5R-o9-1" value="" style="endArrow=none;html=1;rounded=0;strokeColor=#23445D;labelBackgroundColor=none;fontColor=default;entryX=1;entryY=0;entryDx=0;entryDy=0;exitX=0.5;exitY=1;exitDx=0;exitDy=0;edgeStyle=orthogonalEdgeStyle;" edge="1" parent="1" source="HaC53n2leKFrh9vC4OSI-26" target="HaC53n2leKFrh9vC4OSI-96">
          <mxGeometry relative="1" as="geometry">
            <mxPoint x="90" y="65" as="sourcePoint" />
            <mxPoint x="-265" y="122" as="targetPoint" />
          </mxGeometry>
        </mxCell>
        <mxCell id="y4azfr48a_dlR3m5R-o9-2" value="M" style="resizable=0;html=1;whiteSpace=wrap;align=left;verticalAlign=bottom;strokeColor=#FFFFFF;fontColor=#FFFFFF;fillColor=#182E3E;labelBackgroundColor=none;" connectable="0" vertex="1" parent="1">
          <mxGeometry x="-225" y="-98.25" as="geometry">
            <mxPoint x="125" y="74" as="offset" />
          </mxGeometry>
        </mxCell>
        <mxCell id="7ZeMuF5s_0gLgc-i0QWb-3" value="StudentAnswer" style="ellipse;whiteSpace=wrap;html=1;labelBackgroundColor=none;fillColor=#182E3E;strokeColor=#FFFFFF;fontColor=#FFFFFF;" vertex="1" parent="1">
          <mxGeometry x="1468" y="231" width="120" height="80" as="geometry" />
        </mxCell>
        <mxCell id="7ZeMuF5s_0gLgc-i0QWb-4" value="" style="endArrow=none;html=1;rounded=0;strokeColor=#23445D;exitX=0;exitY=0.5;exitDx=0;exitDy=0;entryX=0.5;entryY=0;entryDx=0;entryDy=0;" edge="1" parent="1" source="g1A_wRj14APMgHSd0Crw-114" target="7ZeMuF5s_0gLgc-i0QWb-3">
          <mxGeometry relative="1" as="geometry">
            <mxPoint x="1577" y="-313.5" as="sourcePoint" />
            <mxPoint x="1777" y="-236.5" as="targetPoint" />
          </mxGeometry>
        </mxCell>
        <mxCell id="7ZeMuF5s_0gLgc-i0QWb-5" value="" style="endArrow=none;html=1;rounded=0;strokeColor=#23445D;entryX=0.414;entryY=0.033;entryDx=0;entryDy=0;entryPerimeter=0;" edge="1" parent="1" target="7ZeMuF5s_0gLgc-i0QWb-10">
          <mxGeometry relative="1" as="geometry">
            <mxPoint x="1526" y="146" as="sourcePoint" />
            <mxPoint x="1704" y="-245.5" as="targetPoint" />
          </mxGeometry>
        </mxCell>
        <mxCell id="7ZeMuF5s_0gLgc-i0QWb-10" value="StudentScore" style="ellipse;whiteSpace=wrap;html=1;labelBackgroundColor=none;fillColor=#182E3E;strokeColor=#FFFFFF;fontColor=#FFFFFF;" vertex="1" parent="1">
          <mxGeometry x="1362" y="160" width="120" height="80" as="geometry" />
        </mxCell>
        <mxCell id="fSc7eDOPMMbUQG9ATcYm-2" value="M" style="resizable=0;html=1;whiteSpace=wrap;align=right;verticalAlign=bottom;strokeColor=#FFFFFF;fontColor=#FFFFFF;fillColor=#182E3E;labelBackgroundColor=none;" connectable="0" vertex="1" parent="1">
          <mxGeometry x="1504" y="91" as="geometry">
            <mxPoint x="37" y="5" as="offset" />
          </mxGeometry>
        </mxCell>
        <mxCell id="CYFKceGTir9B5MgGAfMY-2" value="SkillsTags" style="ellipse;shape=doubleEllipse;margin=3;whiteSpace=wrap;html=1;align=center;strokeColor=#FFFFFF;fontColor=#FFFFFF;fillColor=#182E3E;labelBackgroundColor=none;" vertex="1" parent="1">
          <mxGeometry x="509" y="-239" width="128" height="53" as="geometry" />
        </mxCell>
        <mxCell id="CYFKceGTir9B5MgGAfMY-3" value="" style="endArrow=none;html=1;rounded=0;strokeColor=#23445D;fontColor=default;exitX=0;exitY=0.5;exitDx=0;exitDy=0;entryX=1;entryY=0.25;entryDx=0;entryDy=0;labelBackgroundColor=none;" edge="1" parent="1" source="CYFKceGTir9B5MgGAfMY-2" target="8ekyDWt_shnJRA3cAdzC-1">
          <mxGeometry relative="1" as="geometry">
            <mxPoint x="641" y="-61" as="sourcePoint" />
            <mxPoint x="519" y="19" as="targetPoint" />
          </mxGeometry>
        </mxCell>
        <mxCell id="9AGQyDCaSNTabn05gq13-1" value="Freelance" style="rounded=1;whiteSpace=wrap;html=1;labelBackgroundColor=none;fillColor=#182E3E;strokeColor=#FFFFFF;fontColor=#FFFFFF;shadow=0;" vertex="1" parent="1">
          <mxGeometry x="724" y="-424.5" width="120" height="53" as="geometry" />
        </mxCell>
        <mxCell id="9AGQyDCaSNTabn05gq13-2" value="&lt;u&gt;JobID&lt;/u&gt;" style="ellipse;whiteSpace=wrap;html=1;labelBackgroundColor=none;fillColor=#182E3E;strokeColor=#FFFFFF;fontColor=#FFFFFF;" vertex="1" parent="1">
          <mxGeometry x="634" y="-509.5" width="90" height="43" as="geometry" />
        </mxCell>
        <mxCell id="9AGQyDCaSNTabn05gq13-3" value="JobDescription" style="ellipse;whiteSpace=wrap;html=1;labelBackgroundColor=none;fillColor=#182E3E;strokeColor=#FFFFFF;fontColor=#FFFFFF;" vertex="1" parent="1">
          <mxGeometry x="698" y="-553" width="108" height="41" as="geometry" />
        </mxCell>
        <mxCell id="9AGQyDCaSNTabn05gq13-5" value="Platform" style="ellipse;whiteSpace=wrap;html=1;labelBackgroundColor=none;fillColor=#182E3E;strokeColor=#FFFFFF;fontColor=#FFFFFF;" vertex="1" parent="1">
          <mxGeometry x="789" y="-515.5" width="108" height="41" as="geometry" />
        </mxCell>
        <mxCell id="9AGQyDCaSNTabn05gq13-7" value="JobRate" style="ellipse;whiteSpace=wrap;html=1;labelBackgroundColor=none;fillColor=#182E3E;strokeColor=#FFFFFF;fontColor=#FFFFFF;" vertex="1" parent="1">
          <mxGeometry x="892" y="-547.5" width="108" height="41" as="geometry" />
        </mxCell>
        <mxCell id="9AGQyDCaSNTabn05gq13-9" value="" style="endArrow=none;html=1;rounded=0;strokeColor=#23445D;fontColor=default;exitX=0.437;exitY=0.058;exitDx=0;exitDy=0;labelBackgroundColor=none;exitPerimeter=0;entryX=0.5;entryY=1;entryDx=0;entryDy=0;" edge="1" parent="1" source="9AGQyDCaSNTabn05gq13-1" target="9AGQyDCaSNTabn05gq13-2">
          <mxGeometry relative="1" as="geometry">
            <mxPoint x="725" y="-431.5" as="sourcePoint" />
            <mxPoint x="718" y="-457.5" as="targetPoint" />
          </mxGeometry>
        </mxCell>
        <mxCell id="9AGQyDCaSNTabn05gq13-10" value="" style="endArrow=none;html=1;rounded=0;strokeColor=#23445D;fontColor=default;exitX=0.361;exitY=-0.079;exitDx=0;exitDy=0;labelBackgroundColor=none;exitPerimeter=0;entryX=0.5;entryY=1;entryDx=0;entryDy=0;" edge="1" parent="1" source="9AGQyDCaSNTabn05gq13-1" target="9AGQyDCaSNTabn05gq13-3">
          <mxGeometry relative="1" as="geometry">
            <mxPoint x="935" y="-405.5" as="sourcePoint" />
            <mxPoint x="838" y="-450.5" as="targetPoint" />
          </mxGeometry>
        </mxCell>
        <mxCell id="9AGQyDCaSNTabn05gq13-11" value="" style="endArrow=none;html=1;rounded=0;strokeColor=#23445D;fontColor=default;exitX=0.279;exitY=0.991;exitDx=0;exitDy=0;labelBackgroundColor=none;exitPerimeter=0;entryX=0.5;entryY=0;entryDx=0;entryDy=0;" edge="1" parent="1" source="9AGQyDCaSNTabn05gq13-5" target="9AGQyDCaSNTabn05gq13-1">
          <mxGeometry relative="1" as="geometry">
            <mxPoint x="918" y="-404.5" as="sourcePoint" />
            <mxPoint x="821" y="-449.5" as="targetPoint" />
          </mxGeometry>
        </mxCell>
        <mxCell id="9AGQyDCaSNTabn05gq13-12" value="" style="endArrow=none;html=1;rounded=0;strokeColor=#23445D;fontColor=default;exitX=0.398;exitY=0.99;exitDx=0;exitDy=0;labelBackgroundColor=none;exitPerimeter=0;entryX=0.573;entryY=-0.056;entryDx=0;entryDy=0;entryPerimeter=0;" edge="1" parent="1" source="9AGQyDCaSNTabn05gq13-7" target="9AGQyDCaSNTabn05gq13-1">
          <mxGeometry relative="1" as="geometry">
            <mxPoint x="1002" y="-367.5" as="sourcePoint" />
            <mxPoint x="905" y="-412.5" as="targetPoint" />
          </mxGeometry>
        </mxCell>
        <mxCell id="9AGQyDCaSNTabn05gq13-13" value="Certficate" style="rounded=1;whiteSpace=wrap;html=1;labelBackgroundColor=none;fillColor=#182E3E;strokeColor=#FFFFFF;fontColor=#FFFFFF;shadow=0;" vertex="1" parent="1">
          <mxGeometry x="1147" y="-156.5" width="120" height="53" as="geometry" />
        </mxCell>
        <mxCell id="9AGQyDCaSNTabn05gq13-14" value="&lt;u&gt;CertficateID&lt;/u&gt;" style="ellipse;whiteSpace=wrap;html=1;labelBackgroundColor=none;fillColor=#182E3E;strokeColor=#FFFFFF;fontColor=#FFFFFF;" vertex="1" parent="1">
          <mxGeometry x="1046" y="-247" width="90" height="43" as="geometry" />
        </mxCell>
        <mxCell id="9AGQyDCaSNTabn05gq13-15" value="IssuedDate" style="ellipse;whiteSpace=wrap;html=1;labelBackgroundColor=none;fillColor=#182E3E;strokeColor=#FFFFFF;fontColor=#FFFFFF;" vertex="1" parent="1">
          <mxGeometry x="1121" y="-285" width="108" height="41" as="geometry" />
        </mxCell>
        <mxCell id="9AGQyDCaSNTabn05gq13-16" value="Grade" style="ellipse;whiteSpace=wrap;html=1;labelBackgroundColor=none;fillColor=#182E3E;strokeColor=#FFFFFF;fontColor=#FFFFFF;" vertex="1" parent="1">
          <mxGeometry x="1212" y="-247" width="108" height="40.5" as="geometry" />
        </mxCell>
        <mxCell id="9AGQyDCaSNTabn05gq13-17" value="FilePath" style="ellipse;whiteSpace=wrap;html=1;labelBackgroundColor=none;fillColor=#182E3E;strokeColor=#FFFFFF;fontColor=#FFFFFF;" vertex="1" parent="1">
          <mxGeometry x="1315" y="-279.5" width="108" height="41" as="geometry" />
        </mxCell>
        <mxCell id="9AGQyDCaSNTabn05gq13-18" value="" style="endArrow=none;html=1;rounded=0;strokeColor=#23445D;fontColor=default;exitX=0.437;exitY=0.058;exitDx=0;exitDy=0;labelBackgroundColor=none;exitPerimeter=0;entryX=0.55;entryY=0.854;entryDx=0;entryDy=0;entryPerimeter=0;" edge="1" parent="1" source="9AGQyDCaSNTabn05gq13-13" target="9AGQyDCaSNTabn05gq13-14">
          <mxGeometry relative="1" as="geometry">
            <mxPoint x="1148" y="-163.5" as="sourcePoint" />
            <mxPoint x="1102" y="-198.4999999999999" as="targetPoint" />
          </mxGeometry>
        </mxCell>
        <mxCell id="9AGQyDCaSNTabn05gq13-19" value="" style="endArrow=none;html=1;rounded=0;strokeColor=#23445D;fontColor=default;exitX=0.361;exitY=-0.079;exitDx=0;exitDy=0;labelBackgroundColor=none;exitPerimeter=0;entryX=0.5;entryY=1;entryDx=0;entryDy=0;" edge="1" parent="1" source="9AGQyDCaSNTabn05gq13-13" target="9AGQyDCaSNTabn05gq13-15">
          <mxGeometry relative="1" as="geometry">
            <mxPoint x="1358" y="-137.5" as="sourcePoint" />
            <mxPoint x="1261" y="-182.5" as="targetPoint" />
          </mxGeometry>
        </mxCell>
        <mxCell id="9AGQyDCaSNTabn05gq13-20" value="" style="endArrow=none;html=1;rounded=0;strokeColor=#23445D;fontColor=default;exitX=0.279;exitY=0.991;exitDx=0;exitDy=0;labelBackgroundColor=none;exitPerimeter=0;entryX=0.5;entryY=0;entryDx=0;entryDy=0;" edge="1" parent="1" source="9AGQyDCaSNTabn05gq13-16" target="9AGQyDCaSNTabn05gq13-13">
          <mxGeometry relative="1" as="geometry">
            <mxPoint x="1341" y="-136.5" as="sourcePoint" />
            <mxPoint x="1244" y="-181.5" as="targetPoint" />
          </mxGeometry>
        </mxCell>
        <mxCell id="9AGQyDCaSNTabn05gq13-21" value="" style="endArrow=none;html=1;rounded=0;strokeColor=#23445D;fontColor=default;exitX=0.398;exitY=0.99;exitDx=0;exitDy=0;labelBackgroundColor=none;exitPerimeter=0;entryX=0.573;entryY=-0.056;entryDx=0;entryDy=0;entryPerimeter=0;" edge="1" parent="1" source="9AGQyDCaSNTabn05gq13-17" target="9AGQyDCaSNTabn05gq13-13">
          <mxGeometry relative="1" as="geometry">
            <mxPoint x="1425" y="-99.5" as="sourcePoint" />
            <mxPoint x="1328" y="-144.5" as="targetPoint" />
          </mxGeometry>
        </mxCell>
        <mxCell id="9AGQyDCaSNTabn05gq13-27" style="edgeStyle=orthogonalEdgeStyle;rounded=0;orthogonalLoop=1;jettySize=auto;html=1;exitX=0.5;exitY=0;exitDx=0;exitDy=0;entryX=0.377;entryY=1.008;entryDx=0;entryDy=0;strokeColor=#23445D;shape=link;width=-3.6363636363636367;entryPerimeter=0;" edge="1" parent="1" source="9AGQyDCaSNTabn05gq13-22" target="9AGQyDCaSNTabn05gq13-1">
          <mxGeometry relative="1" as="geometry" />
        </mxCell>
        <mxCell id="9AGQyDCaSNTabn05gq13-22" value="Got" style="rhombus;whiteSpace=wrap;html=1;fillColor=#182E3E;strokeColor=#FFFFFF;fontColor=#FFFFFF;rounded=1;labelBackgroundColor=none;shadow=0;" vertex="1" parent="1">
          <mxGeometry x="730" y="-309" width="80" height="80" as="geometry" />
        </mxCell>
        <mxCell id="9AGQyDCaSNTabn05gq13-31" style="edgeStyle=orthogonalEdgeStyle;rounded=0;orthogonalLoop=1;jettySize=auto;html=1;exitX=1;exitY=0.5;exitDx=0;exitDy=0;entryX=0;entryY=0.5;entryDx=0;entryDy=0;strokeColor=#23445D;shape=link;" edge="1" parent="1" source="9AGQyDCaSNTabn05gq13-28" target="9AGQyDCaSNTabn05gq13-13">
          <mxGeometry relative="1" as="geometry" />
        </mxCell>
        <mxCell id="9AGQyDCaSNTabn05gq13-28" value="Takes" style="rhombus;whiteSpace=wrap;html=1;fillColor=#182E3E;strokeColor=#FFFFFF;fontColor=#FFFFFF;rounded=1;labelBackgroundColor=none;shadow=0;" vertex="1" parent="1">
          <mxGeometry x="857" y="-192" width="80" height="80" as="geometry" />
        </mxCell>
        <mxCell id="9AGQyDCaSNTabn05gq13-30" style="edgeStyle=orthogonalEdgeStyle;rounded=0;orthogonalLoop=1;jettySize=auto;html=1;exitX=1;exitY=0.25;exitDx=0;exitDy=0;entryX=0.13;entryY=0.58;entryDx=0;entryDy=0;entryPerimeter=0;strokeColor=#23445D;shape=link;" edge="1" parent="1" source="8ekyDWt_shnJRA3cAdzC-1" target="9AGQyDCaSNTabn05gq13-28">
          <mxGeometry relative="1" as="geometry" />
        </mxCell>
        <mxCell id="9AGQyDCaSNTabn05gq13-32" value="1" style="resizable=0;html=1;whiteSpace=wrap;align=left;verticalAlign=bottom;strokeColor=#FFFFFF;fontColor=#FFFFFF;fillColor=#182E3E;labelBackgroundColor=none;" connectable="0" vertex="1" parent="1">
          <mxGeometry x="780" y="-386" as="geometry">
            <mxPoint x="-3" y="77" as="offset" />
          </mxGeometry>
        </mxCell>
        <mxCell id="9AGQyDCaSNTabn05gq13-33" value="" style="resizable=0;html=1;whiteSpace=wrap;align=left;verticalAlign=bottom;strokeColor=#FFFFFF;fontColor=#FFFFFF;fillColor=#182E3E;labelBackgroundColor=none;" connectable="0" vertex="1" parent="1">
          <mxGeometry x="730" y="-402" as="geometry">
            <mxPoint x="-3" y="77" as="offset" />
          </mxGeometry>
        </mxCell>
        <mxCell id="9AGQyDCaSNTabn05gq13-34" value="1" style="resizable=0;html=1;whiteSpace=wrap;align=left;verticalAlign=bottom;strokeColor=#FFFFFF;fontColor=#FFFFFF;fillColor=#182E3E;labelBackgroundColor=none;" connectable="0" vertex="1" parent="1">
          <mxGeometry x="730" y="-317" as="geometry">
            <mxPoint x="-3" y="77" as="offset" />
          </mxGeometry>
        </mxCell>
        <mxCell id="9AGQyDCaSNTabn05gq13-35" value="M" style="resizable=0;html=1;whiteSpace=wrap;align=left;verticalAlign=bottom;strokeColor=#FFFFFF;fontColor=#FFFFFF;fillColor=#182E3E;labelBackgroundColor=none;" connectable="0" vertex="1" parent="1">
          <mxGeometry x="937" y="-239" as="geometry">
            <mxPoint x="-3" y="77" as="offset" />
          </mxGeometry>
        </mxCell>
        <mxCell id="9AGQyDCaSNTabn05gq13-36" value="M" style="resizable=0;html=1;whiteSpace=wrap;align=left;verticalAlign=bottom;strokeColor=#FFFFFF;fontColor=#FFFFFF;fillColor=#182E3E;labelBackgroundColor=none;" connectable="0" vertex="1" parent="1">
          <mxGeometry x="846" y="-199" as="geometry">
            <mxPoint x="-3" y="77" as="offset" />
          </mxGeometry>
        </mxCell>
        <mxCell id="9AGQyDCaSNTabn05gq13-40" value="" style="edgeStyle=orthogonalEdgeStyle;rounded=0;orthogonalLoop=1;jettySize=auto;html=1;strokeColor=#23445D;" edge="1" parent="1" source="9AGQyDCaSNTabn05gq13-37" target="9AGQyDCaSNTabn05gq13-39">
          <mxGeometry relative="1" as="geometry" />
        </mxCell>
        <mxCell id="9AGQyDCaSNTabn05gq13-37" value="Hiredby" style="rhombus;whiteSpace=wrap;html=1;fillColor=#182E3E;strokeColor=#FFFFFF;fontColor=#FFFFFF;rounded=1;labelBackgroundColor=none;shadow=0;" vertex="1" parent="1">
          <mxGeometry x="334" y="200" width="80" height="80" as="geometry" />
        </mxCell>
        <mxCell id="9AGQyDCaSNTabn05gq13-39" value="Company" style="whiteSpace=wrap;html=1;fillColor=#182E3E;strokeColor=#FFFFFF;fontColor=#FFFFFF;rounded=1;labelBackgroundColor=none;shadow=0;" vertex="1" parent="1">
          <mxGeometry x="314" y="370" width="120" height="60" as="geometry" />
        </mxCell>
        <mxCell id="9AGQyDCaSNTabn05gq13-41" value="CompanyName" style="ellipse;whiteSpace=wrap;html=1;direction=west;labelBackgroundColor=none;fillColor=#182E3E;strokeColor=#FFFFFF;fontColor=#FFFFFF;" vertex="1" parent="1">
          <mxGeometry x="337" y="508" width="106" height="52" as="geometry" />
        </mxCell>
        <mxCell id="9AGQyDCaSNTabn05gq13-42" value="Location" style="ellipse;whiteSpace=wrap;html=1;direction=west;labelBackgroundColor=none;fillColor=#182E3E;strokeColor=#FFFFFF;fontColor=#FFFFFF;" vertex="1" parent="1">
          <mxGeometry x="456" y="510" width="106" height="52" as="geometry" />
        </mxCell>
        <mxCell id="9AGQyDCaSNTabn05gq13-46" value="&lt;u&gt;CompanyID&lt;/u&gt;" style="ellipse;whiteSpace=wrap;html=1;direction=west;labelBackgroundColor=none;fillColor=#182E3E;strokeColor=#FFFFFF;fontColor=#FFFFFF;" vertex="1" parent="1">
          <mxGeometry x="216.5" y="506" width="106" height="52" as="geometry" />
        </mxCell>
        <mxCell id="9AGQyDCaSNTabn05gq13-48" value="" style="endArrow=none;html=1;rounded=0;strokeColor=#23445D;labelBackgroundColor=none;fontColor=default;entryX=0.374;entryY=1.034;entryDx=0;entryDy=0;exitX=0.5;exitY=1;exitDx=0;exitDy=0;entryPerimeter=0;" edge="1" parent="1" source="9AGQyDCaSNTabn05gq13-46" target="9AGQyDCaSNTabn05gq13-39">
          <mxGeometry relative="1" as="geometry">
            <mxPoint x="306" y="482" as="sourcePoint" />
            <mxPoint x="368" y="465" as="targetPoint" />
          </mxGeometry>
        </mxCell>
        <mxCell id="9AGQyDCaSNTabn05gq13-49" value="" style="endArrow=none;html=1;rounded=0;strokeColor=#23445D;labelBackgroundColor=none;fontColor=default;exitX=0.5;exitY=1;exitDx=0;exitDy=0;" edge="1" parent="1" source="9AGQyDCaSNTabn05gq13-41">
          <mxGeometry relative="1" as="geometry">
            <mxPoint x="403" y="490" as="sourcePoint" />
            <mxPoint x="363" y="434" as="targetPoint" />
          </mxGeometry>
        </mxCell>
        <mxCell id="9AGQyDCaSNTabn05gq13-50" value="" style="endArrow=none;html=1;rounded=0;strokeColor=#23445D;labelBackgroundColor=none;fontColor=default;entryX=0.5;entryY=1;entryDx=0;entryDy=0;exitX=0.5;exitY=1;exitDx=0;exitDy=0;" edge="1" parent="1" source="9AGQyDCaSNTabn05gq13-42" target="9AGQyDCaSNTabn05gq13-39">
          <mxGeometry relative="1" as="geometry">
            <mxPoint x="458" y="493" as="sourcePoint" />
            <mxPoint x="520" y="476" as="targetPoint" />
          </mxGeometry>
        </mxCell>
        <mxCell id="9AGQyDCaSNTabn05gq13-53" value="M" style="resizable=0;html=1;whiteSpace=wrap;align=right;verticalAlign=bottom;strokeColor=#FFFFFF;fontColor=#FFFFFF;fillColor=#182E3E;labelBackgroundColor=none;" connectable="0" vertex="1" parent="1">
          <mxGeometry x="374" y="171" as="geometry">
            <mxPoint x="24" y="26" as="offset" />
          </mxGeometry>
        </mxCell>
        <mxCell id="9AGQyDCaSNTabn05gq13-54" value="1" style="resizable=0;html=1;whiteSpace=wrap;align=right;verticalAlign=bottom;strokeColor=#FFFFFF;fontColor=#FFFFFF;fillColor=#182E3E;labelBackgroundColor=none;" connectable="0" vertex="1" parent="1">
          <mxGeometry x="374" y="266.5" as="geometry">
            <mxPoint x="24" y="26" as="offset" />
          </mxGeometry>
        </mxCell>
      </root>
    </mxGraphModel>
  </diagram>
  <diagram id="eIbGjbgzUoKBKDk6wM7N" name="Mapping">
    <mxGraphModel grid="0" page="0" gridSize="10" guides="0" tooltips="1" connect="1" arrows="1" fold="1" pageScale="1" pageWidth="1169" pageHeight="827" background="none" math="0" shadow="0">
      <root>
        <mxCell id="0" />
        <mxCell id="1" parent="0" />
        <mxCell id="oeGDdIarXh6p8NkHgZEL-1" value="&lt;u&gt;StudentID&lt;/u&gt;" style="rounded=1;whiteSpace=wrap;html=1;strokeColor=#FFFFFF;labelBackgroundColor=none;fillColor=#182E3E;fontColor=#FFFFFF;" vertex="1" parent="1">
          <mxGeometry x="440" y="130" width="125" height="30" as="geometry" />
        </mxCell>
        <mxCell id="oeGDdIarXh6p8NkHgZEL-2" value="StudentName" style="rounded=1;whiteSpace=wrap;html=1;strokeColor=#FFFFFF;labelBackgroundColor=none;fillColor=#182E3E;fontColor=#FFFFFF;" vertex="1" parent="1">
          <mxGeometry x="560" y="130" width="120" height="30" as="geometry" />
        </mxCell>
        <mxCell id="oeGDdIarXh6p8NkHgZEL-4" value="Email" style="rounded=1;whiteSpace=wrap;html=1;strokeColor=#FFFFFF;labelBackgroundColor=none;fillColor=#182E3E;fontColor=#FFFFFF;" vertex="1" parent="1">
          <mxGeometry x="680" y="130" width="120" height="30" as="geometry" />
        </mxCell>
        <mxCell id="oeGDdIarXh6p8NkHgZEL-7" value="Gender" style="rounded=1;whiteSpace=wrap;html=1;strokeColor=#FFFFFF;labelBackgroundColor=none;fillColor=#182E3E;fontColor=#FFFFFF;" vertex="1" parent="1">
          <mxGeometry x="800" y="130" width="120" height="30" as="geometry" />
        </mxCell>
        <mxCell id="oeGDdIarXh6p8NkHgZEL-9" value="Phone" style="rounded=1;whiteSpace=wrap;html=1;strokeColor=#FFFFFF;labelBackgroundColor=none;fillColor=#182E3E;fontColor=#FFFFFF;" vertex="1" parent="1">
          <mxGeometry x="920" y="130" width="120" height="30" as="geometry" />
        </mxCell>
        <mxCell id="oeGDdIarXh6p8NkHgZEL-11" value="Age" style="rounded=1;whiteSpace=wrap;html=1;strokeColor=#FFFFFF;labelBackgroundColor=none;fillColor=#182E3E;fontColor=#FFFFFF;" vertex="1" parent="1">
          <mxGeometry x="1040" y="130" width="120" height="30" as="geometry" />
        </mxCell>
        <mxCell id="oeGDdIarXh6p8NkHgZEL-13" value="Student" style="rounded=1;whiteSpace=wrap;html=1;strokeColor=#FFFFFF;labelBackgroundColor=none;fillColor=#182E3E;fontColor=#FFFFFF;" vertex="1" parent="1">
          <mxGeometry x="440" y="110" width="120" height="20" as="geometry" />
        </mxCell>
        <mxCell id="oeGDdIarXh6p8NkHgZEL-14" value="Zip" style="rounded=1;whiteSpace=wrap;html=1;strokeColor=#FFFFFF;labelBackgroundColor=none;fillColor=#182E3E;fontColor=#FFFFFF;" vertex="1" parent="1">
          <mxGeometry x="1160" y="130" width="120" height="30" as="geometry" />
        </mxCell>
        <mxCell id="oeGDdIarXh6p8NkHgZEL-15" value="City" style="rounded=1;whiteSpace=wrap;html=1;strokeColor=#FFFFFF;labelBackgroundColor=none;fillColor=#182E3E;fontColor=#FFFFFF;" vertex="1" parent="1">
          <mxGeometry x="1280" y="130" width="120" height="30" as="geometry" />
        </mxCell>
        <mxCell id="oeGDdIarXh6p8NkHgZEL-16" value="SocialLink" style="rounded=1;whiteSpace=wrap;html=1;strokeColor=#FFFFFF;labelBackgroundColor=none;fillColor=#182E3E;fontColor=#FFFFFF;" vertex="1" parent="1">
          <mxGeometry x="1400" y="130" width="120" height="30" as="geometry" />
        </mxCell>
        <mxCell id="oeGDdIarXh6p8NkHgZEL-17" value="&lt;u&gt;CertficateID&lt;/u&gt;" style="rounded=1;whiteSpace=wrap;html=1;strokeColor=#FFFFFF;labelBackgroundColor=none;fillColor=#182E3E;fontColor=#FFFFFF;" vertex="1" parent="1">
          <mxGeometry x="440.5" y="310" width="120" height="30" as="geometry" />
        </mxCell>
        <mxCell id="oeGDdIarXh6p8NkHgZEL-18" value="IssuedDate" style="rounded=1;whiteSpace=wrap;html=1;strokeColor=#FFFFFF;labelBackgroundColor=none;fillColor=#182E3E;fontColor=#FFFFFF;" vertex="1" parent="1">
          <mxGeometry x="560.5" y="310" width="120" height="30" as="geometry" />
        </mxCell>
        <mxCell id="oeGDdIarXh6p8NkHgZEL-20" value="Certificate" style="rounded=1;whiteSpace=wrap;html=1;strokeColor=#FFFFFF;labelBackgroundColor=none;fillColor=#182E3E;fontColor=#FFFFFF;" vertex="1" parent="1">
          <mxGeometry x="440.5" y="290" width="115" height="20" as="geometry" />
        </mxCell>
        <mxCell id="oeGDdIarXh6p8NkHgZEL-21" value="&lt;u&gt;StudentID&lt;/u&gt;" style="rounded=1;whiteSpace=wrap;html=1;strokeColor=#FFFFFF;labelBackgroundColor=none;fillColor=#182E3E;fontColor=#FFFFFF;" vertex="1" parent="1">
          <mxGeometry x="440" y="420" width="120" height="30" as="geometry" />
        </mxCell>
        <mxCell id="oeGDdIarXh6p8NkHgZEL-27" value="&lt;u&gt;TrackID&lt;/u&gt;" style="rounded=1;whiteSpace=wrap;html=1;strokeColor=#FFFFFF;labelBackgroundColor=none;fillColor=#182E3E;fontColor=#FFFFFF;" vertex="1" parent="1">
          <mxGeometry x="430" y="717" width="120" height="30" as="geometry" />
        </mxCell>
        <mxCell id="oeGDdIarXh6p8NkHgZEL-28" value="TrackName" style="rounded=1;whiteSpace=wrap;html=1;strokeColor=#FFFFFF;labelBackgroundColor=none;fillColor=#182E3E;fontColor=#FFFFFF;" vertex="1" parent="1">
          <mxGeometry x="550" y="717" width="115" height="30" as="geometry" />
        </mxCell>
        <mxCell id="oeGDdIarXh6p8NkHgZEL-29" value="NoStudent" style="rounded=1;whiteSpace=wrap;html=1;strokeColor=#FFFFFF;labelBackgroundColor=none;fillColor=#182E3E;fontColor=#FFFFFF;" vertex="1" parent="1">
          <mxGeometry x="665" y="717" width="120" height="30" as="geometry" />
        </mxCell>
        <mxCell id="oeGDdIarXh6p8NkHgZEL-33" value="Track" style="rounded=1;whiteSpace=wrap;html=1;strokeColor=#FFFFFF;labelBackgroundColor=none;fillColor=#182E3E;fontColor=#FFFFFF;" vertex="1" parent="1">
          <mxGeometry x="430" y="697" width="115" height="20" as="geometry" />
        </mxCell>
        <mxCell id="oeGDdIarXh6p8NkHgZEL-35" value="TrackId" style="rounded=1;whiteSpace=wrap;html=1;strokeColor=#FFFFFF;labelBackgroundColor=none;fillColor=#182E3E;fontColor=#FFFFFF;" vertex="1" parent="1">
          <mxGeometry x="1520" y="130" width="120" height="30" as="geometry" />
        </mxCell>
        <mxCell id="oeGDdIarXh6p8NkHgZEL-38" value="" style="endArrow=none;dashed=1;html=1;rounded=1;exitX=0.158;exitY=0.756;exitDx=0;exitDy=0;exitPerimeter=0;strokeColor=#23445D;labelBackgroundColor=none;fontColor=default;" edge="1" parent="1" source="oeGDdIarXh6p8NkHgZEL-35">
          <mxGeometry width="50" height="50" relative="1" as="geometry">
            <mxPoint x="1580" y="190" as="sourcePoint" />
            <mxPoint x="1620" y="153" as="targetPoint" />
          </mxGeometry>
        </mxCell>
        <mxCell id="oeGDdIarXh6p8NkHgZEL-39" value="" style="endArrow=classic;html=1;rounded=1;edgeStyle=orthogonalEdgeStyle;strokeColor=#23445D;labelBackgroundColor=none;fontColor=default;" edge="1" parent="1" source="oeGDdIarXh6p8NkHgZEL-35" target="oeGDdIarXh6p8NkHgZEL-27">
          <mxGeometry width="50" height="50" relative="1" as="geometry">
            <mxPoint x="1590" y="170" as="sourcePoint" />
            <mxPoint x="740" y="717" as="targetPoint" />
            <Array as="points">
              <mxPoint x="1590" y="90" />
              <mxPoint x="360" y="90" />
              <mxPoint x="360" y="687" />
              <mxPoint x="420" y="687" />
              <mxPoint x="420" y="732" />
            </Array>
          </mxGeometry>
        </mxCell>
        <mxCell id="oeGDdIarXh6p8NkHgZEL-44" value="&lt;u&gt;IntakeID&lt;/u&gt;" style="rounded=1;whiteSpace=wrap;html=1;strokeColor=#FFFFFF;labelBackgroundColor=none;fillColor=#182E3E;fontColor=#FFFFFF;" vertex="1" parent="1">
          <mxGeometry x="425" y="857" width="120" height="30" as="geometry" />
        </mxCell>
        <mxCell id="oeGDdIarXh6p8NkHgZEL-45" value="IntakeName" style="rounded=1;whiteSpace=wrap;html=1;strokeColor=#FFFFFF;labelBackgroundColor=none;fillColor=#182E3E;fontColor=#FFFFFF;" vertex="1" parent="1">
          <mxGeometry x="545" y="857" width="120" height="30" as="geometry" />
        </mxCell>
        <mxCell id="oeGDdIarXh6p8NkHgZEL-46" value="Intake" style="rounded=1;whiteSpace=wrap;html=1;strokeColor=#FFFFFF;labelBackgroundColor=none;fillColor=#182E3E;fontColor=#FFFFFF;" vertex="1" parent="1">
          <mxGeometry x="425" y="837" width="115" height="20" as="geometry" />
        </mxCell>
        <mxCell id="oeGDdIarXh6p8NkHgZEL-47" value="StartDate" style="rounded=1;whiteSpace=wrap;html=1;strokeColor=#FFFFFF;labelBackgroundColor=none;fillColor=#182E3E;fontColor=#FFFFFF;" vertex="1" parent="1">
          <mxGeometry x="665" y="857" width="120" height="30" as="geometry" />
        </mxCell>
        <mxCell id="oeGDdIarXh6p8NkHgZEL-48" value="EndDate" style="rounded=1;whiteSpace=wrap;html=1;strokeColor=#FFFFFF;labelBackgroundColor=none;fillColor=#182E3E;fontColor=#FFFFFF;" vertex="1" parent="1">
          <mxGeometry x="785" y="857" width="120" height="30" as="geometry" />
        </mxCell>
        <mxCell id="At2QDX2_6IW_tZ6OOKOL-1" value="&lt;u&gt;BranchID&lt;/u&gt;" style="rounded=1;whiteSpace=wrap;html=1;strokeColor=#FFFFFF;labelBackgroundColor=none;fillColor=#182E3E;fontColor=#FFFFFF;" vertex="1" parent="1">
          <mxGeometry x="435" y="1117" width="120" height="30" as="geometry" />
        </mxCell>
        <mxCell id="At2QDX2_6IW_tZ6OOKOL-2" value="BranchName" style="rounded=1;whiteSpace=wrap;html=1;strokeColor=#FFFFFF;labelBackgroundColor=none;fillColor=#182E3E;fontColor=#FFFFFF;" vertex="1" parent="1">
          <mxGeometry x="555" y="1117" width="120" height="30" as="geometry" />
        </mxCell>
        <mxCell id="At2QDX2_6IW_tZ6OOKOL-3" value="Branch" style="rounded=1;whiteSpace=wrap;html=1;strokeColor=#FFFFFF;labelBackgroundColor=none;fillColor=#182E3E;fontColor=#FFFFFF;" vertex="1" parent="1">
          <mxGeometry x="435" y="1097" width="115" height="20" as="geometry" />
        </mxCell>
        <mxCell id="At2QDX2_6IW_tZ6OOKOL-4" value="Location" style="rounded=1;whiteSpace=wrap;html=1;strokeColor=#FFFFFF;labelBackgroundColor=none;fillColor=#182E3E;fontColor=#FFFFFF;" vertex="1" parent="1">
          <mxGeometry x="675" y="1117" width="120" height="30" as="geometry" />
        </mxCell>
        <mxCell id="At2QDX2_6IW_tZ6OOKOL-14" value="&lt;u&gt;DeptID&lt;/u&gt;" style="rounded=1;whiteSpace=wrap;html=1;strokeColor=#FFFFFF;labelBackgroundColor=none;fillColor=#182E3E;fontColor=#FFFFFF;" vertex="1" parent="1">
          <mxGeometry x="439" y="1210" width="120" height="30" as="geometry" />
        </mxCell>
        <mxCell id="At2QDX2_6IW_tZ6OOKOL-15" value="DeptName" style="rounded=1;whiteSpace=wrap;html=1;strokeColor=#FFFFFF;labelBackgroundColor=none;fillColor=#182E3E;fontColor=#FFFFFF;" vertex="1" parent="1">
          <mxGeometry x="559" y="1210" width="120" height="30" as="geometry" />
        </mxCell>
        <mxCell id="At2QDX2_6IW_tZ6OOKOL-16" value="Department" style="rounded=1;whiteSpace=wrap;html=1;strokeColor=#FFFFFF;labelBackgroundColor=none;fillColor=#182E3E;fontColor=#FFFFFF;" vertex="1" parent="1">
          <mxGeometry x="439" y="1190" width="115" height="20" as="geometry" />
        </mxCell>
        <mxCell id="At2QDX2_6IW_tZ6OOKOL-19" value="DeptID" style="rounded=1;whiteSpace=wrap;html=1;strokeColor=#FFFFFF;labelBackgroundColor=none;fillColor=#182E3E;fontColor=#FFFFFF;" vertex="1" parent="1">
          <mxGeometry x="785" y="717" width="120" height="30" as="geometry" />
        </mxCell>
        <mxCell id="At2QDX2_6IW_tZ6OOKOL-20" value="" style="endArrow=none;dashed=1;html=1;rounded=1;strokeColor=#23445D;labelBackgroundColor=none;fontColor=default;" edge="1" parent="1">
          <mxGeometry width="50" height="50" relative="1" as="geometry">
            <mxPoint x="820" y="737" as="sourcePoint" />
            <mxPoint x="880" y="737" as="targetPoint" />
          </mxGeometry>
        </mxCell>
        <mxCell id="At2QDX2_6IW_tZ6OOKOL-21" value="" style="endArrow=classic;html=1;rounded=1;entryX=0;entryY=0.75;entryDx=0;entryDy=0;edgeStyle=orthogonalEdgeStyle;strokeColor=#23445D;labelBackgroundColor=none;fontColor=default;" edge="1" parent="1" target="At2QDX2_6IW_tZ6OOKOL-29">
          <mxGeometry width="50" height="50" relative="1" as="geometry">
            <mxPoint x="835.9900000000002" y="747.0099999999999" as="sourcePoint" />
            <mxPoint x="429" y="1382" as="targetPoint" />
            <Array as="points">
              <mxPoint x="836" y="757" />
              <mxPoint x="400" y="757" />
              <mxPoint x="400" y="1363" />
            </Array>
          </mxGeometry>
        </mxCell>
        <mxCell id="At2QDX2_6IW_tZ6OOKOL-22" value="&lt;u&gt;InstructorID&lt;/u&gt;" style="rounded=1;whiteSpace=wrap;html=1;strokeColor=#FFFFFF;labelBackgroundColor=none;fillColor=#182E3E;fontColor=#FFFFFF;" vertex="1" parent="1">
          <mxGeometry x="440" y="1470" width="119" height="30" as="geometry" />
        </mxCell>
        <mxCell id="At2QDX2_6IW_tZ6OOKOL-23" value="InsName" style="rounded=1;whiteSpace=wrap;html=1;strokeColor=#FFFFFF;labelBackgroundColor=none;fillColor=#182E3E;fontColor=#FFFFFF;" vertex="1" parent="1">
          <mxGeometry x="559" y="1470" width="120" height="30" as="geometry" />
        </mxCell>
        <mxCell id="At2QDX2_6IW_tZ6OOKOL-24" value="Instructor" style="rounded=1;whiteSpace=wrap;html=1;strokeColor=#FFFFFF;labelBackgroundColor=none;fillColor=#182E3E;fontColor=#FFFFFF;" vertex="1" parent="1">
          <mxGeometry x="439" y="1450" width="115" height="20" as="geometry" />
        </mxCell>
        <mxCell id="At2QDX2_6IW_tZ6OOKOL-25" value="Email" style="rounded=1;whiteSpace=wrap;html=1;strokeColor=#FFFFFF;labelBackgroundColor=none;fillColor=#182E3E;fontColor=#FFFFFF;" vertex="1" parent="1">
          <mxGeometry x="679" y="1470" width="120" height="30" as="geometry" />
        </mxCell>
        <mxCell id="At2QDX2_6IW_tZ6OOKOL-26" value="Phone&lt;span style=&quot;color: rgba(0, 0, 0, 0); font-family: monospace; font-size: 0px; text-align: start; text-wrap-mode: nowrap;&quot;&gt;%3CmxGraphModel%3E%3Croot%3E%3CmxCell%20id%3D%220%22%2F%3E%3CmxCell%20id%3D%221%22%20parent%3D%220%22%2F%3E%3CmxCell%20id%3D%222%22%20value%3D%22Email%22%20style%3D%22rounded%3D0%3BwhiteSpace%3Dwrap%3Bhtml%3D1%3B%22%20vertex%3D%221%22%20parent%3D%221%22%3E%3CmxGeometry%20x%3D%22675%22%20y%3D%221420%22%20width%3D%22120%22%20height%3D%2230%22%20as%3D%22geometry%22%2F%3E%3C%2FmxCell%3E%3C%2Froot%3E%3C%2FmxGraphModel%3E&lt;/span&gt;" style="rounded=1;whiteSpace=wrap;html=1;strokeColor=#FFFFFF;labelBackgroundColor=none;fillColor=#182E3E;fontColor=#FFFFFF;" vertex="1" parent="1">
          <mxGeometry x="799" y="1470" width="120" height="30" as="geometry" />
        </mxCell>
        <mxCell id="At2QDX2_6IW_tZ6OOKOL-27" value="Gender" style="rounded=1;whiteSpace=wrap;html=1;strokeColor=#FFFFFF;labelBackgroundColor=none;fillColor=#182E3E;fontColor=#FFFFFF;" vertex="1" parent="1">
          <mxGeometry x="919" y="1470" width="120" height="30" as="geometry" />
        </mxCell>
        <mxCell id="At2QDX2_6IW_tZ6OOKOL-28" value="Specialization" style="rounded=1;whiteSpace=wrap;html=1;strokeColor=#FFFFFF;labelBackgroundColor=none;fillColor=#182E3E;fontColor=#FFFFFF;" vertex="1" parent="1">
          <mxGeometry x="1039" y="1470" width="120" height="30" as="geometry" />
        </mxCell>
        <mxCell id="At2QDX2_6IW_tZ6OOKOL-29" value="&lt;u&gt;DeptID&lt;/u&gt;" style="rounded=1;whiteSpace=wrap;html=1;strokeColor=#FFFFFF;labelBackgroundColor=none;fillColor=#182E3E;fontColor=#FFFFFF;" vertex="1" parent="1">
          <mxGeometry x="439" y="1340" width="120" height="30" as="geometry" />
        </mxCell>
        <mxCell id="At2QDX2_6IW_tZ6OOKOL-30" value="&lt;u&gt;InstructorID&lt;/u&gt;" style="rounded=1;whiteSpace=wrap;html=1;strokeColor=#FFFFFF;labelBackgroundColor=none;fillColor=#182E3E;fontColor=#FFFFFF;" vertex="1" parent="1">
          <mxGeometry x="559" y="1340" width="120" height="30" as="geometry" />
        </mxCell>
        <mxCell id="At2QDX2_6IW_tZ6OOKOL-31" value="InsDepartment" style="rounded=1;whiteSpace=wrap;html=1;strokeColor=#FFFFFF;labelBackgroundColor=none;fillColor=#182E3E;fontColor=#FFFFFF;" vertex="1" parent="1">
          <mxGeometry x="439" y="1320" width="115" height="20" as="geometry" />
        </mxCell>
        <mxCell id="At2QDX2_6IW_tZ6OOKOL-32" value="" style="endArrow=classic;html=1;rounded=1;edgeStyle=orthogonalEdgeStyle;strokeColor=#23445D;labelBackgroundColor=none;fontColor=default;" edge="1" parent="1" source="At2QDX2_6IW_tZ6OOKOL-30" target="At2QDX2_6IW_tZ6OOKOL-22">
          <mxGeometry width="50" height="50" relative="1" as="geometry">
            <mxPoint x="850" y="1360" as="sourcePoint" />
            <mxPoint x="900" y="1310" as="targetPoint" />
            <Array as="points">
              <mxPoint x="630" y="1380" />
              <mxPoint x="410" y="1380" />
              <mxPoint x="410" y="1480" />
            </Array>
          </mxGeometry>
        </mxCell>
        <mxCell id="At2QDX2_6IW_tZ6OOKOL-33" value="" style="endArrow=classic;html=1;rounded=1;entryX=0.396;entryY=0.934;entryDx=0;entryDy=0;entryPerimeter=0;edgeStyle=orthogonalEdgeStyle;strokeColor=#23445D;labelBackgroundColor=none;fontColor=default;" edge="1" parent="1" target="At2QDX2_6IW_tZ6OOKOL-14">
          <mxGeometry width="50" height="50" relative="1" as="geometry">
            <mxPoint x="440" y="1350" as="sourcePoint" />
            <mxPoint x="900" y="1290" as="targetPoint" />
            <Array as="points">
              <mxPoint x="440" y="1350" />
              <mxPoint x="410" y="1350" />
              <mxPoint x="410" y="1290" />
              <mxPoint x="487" y="1290" />
            </Array>
          </mxGeometry>
        </mxCell>
        <mxCell id="At2QDX2_6IW_tZ6OOKOL-34" value="&lt;u&gt;InstructorID&lt;/u&gt;" style="rounded=1;whiteSpace=wrap;html=1;strokeColor=#FFFFFF;labelBackgroundColor=none;fillColor=#182E3E;fontColor=#FFFFFF;" vertex="1" parent="1">
          <mxGeometry x="440" y="1600" width="120" height="30" as="geometry" />
        </mxCell>
        <mxCell id="wUP7SC2m3oV7jsY-0LvE-6" style="edgeStyle=orthogonalEdgeStyle;rounded=1;orthogonalLoop=1;jettySize=auto;html=1;exitX=0.5;exitY=0;exitDx=0;exitDy=0;entryX=0.75;entryY=1;entryDx=0;entryDy=0;shadow=1;strokeColor=#23445D;labelBackgroundColor=none;fontColor=default;" edge="1" parent="1" source="At2QDX2_6IW_tZ6OOKOL-35" target="At2QDX2_6IW_tZ6OOKOL-1">
          <mxGeometry relative="1" as="geometry">
            <Array as="points">
              <mxPoint x="620" y="1570" />
              <mxPoint x="1170" y="1570" />
              <mxPoint x="1170" y="1170" />
              <mxPoint x="525" y="1170" />
            </Array>
          </mxGeometry>
        </mxCell>
        <mxCell id="At2QDX2_6IW_tZ6OOKOL-35" value="&lt;u&gt;BranchID&lt;/u&gt;" style="rounded=1;whiteSpace=wrap;html=1;strokeColor=#FFFFFF;labelBackgroundColor=none;fillColor=#182E3E;fontColor=#FFFFFF;" vertex="1" parent="1">
          <mxGeometry x="560" y="1600" width="120" height="30" as="geometry" />
        </mxCell>
        <mxCell id="At2QDX2_6IW_tZ6OOKOL-36" value="InsBranch" style="rounded=1;whiteSpace=wrap;html=1;strokeColor=#FFFFFF;labelBackgroundColor=none;fillColor=#182E3E;fontColor=#FFFFFF;" vertex="1" parent="1">
          <mxGeometry x="440" y="1580" width="115" height="20" as="geometry" />
        </mxCell>
        <mxCell id="At2QDX2_6IW_tZ6OOKOL-37" value="" style="endArrow=classic;html=1;rounded=1;entryX=0.5;entryY=1;entryDx=0;entryDy=0;edgeStyle=orthogonalEdgeStyle;strokeColor=#23445D;labelBackgroundColor=none;fontColor=default;" edge="1" parent="1" source="At2QDX2_6IW_tZ6OOKOL-34" target="At2QDX2_6IW_tZ6OOKOL-22">
          <mxGeometry width="50" height="50" relative="1" as="geometry">
            <mxPoint x="850" y="1510" as="sourcePoint" />
            <mxPoint x="900" y="1460" as="targetPoint" />
            <Array as="points">
              <mxPoint x="420" y="1615" />
              <mxPoint x="420" y="1520" />
              <mxPoint x="499" y="1520" />
            </Array>
          </mxGeometry>
        </mxCell>
        <mxCell id="9cfcOfllZXewmWz1mBzf-1" value="&lt;u&gt;BranchID&lt;/u&gt;" style="rounded=1;whiteSpace=wrap;html=1;strokeColor=#FFFFFF;labelBackgroundColor=none;fillColor=#182E3E;fontColor=#FFFFFF;" vertex="1" parent="1">
          <mxGeometry x="429" y="987" width="120" height="30" as="geometry" />
        </mxCell>
        <mxCell id="9cfcOfllZXewmWz1mBzf-2" value="&lt;u&gt;IntakeID&lt;/u&gt;" style="rounded=1;whiteSpace=wrap;html=1;strokeColor=#FFFFFF;labelBackgroundColor=none;fillColor=#182E3E;fontColor=#FFFFFF;" vertex="1" parent="1">
          <mxGeometry x="549" y="987" width="120" height="30" as="geometry" />
        </mxCell>
        <mxCell id="9cfcOfllZXewmWz1mBzf-3" value="BranchINTrack" style="rounded=1;whiteSpace=wrap;html=1;strokeColor=#FFFFFF;labelBackgroundColor=none;fillColor=#182E3E;fontColor=#FFFFFF;" vertex="1" parent="1">
          <mxGeometry x="429" y="967" width="115" height="20" as="geometry" />
        </mxCell>
        <mxCell id="9cfcOfllZXewmWz1mBzf-4" value="&lt;u&gt;TrackID&lt;/u&gt;" style="rounded=1;whiteSpace=wrap;html=1;strokeColor=#FFFFFF;labelBackgroundColor=none;fillColor=#182E3E;fontColor=#FFFFFF;" vertex="1" parent="1">
          <mxGeometry x="669" y="987" width="120" height="30" as="geometry" />
        </mxCell>
        <mxCell id="2WjJMr5K2dQVfP4u9gUC-1" value="" style="endArrow=classic;html=1;rounded=1;strokeColor=#23445D;exitX=0;exitY=0.5;exitDx=0;exitDy=0;edgeStyle=orthogonalEdgeStyle;labelBackgroundColor=none;fontColor=default;" edge="1" parent="1" source="9cfcOfllZXewmWz1mBzf-1" target="At2QDX2_6IW_tZ6OOKOL-1">
          <mxGeometry width="50" height="50" relative="1" as="geometry">
            <mxPoint x="1150" y="947" as="sourcePoint" />
            <mxPoint x="1200" y="897" as="targetPoint" />
            <Array as="points">
              <mxPoint x="429" y="997" />
              <mxPoint x="410" y="997" />
              <mxPoint x="410" y="1132" />
            </Array>
          </mxGeometry>
        </mxCell>
        <mxCell id="2WjJMr5K2dQVfP4u9gUC-2" value="" style="endArrow=classic;html=1;rounded=1;strokeColor=#23445D;exitX=0.5;exitY=0;exitDx=0;exitDy=0;entryX=0.5;entryY=1;entryDx=0;entryDy=0;edgeStyle=orthogonalEdgeStyle;labelBackgroundColor=none;fontColor=default;" edge="1" parent="1" source="9cfcOfllZXewmWz1mBzf-2" target="oeGDdIarXh6p8NkHgZEL-44">
          <mxGeometry width="50" height="50" relative="1" as="geometry">
            <mxPoint x="940" y="937" as="sourcePoint" />
            <mxPoint x="890" y="987" as="targetPoint" />
          </mxGeometry>
        </mxCell>
        <mxCell id="2WjJMr5K2dQVfP4u9gUC-3" value="" style="endArrow=classic;html=1;rounded=1;strokeColor=#23445D;entryX=0.682;entryY=0.92;entryDx=0;entryDy=0;entryPerimeter=0;edgeStyle=orthogonalEdgeStyle;exitX=0.639;exitY=0.047;exitDx=0;exitDy=0;exitPerimeter=0;labelBackgroundColor=none;fontColor=default;" edge="1" parent="1" source="9cfcOfllZXewmWz1mBzf-4" target="oeGDdIarXh6p8NkHgZEL-27">
          <mxGeometry width="50" height="50" relative="1" as="geometry">
            <mxPoint x="890" y="907" as="sourcePoint" />
            <mxPoint x="511" y="757" as="targetPoint" />
            <Array as="points">
              <mxPoint x="746" y="977" />
              <mxPoint x="930" y="977" />
              <mxPoint x="930" y="777" />
              <mxPoint x="512" y="777" />
            </Array>
          </mxGeometry>
        </mxCell>
        <mxCell id="2WjJMr5K2dQVfP4u9gUC-4" value="&lt;u&gt;CourseID&lt;/u&gt;" style="rounded=1;whiteSpace=wrap;html=1;strokeColor=#FFFFFF;labelBackgroundColor=none;fillColor=#182E3E;fontColor=#FFFFFF;" vertex="1" parent="1">
          <mxGeometry x="435" y="1840" width="120" height="30" as="geometry" />
        </mxCell>
        <mxCell id="2WjJMr5K2dQVfP4u9gUC-5" value="Title" style="rounded=1;whiteSpace=wrap;html=1;strokeColor=#FFFFFF;labelBackgroundColor=none;fillColor=#182E3E;fontColor=#FFFFFF;" vertex="1" parent="1">
          <mxGeometry x="556" y="1840" width="115" height="30" as="geometry" />
        </mxCell>
        <mxCell id="2WjJMr5K2dQVfP4u9gUC-6" value="Course" style="rounded=1;whiteSpace=wrap;html=1;strokeColor=#FFFFFF;labelBackgroundColor=none;fillColor=#182E3E;fontColor=#FFFFFF;" vertex="1" parent="1">
          <mxGeometry x="435" y="1820" width="115" height="20" as="geometry" />
        </mxCell>
        <mxCell id="fCu7tGu5nBEZ7ZRVQQvc-2" value="" style="edgeStyle=orthogonalEdgeStyle;rounded=0;orthogonalLoop=1;jettySize=auto;html=1;" edge="1" parent="1" source="2WjJMr5K2dQVfP4u9gUC-7" target="fCu7tGu5nBEZ7ZRVQQvc-1">
          <mxGeometry relative="1" as="geometry" />
        </mxCell>
        <mxCell id="2WjJMr5K2dQVfP4u9gUC-7" value="HoursTought" style="rounded=1;whiteSpace=wrap;html=1;strokeColor=#FFFFFF;labelBackgroundColor=none;fillColor=#182E3E;fontColor=#FFFFFF;" vertex="1" parent="1">
          <mxGeometry x="671" y="1840" width="120" height="30" as="geometry" />
        </mxCell>
        <mxCell id="2WjJMr5K2dQVfP4u9gUC-11" value="&lt;u&gt;InstructorID&lt;/u&gt;" style="rounded=1;whiteSpace=wrap;html=1;strokeColor=#FFFFFF;labelBackgroundColor=none;fillColor=#182E3E;fontColor=#FFFFFF;" vertex="1" parent="1">
          <mxGeometry x="430" y="1720" width="120" height="30" as="geometry" />
        </mxCell>
        <mxCell id="2WjJMr5K2dQVfP4u9gUC-12" value="&lt;u&gt;CrsID&lt;/u&gt;" style="rounded=1;whiteSpace=wrap;html=1;strokeColor=#FFFFFF;labelBackgroundColor=none;fillColor=#182E3E;fontColor=#FFFFFF;" vertex="1" parent="1">
          <mxGeometry x="551" y="1720" width="120" height="30" as="geometry" />
        </mxCell>
        <mxCell id="2WjJMr5K2dQVfP4u9gUC-13" value="InsCourse" style="rounded=1;whiteSpace=wrap;html=1;strokeColor=#FFFFFF;labelBackgroundColor=none;fillColor=#182E3E;fontColor=#FFFFFF;" vertex="1" parent="1">
          <mxGeometry x="430" y="1700" width="115" height="20" as="geometry" />
        </mxCell>
        <mxCell id="2WjJMr5K2dQVfP4u9gUC-18" value="" style="endArrow=classic;html=1;rounded=1;strokeColor=#23445D;edgeStyle=orthogonalEdgeStyle;exitX=0.5;exitY=1;exitDx=0;exitDy=0;labelBackgroundColor=none;fontColor=default;" edge="1" parent="1" source="2WjJMr5K2dQVfP4u9gUC-12" target="2WjJMr5K2dQVfP4u9gUC-4">
          <mxGeometry width="50" height="50" relative="1" as="geometry">
            <mxPoint x="1090" y="1760" as="sourcePoint" />
            <mxPoint x="430" y="1860" as="targetPoint" />
            <Array as="points">
              <mxPoint x="610" y="1750" />
              <mxPoint x="610" y="1760" />
              <mxPoint x="420" y="1760" />
              <mxPoint x="420" y="1860" />
            </Array>
          </mxGeometry>
        </mxCell>
        <mxCell id="2WjJMr5K2dQVfP4u9gUC-19" value="" style="endArrow=classic;html=1;rounded=1;strokeColor=#23445D;exitX=0;exitY=0.75;exitDx=0;exitDy=0;edgeStyle=orthogonalEdgeStyle;labelBackgroundColor=none;fontColor=default;" edge="1" parent="1" source="2WjJMr5K2dQVfP4u9gUC-11">
          <mxGeometry width="50" height="50" relative="1" as="geometry">
            <mxPoint x="720" y="1850" as="sourcePoint" />
            <mxPoint x="440" y="1490" as="targetPoint" />
            <Array as="points">
              <mxPoint x="410" y="1742" />
              <mxPoint x="410" y="1490" />
            </Array>
          </mxGeometry>
        </mxCell>
        <mxCell id="2WjJMr5K2dQVfP4u9gUC-20" value="&lt;u&gt;TopicID&lt;/u&gt;" style="rounded=1;whiteSpace=wrap;html=1;strokeColor=#FFFFFF;labelBackgroundColor=none;fillColor=#182E3E;fontColor=#FFFFFF;" vertex="1" parent="1">
          <mxGeometry x="439" y="1950" width="120" height="30" as="geometry" />
        </mxCell>
        <mxCell id="2WjJMr5K2dQVfP4u9gUC-21" value="TopName" style="rounded=1;whiteSpace=wrap;html=1;strokeColor=#FFFFFF;labelBackgroundColor=none;fillColor=#182E3E;fontColor=#FFFFFF;" vertex="1" parent="1">
          <mxGeometry x="559" y="1950" width="120" height="30" as="geometry" />
        </mxCell>
        <mxCell id="2WjJMr5K2dQVfP4u9gUC-22" value="Topic" style="rounded=1;whiteSpace=wrap;html=1;strokeColor=#FFFFFF;labelBackgroundColor=none;fillColor=#182E3E;fontColor=#FFFFFF;" vertex="1" parent="1">
          <mxGeometry x="439" y="1930" width="115" height="20" as="geometry" />
        </mxCell>
        <mxCell id="2WjJMr5K2dQVfP4u9gUC-23" value="CourseID" style="rounded=1;whiteSpace=wrap;html=1;strokeColor=#FFFFFF;labelBackgroundColor=none;fillColor=#182E3E;fontColor=#FFFFFF;" vertex="1" parent="1">
          <mxGeometry x="679" y="1950" width="120" height="30" as="geometry" />
        </mxCell>
        <mxCell id="2WjJMr5K2dQVfP4u9gUC-27" value="" style="endArrow=none;dashed=1;html=1;rounded=1;strokeColor=#23445D;labelBackgroundColor=none;fontColor=default;" edge="1" parent="1">
          <mxGeometry width="50" height="50" relative="1" as="geometry">
            <mxPoint x="709" y="1970" as="sourcePoint" />
            <mxPoint x="769" y="1970" as="targetPoint" />
          </mxGeometry>
        </mxCell>
        <mxCell id="2WjJMr5K2dQVfP4u9gUC-28" value="" style="endArrow=classic;html=1;rounded=1;strokeColor=#23445D;entryX=0.379;entryY=1.011;entryDx=0;entryDy=0;entryPerimeter=0;edgeStyle=orthogonalEdgeStyle;labelBackgroundColor=none;fontColor=default;" edge="1" parent="1" target="2WjJMr5K2dQVfP4u9gUC-4">
          <mxGeometry width="50" height="50" relative="1" as="geometry">
            <mxPoint x="747" y="1950" as="sourcePoint" />
            <mxPoint x="900" y="1940" as="targetPoint" />
            <Array as="points">
              <mxPoint x="738" y="1920" />
              <mxPoint x="480" y="1920" />
              <mxPoint x="480" y="1870" />
            </Array>
          </mxGeometry>
        </mxCell>
        <mxCell id="2WjJMr5K2dQVfP4u9gUC-29" value="&lt;u&gt;StudentID&lt;/u&gt;" style="rounded=1;whiteSpace=wrap;html=1;strokeColor=#FFFFFF;labelBackgroundColor=none;fillColor=#182E3E;fontColor=#FFFFFF;" vertex="1" parent="1">
          <mxGeometry x="438" y="2050" width="120" height="30" as="geometry" />
        </mxCell>
        <mxCell id="2WjJMr5K2dQVfP4u9gUC-30" value="&lt;u&gt;CourseID&lt;/u&gt;" style="rounded=1;whiteSpace=wrap;html=1;strokeColor=#FFFFFF;labelBackgroundColor=none;fillColor=#182E3E;fontColor=#FFFFFF;" vertex="1" parent="1">
          <mxGeometry x="558" y="2050" width="120" height="30" as="geometry" />
        </mxCell>
        <mxCell id="2WjJMr5K2dQVfP4u9gUC-31" value="StCourse" style="rounded=1;whiteSpace=wrap;html=1;strokeColor=#FFFFFF;labelBackgroundColor=none;fillColor=#182E3E;fontColor=#FFFFFF;" vertex="1" parent="1">
          <mxGeometry x="438" y="2030" width="115" height="20" as="geometry" />
        </mxCell>
        <mxCell id="2WjJMr5K2dQVfP4u9gUC-32" value="Date" style="rounded=1;whiteSpace=wrap;html=1;strokeColor=#FFFFFF;labelBackgroundColor=none;fillColor=#182E3E;fontColor=#FFFFFF;" vertex="1" parent="1">
          <mxGeometry x="678" y="2050" width="120" height="30" as="geometry" />
        </mxCell>
        <mxCell id="2WjJMr5K2dQVfP4u9gUC-39" value="Rating" style="rounded=1;whiteSpace=wrap;html=1;strokeColor=#FFFFFF;labelBackgroundColor=none;fillColor=#182E3E;fontColor=#FFFFFF;" vertex="1" parent="1">
          <mxGeometry x="798" y="2050" width="120" height="30" as="geometry" />
        </mxCell>
        <mxCell id="2WjJMr5K2dQVfP4u9gUC-41" value="" style="endArrow=classic;html=1;rounded=1;strokeColor=#23445D;edgeStyle=orthogonalEdgeStyle;entryX=0;entryY=0.25;entryDx=0;entryDy=0;labelBackgroundColor=none;fontColor=default;" edge="1" parent="1" target="oeGDdIarXh6p8NkHgZEL-1">
          <mxGeometry width="50" height="50" relative="1" as="geometry">
            <mxPoint x="380" y="2690" as="sourcePoint" />
            <mxPoint x="440" y="-48" as="targetPoint" />
            <Array as="points">
              <mxPoint x="380" y="138" />
            </Array>
          </mxGeometry>
        </mxCell>
        <mxCell id="2WjJMr5K2dQVfP4u9gUC-44" value="" style="endArrow=classic;html=1;rounded=1;strokeColor=#23445D;entryX=0.516;entryY=0.241;entryDx=0;entryDy=0;edgeStyle=orthogonalEdgeStyle;entryPerimeter=0;labelBackgroundColor=none;fontColor=default;" edge="1" parent="1">
          <mxGeometry width="50" height="50" relative="1" as="geometry">
            <mxPoint x="610" y="2050" as="sourcePoint" />
            <mxPoint x="460" y="1870" as="targetPoint" />
            <Array as="points">
              <mxPoint x="610" y="2010" />
              <mxPoint x="390" y="2010" />
              <mxPoint x="390" y="1880" />
              <mxPoint x="460" y="1880" />
            </Array>
          </mxGeometry>
        </mxCell>
        <mxCell id="Zi61UWu5ymwNtLlk9do2-1" value="&lt;u&gt;StudentID&lt;/u&gt;" style="rounded=1;whiteSpace=wrap;html=1;strokeColor=#FFFFFF;labelBackgroundColor=none;fillColor=#182E3E;fontColor=#FFFFFF;" vertex="1" parent="1">
          <mxGeometry x="438" y="2140" width="120" height="30" as="geometry" />
        </mxCell>
        <mxCell id="Zi61UWu5ymwNtLlk9do2-2" value="&lt;u&gt;CourseID&lt;/u&gt;" style="rounded=1;whiteSpace=wrap;html=1;strokeColor=#FFFFFF;labelBackgroundColor=none;fillColor=#182E3E;fontColor=#FFFFFF;" vertex="1" parent="1">
          <mxGeometry x="558" y="2140" width="120" height="30" as="geometry" />
        </mxCell>
        <mxCell id="Zi61UWu5ymwNtLlk9do2-3" value="StudentEnrollment" style="rounded=1;whiteSpace=wrap;html=1;strokeColor=#FFFFFF;labelBackgroundColor=none;fillColor=#182E3E;fontColor=#FFFFFF;" vertex="1" parent="1">
          <mxGeometry x="438" y="2120" width="115" height="20" as="geometry" />
        </mxCell>
        <mxCell id="Zi61UWu5ymwNtLlk9do2-4" value="EnrollmentDate" style="rounded=1;whiteSpace=wrap;html=1;strokeColor=#FFFFFF;labelBackgroundColor=none;fillColor=#182E3E;fontColor=#FFFFFF;" vertex="1" parent="1">
          <mxGeometry x="678" y="2140" width="120" height="30" as="geometry" />
        </mxCell>
        <mxCell id="Zi61UWu5ymwNtLlk9do2-10" value="" style="endArrow=classic;html=1;rounded=1;strokeColor=#23445D;edgeStyle=orthogonalEdgeStyle;labelBackgroundColor=none;fontColor=default;" edge="1" parent="1" target="2WjJMr5K2dQVfP4u9gUC-4">
          <mxGeometry width="50" height="50" relative="1" as="geometry">
            <mxPoint x="610" y="2170" as="sourcePoint" />
            <mxPoint x="780" y="2160" as="targetPoint" />
            <Array as="points">
              <mxPoint x="610" y="2180" />
              <mxPoint x="940" y="2180" />
              <mxPoint x="940" y="1910" />
              <mxPoint x="510" y="1910" />
            </Array>
          </mxGeometry>
        </mxCell>
        <mxCell id="NH_kzWuVBM9fkIq-kDK0-1" value="&lt;u&gt;ExamID&lt;/u&gt;" style="rounded=1;whiteSpace=wrap;html=1;strokeColor=#FFFFFF;labelBackgroundColor=none;fillColor=#182E3E;fontColor=#FFFFFF;" vertex="1" parent="1">
          <mxGeometry x="435" y="2230" width="120" height="30" as="geometry" />
        </mxCell>
        <mxCell id="NH_kzWuVBM9fkIq-kDK0-2" value="Date" style="rounded=1;whiteSpace=wrap;html=1;strokeColor=#FFFFFF;labelBackgroundColor=none;fillColor=#182E3E;fontColor=#FFFFFF;" vertex="1" parent="1">
          <mxGeometry x="555" y="2230" width="120" height="30" as="geometry" />
        </mxCell>
        <mxCell id="NH_kzWuVBM9fkIq-kDK0-3" value="Exam" style="rounded=1;whiteSpace=wrap;html=1;strokeColor=#FFFFFF;labelBackgroundColor=none;fillColor=#182E3E;fontColor=#FFFFFF;" vertex="1" parent="1">
          <mxGeometry x="435" y="2210" width="115" height="20" as="geometry" />
        </mxCell>
        <mxCell id="NH_kzWuVBM9fkIq-kDK0-4" value="StartTime" style="rounded=1;whiteSpace=wrap;html=1;strokeColor=#FFFFFF;labelBackgroundColor=none;fillColor=#182E3E;fontColor=#FFFFFF;" vertex="1" parent="1">
          <mxGeometry x="675" y="2230" width="120" height="30" as="geometry" />
        </mxCell>
        <mxCell id="NH_kzWuVBM9fkIq-kDK0-12" value="EndTime" style="rounded=1;whiteSpace=wrap;html=1;strokeColor=#FFFFFF;labelBackgroundColor=none;fillColor=#182E3E;fontColor=#FFFFFF;" vertex="1" parent="1">
          <mxGeometry x="795" y="2230" width="120" height="30" as="geometry" />
        </mxCell>
        <mxCell id="NH_kzWuVBM9fkIq-kDK0-13" value="Grade" style="rounded=1;whiteSpace=wrap;html=1;strokeColor=#FFFFFF;labelBackgroundColor=none;fillColor=#182E3E;fontColor=#FFFFFF;" vertex="1" parent="1">
          <mxGeometry x="915" y="2230" width="120" height="30" as="geometry" />
        </mxCell>
        <mxCell id="NH_kzWuVBM9fkIq-kDK0-14" value="DifficultyLevel" style="rounded=1;whiteSpace=wrap;html=1;strokeColor=#FFFFFF;labelBackgroundColor=none;fillColor=#182E3E;fontColor=#FFFFFF;" vertex="1" parent="1">
          <mxGeometry x="1035" y="2230" width="120" height="30" as="geometry" />
        </mxCell>
        <mxCell id="lutr2Nnmt-ViDxGIF_Zp-4" value="" style="edgeStyle=orthogonalEdgeStyle;rounded=0;orthogonalLoop=1;jettySize=auto;html=1;" edge="1" parent="1" source="NH_kzWuVBM9fkIq-kDK0-15" target="lutr2Nnmt-ViDxGIF_Zp-3">
          <mxGeometry relative="1" as="geometry" />
        </mxCell>
        <mxCell id="NH_kzWuVBM9fkIq-kDK0-15" value="CourseID" style="rounded=1;whiteSpace=wrap;html=1;strokeColor=#FFFFFF;labelBackgroundColor=none;fillColor=#182E3E;fontColor=#FFFFFF;" vertex="1" parent="1">
          <mxGeometry x="1155" y="2230" width="120" height="30" as="geometry" />
        </mxCell>
        <mxCell id="NH_kzWuVBM9fkIq-kDK0-16" value="" style="endArrow=none;dashed=1;html=1;rounded=1;strokeColor=#23445D;labelBackgroundColor=none;fontColor=default;" edge="1" parent="1">
          <mxGeometry width="50" height="50" relative="1" as="geometry">
            <mxPoint x="1185" y="2250" as="sourcePoint" />
            <mxPoint x="1245" y="2250" as="targetPoint" />
          </mxGeometry>
        </mxCell>
        <mxCell id="CobeTSuSEyeUYDgQlb6d-11" value="" style="endArrow=none;html=1;rounded=1;strokeColor=#23445D;entryX=0;entryY=0.5;entryDx=0;entryDy=0;labelBackgroundColor=none;fontColor=default;" edge="1" parent="1" target="2WjJMr5K2dQVfP4u9gUC-29">
          <mxGeometry width="50" height="50" relative="1" as="geometry">
            <mxPoint x="380" y="2064.55" as="sourcePoint" />
            <mxPoint x="430" y="2064.55" as="targetPoint" />
          </mxGeometry>
        </mxCell>
        <mxCell id="WgQKBNajAqg6zflXnb_T-1" value="&lt;u&gt;QuestionID&lt;/u&gt;" style="rounded=1;whiteSpace=wrap;html=1;strokeColor=#FFFFFF;labelBackgroundColor=none;fillColor=#182E3E;fontColor=#FFFFFF;" vertex="1" parent="1">
          <mxGeometry x="438" y="2430" width="120" height="30" as="geometry" />
        </mxCell>
        <mxCell id="WgQKBNajAqg6zflXnb_T-3" value="Question" style="rounded=1;whiteSpace=wrap;html=1;strokeColor=#FFFFFF;labelBackgroundColor=none;fillColor=#182E3E;fontColor=#FFFFFF;" vertex="1" parent="1">
          <mxGeometry x="438" y="2410" width="115" height="20" as="geometry" />
        </mxCell>
        <mxCell id="WgQKBNajAqg6zflXnb_T-4" value="Type" style="rounded=1;whiteSpace=wrap;html=1;strokeColor=#FFFFFF;labelBackgroundColor=none;fillColor=#182E3E;fontColor=#FFFFFF;" vertex="1" parent="1">
          <mxGeometry x="559" y="2430" width="120" height="30" as="geometry" />
        </mxCell>
        <mxCell id="WgQKBNajAqg6zflXnb_T-5" value="Degree" style="rounded=1;whiteSpace=wrap;html=1;strokeColor=#FFFFFF;labelBackgroundColor=none;fillColor=#182E3E;fontColor=#FFFFFF;" vertex="1" parent="1">
          <mxGeometry x="679" y="2430" width="120" height="30" as="geometry" />
        </mxCell>
        <mxCell id="WgQKBNajAqg6zflXnb_T-6" value="Text" style="rounded=1;whiteSpace=wrap;html=1;strokeColor=#FFFFFF;labelBackgroundColor=none;fillColor=#182E3E;fontColor=#FFFFFF;" vertex="1" parent="1">
          <mxGeometry x="799" y="2430" width="120" height="30" as="geometry" />
        </mxCell>
        <mxCell id="Rqnvb4-BNfdtwzZiyXTl-1" value="&lt;u&gt;QuestionID&lt;/u&gt;" style="rounded=1;whiteSpace=wrap;html=1;strokeColor=#FFFFFF;labelBackgroundColor=none;fillColor=#182E3E;fontColor=#FFFFFF;" vertex="1" parent="1">
          <mxGeometry x="434" y="2340" width="120" height="30" as="geometry" />
        </mxCell>
        <mxCell id="Rqnvb4-BNfdtwzZiyXTl-2" value="ExamQuestions" style="rounded=1;whiteSpace=wrap;html=1;strokeColor=#FFFFFF;labelBackgroundColor=none;fillColor=#182E3E;fontColor=#FFFFFF;" vertex="1" parent="1">
          <mxGeometry x="434" y="2320" width="115" height="20" as="geometry" />
        </mxCell>
        <mxCell id="sUCdmJxsGPiNlRSwAt6A-2" value="" style="edgeStyle=orthogonalEdgeStyle;rounded=0;orthogonalLoop=1;jettySize=auto;html=1;" edge="1" parent="1" source="Rqnvb4-BNfdtwzZiyXTl-3" target="sUCdmJxsGPiNlRSwAt6A-1">
          <mxGeometry relative="1" as="geometry" />
        </mxCell>
        <mxCell id="Rqnvb4-BNfdtwzZiyXTl-3" value="&lt;u&gt;ExamID&lt;/u&gt;" style="rounded=1;whiteSpace=wrap;html=1;strokeColor=#FFFFFF;labelBackgroundColor=none;fillColor=#182E3E;fontColor=#FFFFFF;" vertex="1" parent="1">
          <mxGeometry x="555" y="2340" width="120" height="30" as="geometry" />
        </mxCell>
        <mxCell id="Rqnvb4-BNfdtwzZiyXTl-4" value="" style="endArrow=classic;html=1;rounded=1;strokeColor=#23445D;entryX=0;entryY=0.5;entryDx=0;entryDy=0;edgeStyle=orthogonalEdgeStyle;labelBackgroundColor=none;fontColor=default;" edge="1" parent="1" source="Rqnvb4-BNfdtwzZiyXTl-1" target="WgQKBNajAqg6zflXnb_T-1">
          <mxGeometry width="50" height="50" relative="1" as="geometry">
            <mxPoint x="430" y="2353" as="sourcePoint" />
            <mxPoint x="830" y="2330" as="targetPoint" />
            <Array as="points">
              <mxPoint x="410" y="2353" />
              <mxPoint x="410" y="2445" />
            </Array>
          </mxGeometry>
        </mxCell>
        <mxCell id="Rqnvb4-BNfdtwzZiyXTl-5" value="" style="endArrow=classic;html=1;rounded=1;strokeColor=#23445D;entryX=0.563;entryY=1.125;entryDx=0;entryDy=0;entryPerimeter=0;edgeStyle=orthogonalEdgeStyle;labelBackgroundColor=none;fontColor=default;" edge="1" parent="1" source="Rqnvb4-BNfdtwzZiyXTl-3" target="NH_kzWuVBM9fkIq-kDK0-1">
          <mxGeometry width="50" height="50" relative="1" as="geometry">
            <mxPoint x="625" y="2370" as="sourcePoint" />
            <mxPoint x="880" y="2430" as="targetPoint" />
            <Array as="points">
              <mxPoint x="623" y="2300" />
              <mxPoint x="503" y="2300" />
            </Array>
          </mxGeometry>
        </mxCell>
        <mxCell id="Rqnvb4-BNfdtwzZiyXTl-6" value="&lt;u&gt;ChoiceID&lt;/u&gt;" style="rounded=1;whiteSpace=wrap;html=1;strokeColor=#FFFFFF;labelBackgroundColor=none;fillColor=#182E3E;fontColor=#FFFFFF;" vertex="1" parent="1">
          <mxGeometry x="430" y="2570" width="120" height="30" as="geometry" />
        </mxCell>
        <mxCell id="Rqnvb4-BNfdtwzZiyXTl-7" value="Choice" style="rounded=1;whiteSpace=wrap;html=1;strokeColor=#FFFFFF;labelBackgroundColor=none;fillColor=#182E3E;fontColor=#FFFFFF;" vertex="1" parent="1">
          <mxGeometry x="430" y="2550" width="115" height="20" as="geometry" />
        </mxCell>
        <mxCell id="Rqnvb4-BNfdtwzZiyXTl-8" value="AnswerText" style="rounded=1;whiteSpace=wrap;html=1;strokeColor=#FFFFFF;labelBackgroundColor=none;fillColor=#182E3E;fontColor=#FFFFFF;" vertex="1" parent="1">
          <mxGeometry x="551" y="2570" width="120" height="30" as="geometry" />
        </mxCell>
        <mxCell id="Rqnvb4-BNfdtwzZiyXTl-9" value="QuestionID" style="rounded=1;whiteSpace=wrap;html=1;strokeColor=#FFFFFF;labelBackgroundColor=none;fillColor=#182E3E;fontColor=#FFFFFF;" vertex="1" parent="1">
          <mxGeometry x="671" y="2570" width="120" height="30" as="geometry" />
        </mxCell>
        <mxCell id="Rqnvb4-BNfdtwzZiyXTl-11" value="" style="endArrow=none;dashed=1;html=1;rounded=1;strokeColor=#23445D;labelBackgroundColor=none;fontColor=default;" edge="1" parent="1">
          <mxGeometry width="50" height="50" relative="1" as="geometry">
            <mxPoint x="705" y="2590" as="sourcePoint" />
            <mxPoint x="765" y="2590" as="targetPoint" />
          </mxGeometry>
        </mxCell>
        <mxCell id="Rqnvb4-BNfdtwzZiyXTl-12" value="" style="endArrow=classic;html=1;rounded=1;strokeColor=#23445D;exitX=0.697;exitY=-0.026;exitDx=0;exitDy=0;exitPerimeter=0;edgeStyle=orthogonalEdgeStyle;entryX=0.621;entryY=1.016;entryDx=0;entryDy=0;entryPerimeter=0;labelBackgroundColor=none;fontColor=default;" edge="1" parent="1" source="Rqnvb4-BNfdtwzZiyXTl-9" target="WgQKBNajAqg6zflXnb_T-1">
          <mxGeometry width="50" height="50" relative="1" as="geometry">
            <mxPoint x="780" y="2640" as="sourcePoint" />
            <mxPoint x="510" y="2470" as="targetPoint" />
          </mxGeometry>
        </mxCell>
        <mxCell id="2ih6xg8kmcNSEf9Sykzn-1" value="" style="endArrow=none;html=1;rounded=1;strokeColor=#23445D;labelBackgroundColor=none;fontColor=default;" edge="1" parent="1" target="Zi61UWu5ymwNtLlk9do2-1">
          <mxGeometry width="50" height="50" relative="1" as="geometry">
            <mxPoint x="380" y="2154.55" as="sourcePoint" />
            <mxPoint x="430" y="2154.55" as="targetPoint" />
          </mxGeometry>
        </mxCell>
        <mxCell id="2ih6xg8kmcNSEf9Sykzn-4" value="" style="endArrow=none;html=1;rounded=1;strokeColor=#23445D;entryX=0;entryY=0.5;entryDx=0;entryDy=0;labelBackgroundColor=none;fontColor=default;" edge="1" parent="1">
          <mxGeometry width="50" height="50" relative="1" as="geometry">
            <mxPoint x="380" y="430" as="sourcePoint" />
            <mxPoint x="440" y="430.02000000000015" as="targetPoint" />
          </mxGeometry>
        </mxCell>
        <mxCell id="N7efSfn37NT1sHAjwe3B-1" value="&lt;u&gt;StudentID&lt;/u&gt;" style="rounded=1;whiteSpace=wrap;html=1;strokeColor=#FFFFFF;labelBackgroundColor=none;fillColor=#182E3E;fontColor=#FFFFFF;" vertex="1" parent="1">
          <mxGeometry x="429" y="2675" width="120" height="30" as="geometry" />
        </mxCell>
        <mxCell id="N7efSfn37NT1sHAjwe3B-2" value="StudentAnswers" style="rounded=1;whiteSpace=wrap;html=1;strokeColor=#FFFFFF;labelBackgroundColor=none;fillColor=#182E3E;fontColor=#FFFFFF;" vertex="1" parent="1">
          <mxGeometry x="429" y="2655" width="115" height="20" as="geometry" />
        </mxCell>
        <mxCell id="N7efSfn37NT1sHAjwe3B-3" value="&lt;u&gt;ExamID&lt;/u&gt;" style="rounded=1;whiteSpace=wrap;html=1;strokeColor=#FFFFFF;labelBackgroundColor=none;fillColor=#182E3E;fontColor=#FFFFFF;" vertex="1" parent="1">
          <mxGeometry x="550" y="2675" width="120" height="30" as="geometry" />
        </mxCell>
        <mxCell id="N7efSfn37NT1sHAjwe3B-4" value="&lt;u&gt;QuestionID&lt;/u&gt;" style="rounded=1;whiteSpace=wrap;html=1;strokeColor=#FFFFFF;labelBackgroundColor=none;fillColor=#182E3E;fontColor=#FFFFFF;" vertex="1" parent="1">
          <mxGeometry x="670" y="2675" width="120" height="30" as="geometry" />
        </mxCell>
        <mxCell id="VrGqbhcQJtJ9-QKlHevl-1" value="StudentAnswer" style="rounded=1;whiteSpace=wrap;html=1;strokeColor=#FFFFFF;labelBackgroundColor=none;fillColor=#182E3E;fontColor=#FFFFFF;" vertex="1" parent="1">
          <mxGeometry x="910" y="2675" width="120" height="30" as="geometry" />
        </mxCell>
        <mxCell id="VrGqbhcQJtJ9-QKlHevl-2" value="StudentScore" style="rounded=1;whiteSpace=wrap;html=1;strokeColor=#FFFFFF;labelBackgroundColor=none;fillColor=#182E3E;fontColor=#FFFFFF;" vertex="1" parent="1">
          <mxGeometry x="790" y="2675" width="120" height="30" as="geometry" />
        </mxCell>
        <mxCell id="83Ao5kZSUOJwNrpvHl7C-3" value="" style="endArrow=classic;html=1;rounded=1;strokeColor=#23445D;edgeStyle=orthogonalEdgeStyle;entryX=0.75;entryY=1;entryDx=0;entryDy=0;labelBackgroundColor=none;fontColor=default;" edge="1" parent="1" source="N7efSfn37NT1sHAjwe3B-3" target="NH_kzWuVBM9fkIq-kDK0-1">
          <mxGeometry width="50" height="50" relative="1" as="geometry">
            <mxPoint x="1030" y="2460" as="sourcePoint" />
            <mxPoint x="525" y="2270" as="targetPoint" />
            <Array as="points">
              <mxPoint x="610" y="2660" />
              <mxPoint x="940" y="2660" />
              <mxPoint x="940" y="2290" />
              <mxPoint x="525" y="2290" />
            </Array>
          </mxGeometry>
        </mxCell>
        <mxCell id="83Ao5kZSUOJwNrpvHl7C-4" value="" style="endArrow=classic;html=1;rounded=1;strokeColor=#23445D;exitX=0.5;exitY=0;exitDx=0;exitDy=0;entryX=0.75;entryY=1;entryDx=0;entryDy=0;edgeStyle=orthogonalEdgeStyle;labelBackgroundColor=none;fontColor=default;" edge="1" parent="1" source="N7efSfn37NT1sHAjwe3B-4" target="WgQKBNajAqg6zflXnb_T-1">
          <mxGeometry width="50" height="50" relative="1" as="geometry">
            <mxPoint x="1030" y="2460" as="sourcePoint" />
            <mxPoint x="1080" y="2410" as="targetPoint" />
            <Array as="points">
              <mxPoint x="730" y="2640" />
              <mxPoint x="810" y="2640" />
              <mxPoint x="810" y="2490" />
              <mxPoint x="528" y="2490" />
            </Array>
          </mxGeometry>
        </mxCell>
        <mxCell id="27NoGVrpxLwggrYHNAmZ-1" value="&lt;u&gt;CertficateID&lt;/u&gt;" style="rounded=1;whiteSpace=wrap;html=1;strokeColor=#FFFFFF;labelBackgroundColor=none;fillColor=#182E3E;fontColor=#FFFFFF;" vertex="1" parent="1">
          <mxGeometry x="559" y="420" width="120" height="30" as="geometry" />
        </mxCell>
        <mxCell id="27NoGVrpxLwggrYHNAmZ-4" value="&lt;u&gt;StudentID&lt;/u&gt;" style="rounded=1;whiteSpace=wrap;html=1;strokeColor=#FFFFFF;labelBackgroundColor=none;fillColor=#182E3E;fontColor=#FFFFFF;" vertex="1" parent="1">
          <mxGeometry x="439" y="230" width="120" height="30" as="geometry" />
        </mxCell>
        <mxCell id="27NoGVrpxLwggrYHNAmZ-5" value="&lt;u&gt;SkillsTags&lt;/u&gt;" style="rounded=1;whiteSpace=wrap;html=1;strokeColor=#FFFFFF;labelBackgroundColor=none;fillColor=#182E3E;fontColor=#FFFFFF;" vertex="1" parent="1">
          <mxGeometry x="559" y="230" width="120" height="30" as="geometry" />
        </mxCell>
        <mxCell id="27NoGVrpxLwggrYHNAmZ-6" value="StudentSkills" style="rounded=1;whiteSpace=wrap;html=1;strokeColor=#FFFFFF;labelBackgroundColor=none;fillColor=#182E3E;fontColor=#FFFFFF;" vertex="1" parent="1">
          <mxGeometry x="439" y="210" width="115" height="20" as="geometry" />
        </mxCell>
        <mxCell id="27NoGVrpxLwggrYHNAmZ-8" value="" style="endArrow=none;html=1;rounded=1;strokeColor=#23445D;entryX=0;entryY=0.5;entryDx=0;entryDy=0;labelBackgroundColor=none;fontColor=default;" edge="1" parent="1">
          <mxGeometry width="50" height="50" relative="1" as="geometry">
            <mxPoint x="380" y="244" as="sourcePoint" />
            <mxPoint x="439" y="244.38" as="targetPoint" />
          </mxGeometry>
        </mxCell>
        <mxCell id="W0Xfkvy-mb3Dn5fJvUP4-1" value="Grade" style="rounded=1;whiteSpace=wrap;html=1;strokeColor=#FFFFFF;labelBackgroundColor=none;fillColor=#182E3E;fontColor=#FFFFFF;" vertex="1" parent="1">
          <mxGeometry x="680" y="420" width="120" height="30" as="geometry" />
        </mxCell>
        <mxCell id="u5kJQIHG9KPcFybcmhs6-1" value="&lt;u&gt;JobID&lt;/u&gt;" style="rounded=1;whiteSpace=wrap;html=1;strokeColor=#FFFFFF;labelBackgroundColor=none;fillColor=#182E3E;fontColor=#FFFFFF;" vertex="1" parent="1">
          <mxGeometry x="1640" y="130" width="120" height="30" as="geometry" />
        </mxCell>
        <mxCell id="u5kJQIHG9KPcFybcmhs6-2" value="JobDescription" style="rounded=1;whiteSpace=wrap;html=1;strokeColor=#FFFFFF;labelBackgroundColor=none;fillColor=#182E3E;fontColor=#FFFFFF;" vertex="1" parent="1">
          <mxGeometry x="1759" y="130" width="120" height="30" as="geometry" />
        </mxCell>
        <mxCell id="u5kJQIHG9KPcFybcmhs6-3" value="Platform" style="rounded=1;whiteSpace=wrap;html=1;strokeColor=#FFFFFF;labelBackgroundColor=none;fillColor=#182E3E;fontColor=#FFFFFF;" vertex="1" parent="1">
          <mxGeometry x="1880" y="130" width="120" height="30" as="geometry" />
        </mxCell>
        <mxCell id="u5kJQIHG9KPcFybcmhs6-4" value="JobRate" style="rounded=1;whiteSpace=wrap;html=1;strokeColor=#FFFFFF;labelBackgroundColor=none;fillColor=#182E3E;fontColor=#FFFFFF;" vertex="1" parent="1">
          <mxGeometry x="2000" y="130" width="120" height="30" as="geometry" />
        </mxCell>
        <mxCell id="dU2eEih8lCIZVkJBmgaW-3" value="FilePath" style="rounded=1;whiteSpace=wrap;html=1;strokeColor=#FFFFFF;labelBackgroundColor=none;fillColor=#182E3E;fontColor=#FFFFFF;" vertex="1" parent="1">
          <mxGeometry x="681" y="310" width="120" height="30" as="geometry" />
        </mxCell>
        <mxCell id="IgRU-leanq0fWnQwbvIJ-1" value="" style="endArrow=classic;html=1;rounded=1;strokeColor=#23445D;exitX=0.5;exitY=0;exitDx=0;exitDy=0;entryX=0.693;entryY=1.105;entryDx=0;entryDy=0;entryPerimeter=0;edgeStyle=orthogonalEdgeStyle;labelBackgroundColor=none;fontColor=default;" edge="1" parent="1" source="27NoGVrpxLwggrYHNAmZ-1" target="oeGDdIarXh6p8NkHgZEL-17">
          <mxGeometry width="50" height="50" relative="1" as="geometry">
            <mxPoint x="880" y="320" as="sourcePoint" />
            <mxPoint x="930" y="270" as="targetPoint" />
          </mxGeometry>
        </mxCell>
        <mxCell id="IgRU-leanq0fWnQwbvIJ-3" value="StudentCertficate" style="rounded=1;whiteSpace=wrap;html=1;strokeColor=#FFFFFF;labelBackgroundColor=none;fillColor=#182E3E;fontColor=#FFFFFF;" vertex="1" parent="1">
          <mxGeometry x="439" y="400" width="115" height="20" as="geometry" />
        </mxCell>
        <mxCell id="IgRU-leanq0fWnQwbvIJ-4" value="&lt;u&gt;CompanyID&lt;/u&gt;" style="rounded=1;whiteSpace=wrap;html=1;strokeColor=#FFFFFF;labelBackgroundColor=none;fillColor=#182E3E;fontColor=#FFFFFF;" vertex="1" parent="1">
          <mxGeometry x="441" y="610" width="120" height="30" as="geometry" />
        </mxCell>
        <mxCell id="IgRU-leanq0fWnQwbvIJ-5" value="CompanyName" style="rounded=1;whiteSpace=wrap;html=1;strokeColor=#FFFFFF;labelBackgroundColor=none;fillColor=#182E3E;fontColor=#FFFFFF;" vertex="1" parent="1">
          <mxGeometry x="560" y="610" width="120" height="30" as="geometry" />
        </mxCell>
        <mxCell id="IgRU-leanq0fWnQwbvIJ-6" value="Company" style="rounded=1;whiteSpace=wrap;html=1;strokeColor=#FFFFFF;labelBackgroundColor=none;fillColor=#182E3E;fontColor=#FFFFFF;" vertex="1" parent="1">
          <mxGeometry x="440" y="590" width="115" height="20" as="geometry" />
        </mxCell>
        <mxCell id="b_JPOo6YHQgdle56Dhkz-2" value="CompanyLocation" style="rounded=1;whiteSpace=wrap;html=1;strokeColor=#FFFFFF;labelBackgroundColor=none;fillColor=#182E3E;fontColor=#FFFFFF;" vertex="1" parent="1">
          <mxGeometry x="681" y="610" width="120" height="30" as="geometry" />
        </mxCell>
        <mxCell id="KDCe8rfLSlkWUWpa3a-D-1" value="&lt;u&gt;StudentID&lt;/u&gt;" style="rounded=1;whiteSpace=wrap;html=1;strokeColor=#FFFFFF;labelBackgroundColor=none;fillColor=#182E3E;fontColor=#FFFFFF;" vertex="1" parent="1">
          <mxGeometry x="440" y="520" width="120" height="30" as="geometry" />
        </mxCell>
        <mxCell id="KDCe8rfLSlkWUWpa3a-D-2" value="&lt;u&gt;CompanyID&lt;/u&gt;" style="rounded=1;whiteSpace=wrap;html=1;strokeColor=#FFFFFF;labelBackgroundColor=none;fillColor=#182E3E;fontColor=#FFFFFF;" vertex="1" parent="1">
          <mxGeometry x="559" y="520" width="120" height="30" as="geometry" />
        </mxCell>
        <mxCell id="KDCe8rfLSlkWUWpa3a-D-3" value="StudentCompany" style="rounded=1;whiteSpace=wrap;html=1;strokeColor=#FFFFFF;labelBackgroundColor=none;fillColor=#182E3E;fontColor=#FFFFFF;" vertex="1" parent="1">
          <mxGeometry x="440" y="500" width="115" height="20" as="geometry" />
        </mxCell>
        <mxCell id="wUP7SC2m3oV7jsY-0LvE-1" value="" style="endArrow=none;html=1;rounded=1;strokeColor=#23445D;entryX=0;entryY=0.5;entryDx=0;entryDy=0;labelBackgroundColor=none;fontColor=default;" edge="1" parent="1">
          <mxGeometry width="50" height="50" relative="1" as="geometry">
            <mxPoint x="381" y="534.44" as="sourcePoint" />
            <mxPoint x="441" y="534.4600000000003" as="targetPoint" />
          </mxGeometry>
        </mxCell>
        <mxCell id="wUP7SC2m3oV7jsY-0LvE-3" value="" style="endArrow=classic;html=1;rounded=1;strokeColor=#23445D;exitX=0.378;exitY=0.875;exitDx=0;exitDy=0;entryX=0.378;entryY=0.875;entryDx=0;entryDy=0;entryPerimeter=0;edgeStyle=orthogonalEdgeStyle;exitPerimeter=0;labelBackgroundColor=none;fontColor=default;" edge="1" parent="1" source="KDCe8rfLSlkWUWpa3a-D-2">
          <mxGeometry width="50" height="50" relative="1" as="geometry">
            <mxPoint x="346" y="550" as="sourcePoint" />
            <mxPoint x="441" y="627" as="targetPoint" />
            <Array as="points">
              <mxPoint x="604" y="570" />
              <mxPoint x="410" y="570" />
              <mxPoint x="410" y="628" />
            </Array>
          </mxGeometry>
        </mxCell>
        <mxCell id="wUP7SC2m3oV7jsY-0LvE-5" value="" style="endArrow=none;html=1;rounded=1;strokeColor=#23445D;entryX=0;entryY=0.5;entryDx=0;entryDy=0;labelBackgroundColor=none;fontColor=default;" edge="1" parent="1" target="N7efSfn37NT1sHAjwe3B-1">
          <mxGeometry width="50" height="50" relative="1" as="geometry">
            <mxPoint x="381" y="2689.55" as="sourcePoint" />
            <mxPoint x="439" y="2690" as="targetPoint" />
          </mxGeometry>
        </mxCell>
        <mxCell id="fCu7tGu5nBEZ7ZRVQQvc-4" style="edgeStyle=orthogonalEdgeStyle;rounded=0;orthogonalLoop=1;jettySize=auto;html=1;exitX=0.75;exitY=0;exitDx=0;exitDy=0;entryX=0.5;entryY=1;entryDx=0;entryDy=0;" edge="1" parent="1" source="fCu7tGu5nBEZ7ZRVQQvc-1" target="At2QDX2_6IW_tZ6OOKOL-1">
          <mxGeometry relative="1" as="geometry">
            <mxPoint x="760.5556063850722" y="1557.2222900390627" as="targetPoint" />
            <Array as="points">
              <mxPoint x="1215" y="1840" />
              <mxPoint x="1215" y="1181" />
              <mxPoint x="495" y="1181" />
            </Array>
          </mxGeometry>
        </mxCell>
        <mxCell id="fCu7tGu5nBEZ7ZRVQQvc-1" value="BranchID" style="rounded=1;whiteSpace=wrap;html=1;strokeColor=#FFFFFF;labelBackgroundColor=none;fillColor=#182E3E;fontColor=#FFFFFF;" vertex="1" parent="1">
          <mxGeometry x="789" y="1840" width="120" height="30" as="geometry" />
        </mxCell>
        <mxCell id="fCu7tGu5nBEZ7ZRVQQvc-6" value="" style="endArrow=classic;html=1;rounded=1;strokeColor=#23445D;edgeStyle=orthogonalEdgeStyle;labelBackgroundColor=none;fontColor=default;entryX=0.5;entryY=1;entryDx=0;entryDy=0;exitX=0.5;exitY=0;exitDx=0;exitDy=0;" edge="1" parent="1" source="fCu7tGu5nBEZ7ZRVQQvc-1" target="At2QDX2_6IW_tZ6OOKOL-1">
          <mxGeometry width="50" height="50" relative="1" as="geometry">
            <mxPoint x="879" y="1842" as="sourcePoint" />
            <mxPoint x="759" y="1337.3333333333333" as="targetPoint" />
            <Array as="points">
              <mxPoint x="849" y="1762" />
              <mxPoint x="1193" y="1762" />
              <mxPoint x="1193" y="1184" />
              <mxPoint x="495" y="1184" />
            </Array>
          </mxGeometry>
        </mxCell>
        <mxCell id="lutr2Nnmt-ViDxGIF_Zp-2" value="" style="endArrow=classic;html=1;rounded=1;strokeColor=#23445D;entryX=0.75;entryY=1;entryDx=0;entryDy=0;edgeStyle=orthogonalEdgeStyle;labelBackgroundColor=none;fontColor=default;exitX=0.5;exitY=0;exitDx=0;exitDy=0;" edge="1" parent="1" source="NH_kzWuVBM9fkIq-kDK0-15" target="2WjJMr5K2dQVfP4u9gUC-4">
          <mxGeometry width="50" height="50" relative="1" as="geometry">
            <mxPoint x="1213" y="2177.97" as="sourcePoint" />
            <mxPoint x="1091" y="2071.97" as="targetPoint" />
            <Array as="points">
              <mxPoint x="1213" y="2230" />
              <mxPoint x="1213" y="1897" />
              <mxPoint x="525" y="1897" />
            </Array>
          </mxGeometry>
        </mxCell>
        <mxCell id="lutr2Nnmt-ViDxGIF_Zp-3" value="InstructorID" style="rounded=1;whiteSpace=wrap;html=1;strokeColor=#FFFFFF;labelBackgroundColor=none;fillColor=#182E3E;fontColor=#FFFFFF;" vertex="1" parent="1">
          <mxGeometry x="1275" y="2230" width="120" height="30" as="geometry" />
        </mxCell>
        <mxCell id="lutr2Nnmt-ViDxGIF_Zp-5" value="" style="endArrow=classic;html=1;rounded=1;strokeColor=#23445D;entryX=0.5;entryY=1;entryDx=0;entryDy=0;edgeStyle=orthogonalEdgeStyle;labelBackgroundColor=none;fontColor=default;exitX=0.5;exitY=0;exitDx=0;exitDy=0;" edge="1" parent="1" target="At2QDX2_6IW_tZ6OOKOL-34">
          <mxGeometry width="50" height="50" relative="1" as="geometry">
            <mxPoint x="1340" y="2233" as="sourcePoint" />
            <mxPoint x="650" y="1873" as="targetPoint" />
            <Array as="points">
              <mxPoint x="1338" y="2233" />
              <mxPoint x="1338" y="1659" />
              <mxPoint x="500" y="1659" />
            </Array>
          </mxGeometry>
        </mxCell>
        <mxCell id="sUCdmJxsGPiNlRSwAt6A-1" value="&lt;u&gt;Grade&lt;/u&gt;" style="rounded=1;whiteSpace=wrap;html=1;strokeColor=#FFFFFF;labelBackgroundColor=none;fillColor=#182E3E;fontColor=#FFFFFF;" vertex="1" parent="1">
          <mxGeometry x="675" y="2340" width="120" height="30" as="geometry" />
        </mxCell>
      </root>
    </mxGraphModel>
  </diagram>
</mxfile>
